ISO-10303-21;
HEADER;
/* Generated by software containing ST-Developer
 * from STEP Tools, Inc. (www.steptools.com) 
 */

FILE_DESCRIPTION(
/* description */ (''),
/* implementation_level */ '2;1');

FILE_NAME(
/* name */ 'HighPrecisionStepperJuggler.step',
/* time_stamp */ '2026-05-11T14:19:17+02:00',
/* author */ (''),
/* organization */ (''),
/* preprocessor_version */ 'ST-DEVELOPER v20.1',
/* originating_system */ 'Autodesk Translation Framework v15.8.0.0',
/* authorisation */ '');

FILE_SCHEMA (('AUTOMOTIVE_DESIGN { 1 0 10303 214 3 1 1 }'));
ENDSEC;

DATA;
#10=MECHANICAL_DESIGN_GEOMETRIC_PRESENTATION_REPRESENTATION('',(#17),#1422);
#11=ITEM_DEFINED_TRANSFORMATION($,$,#854,#934);
#12=(
REPRESENTATION_RELATIONSHIP($,$,#1433,#1432)
REPRESENTATION_RELATIONSHIP_WITH_TRANSFORMATION(#11)
SHAPE_REPRESENTATION_RELATIONSHIP()
);
#13=CONTEXT_DEPENDENT_SHAPE_REPRESENTATION(#12,#1431);
#14=NEXT_ASSEMBLY_USAGE_OCCURRENCE('camera:1','camera:1','camera:1',#1435,
#1436,'camera:1');
#15=SHAPE_REPRESENTATION_RELATIONSHIP('SRR','None',#1433,#16);
#16=ADVANCED_BREP_SHAPE_REPRESENTATION('',(#18),#1421);
#17=STYLED_ITEM('',(#1446),#18);
#18=MANIFOLD_SOLID_BREP('Body2',#840);
#19=FACE_BOUND('',#107,.T.);
#20=FACE_BOUND('',#108,.T.);
#21=FACE_BOUND('',#109,.T.);
#22=FACE_BOUND('',#110,.T.);
#23=FACE_BOUND('',#111,.T.);
#24=FACE_BOUND('',#112,.T.);
#25=FACE_BOUND('',#113,.T.);
#26=FACE_BOUND('',#114,.T.);
#27=FACE_BOUND('',#138,.T.);
#28=FACE_BOUND('',#139,.T.);
#29=FACE_BOUND('',#140,.T.);
#30=FACE_BOUND('',#141,.T.);
#31=FACE_BOUND('',#142,.T.);
#32=FACE_BOUND('',#143,.T.);
#33=FACE_BOUND('',#144,.T.);
#34=FACE_BOUND('',#145,.T.);
#35=PLANE('',#864);
#36=PLANE('',#865);
#37=PLANE('',#866);
#38=PLANE('',#867);
#39=PLANE('',#868);
#40=PLANE('',#869);
#41=PLANE('',#886);
#42=PLANE('',#897);
#43=PLANE('',#900);
#44=PLANE('',#903);
#45=PLANE('',#906);
#46=PLANE('',#909);
#47=PLANE('',#912);
#48=PLANE('',#915);
#49=PLANE('',#918);
#50=PLANE('',#921);
#51=PLANE('',#928);
#52=PLANE('',#929);
#53=PLANE('',#930);
#54=PLANE('',#931);
#55=PLANE('',#932);
#56=PLANE('',#933);
#57=FACE_OUTER_BOUND('',#98,.T.);
#58=FACE_OUTER_BOUND('',#99,.T.);
#59=FACE_OUTER_BOUND('',#100,.T.);
#60=FACE_OUTER_BOUND('',#101,.T.);
#61=FACE_OUTER_BOUND('',#102,.T.);
#62=FACE_OUTER_BOUND('',#103,.T.);
#63=FACE_OUTER_BOUND('',#104,.T.);
#64=FACE_OUTER_BOUND('',#105,.T.);
#65=FACE_OUTER_BOUND('',#106,.T.);
#66=FACE_OUTER_BOUND('',#115,.T.);
#67=FACE_OUTER_BOUND('',#116,.T.);
#68=FACE_OUTER_BOUND('',#117,.T.);
#69=FACE_OUTER_BOUND('',#118,.T.);
#70=FACE_OUTER_BOUND('',#119,.T.);
#71=FACE_OUTER_BOUND('',#120,.T.);
#72=FACE_OUTER_BOUND('',#121,.T.);
#73=FACE_OUTER_BOUND('',#122,.T.);
#74=FACE_OUTER_BOUND('',#123,.T.);
#75=FACE_OUTER_BOUND('',#124,.T.);
#76=FACE_OUTER_BOUND('',#125,.T.);
#77=FACE_OUTER_BOUND('',#126,.T.);
#78=FACE_OUTER_BOUND('',#127,.T.);
#79=FACE_OUTER_BOUND('',#128,.T.);
#80=FACE_OUTER_BOUND('',#129,.T.);
#81=FACE_OUTER_BOUND('',#130,.T.);
#82=FACE_OUTER_BOUND('',#131,.T.);
#83=FACE_OUTER_BOUND('',#132,.T.);
#84=FACE_OUTER_BOUND('',#133,.T.);
#85=FACE_OUTER_BOUND('',#134,.T.);
#86=FACE_OUTER_BOUND('',#135,.T.);
#87=FACE_OUTER_BOUND('',#136,.T.);
#88=FACE_OUTER_BOUND('',#137,.T.);
#89=FACE_OUTER_BOUND('',#146,.T.);
#90=FACE_OUTER_BOUND('',#147,.T.);
#91=FACE_OUTER_BOUND('',#148,.T.);
#92=FACE_OUTER_BOUND('',#149,.T.);
#93=FACE_OUTER_BOUND('',#150,.T.);
#94=FACE_OUTER_BOUND('',#151,.T.);
#95=FACE_OUTER_BOUND('',#152,.T.);
#96=FACE_OUTER_BOUND('',#153,.T.);
#97=FACE_OUTER_BOUND('',#154,.T.);
#98=EDGE_LOOP('',(#546,#547,#548,#549));
#99=EDGE_LOOP('',(#550,#551,#552,#553));
#100=EDGE_LOOP('',(#554,#555,#556,#557));
#101=EDGE_LOOP('',(#558,#559,#560,#561));
#102=EDGE_LOOP('',(#562,#563,#564,#565));
#103=EDGE_LOOP('',(#566,#567,#568,#569));
#104=EDGE_LOOP('',(#570,#571,#572,#573));
#105=EDGE_LOOP('',(#574,#575,#576,#577));
#106=EDGE_LOOP('',(#578,#579,#580,#581,#582,#583,#584,#585));
#107=EDGE_LOOP('',(#586));
#108=EDGE_LOOP('',(#587));
#109=EDGE_LOOP('',(#588));
#110=EDGE_LOOP('',(#589,#590,#591,#592,#593,#594,#595,#596,#597,#598,#599,
#600,#601,#602,#603,#604,#605,#606,#607,#608,#609,#610,#611,#612));
#111=EDGE_LOOP('',(#613));
#112=EDGE_LOOP('',(#614));
#113=EDGE_LOOP('',(#615));
#114=EDGE_LOOP('',(#616));
#115=EDGE_LOOP('',(#617,#618,#619,#620));
#116=EDGE_LOOP('',(#621,#622,#623,#624));
#117=EDGE_LOOP('',(#625,#626,#627,#628));
#118=EDGE_LOOP('',(#629,#630,#631,#632));
#119=EDGE_LOOP('',(#633,#634,#635,#636));
#120=EDGE_LOOP('',(#637,#638,#639,#640));
#121=EDGE_LOOP('',(#641,#642,#643,#644));
#122=EDGE_LOOP('',(#645,#646,#647,#648));
#123=EDGE_LOOP('',(#649,#650,#651,#652));
#124=EDGE_LOOP('',(#653,#654,#655,#656));
#125=EDGE_LOOP('',(#657,#658,#659,#660));
#126=EDGE_LOOP('',(#661,#662,#663,#664));
#127=EDGE_LOOP('',(#665,#666,#667,#668));
#128=EDGE_LOOP('',(#669,#670,#671,#672));
#129=EDGE_LOOP('',(#673,#674,#675,#676));
#130=EDGE_LOOP('',(#677,#678,#679,#680));
#131=EDGE_LOOP('',(#681,#682,#683,#684));
#132=EDGE_LOOP('',(#685,#686,#687,#688));
#133=EDGE_LOOP('',(#689,#690,#691,#692));
#134=EDGE_LOOP('',(#693,#694,#695,#696));
#135=EDGE_LOOP('',(#697,#698,#699,#700));
#136=EDGE_LOOP('',(#701,#702,#703,#704));
#137=EDGE_LOOP('',(#705,#706,#707,#708,#709,#710,#711,#712));
#138=EDGE_LOOP('',(#713));
#139=EDGE_LOOP('',(#714));
#140=EDGE_LOOP('',(#715));
#141=EDGE_LOOP('',(#716));
#142=EDGE_LOOP('',(#717));
#143=EDGE_LOOP('',(#718));
#144=EDGE_LOOP('',(#719));
#145=EDGE_LOOP('',(#720,#721,#722,#723,#724,#725,#726,#727,#728,#729,#730,
#731,#732,#733,#734,#735,#736,#737,#738,#739,#740,#741,#742,#743));
#146=EDGE_LOOP('',(#744,#745,#746,#747));
#147=EDGE_LOOP('',(#748,#749,#750,#751));
#148=EDGE_LOOP('',(#752,#753,#754,#755));
#149=EDGE_LOOP('',(#756,#757,#758,#759));
#150=EDGE_LOOP('',(#760,#761,#762,#763));
#151=EDGE_LOOP('',(#764,#765,#766,#767));
#152=EDGE_LOOP('',(#768,#769,#770,#771));
#153=EDGE_LOOP('',(#772,#773,#774,#775));
#154=EDGE_LOOP('',(#776,#777,#778,#779));
#155=LINE('',#1184,#234);
#156=LINE('',#1190,#235);
#157=LINE('',#1196,#236);
#158=LINE('',#1201,#237);
#159=LINE('',#1203,#238);
#160=LINE('',#1205,#239);
#161=LINE('',#1206,#240);
#162=LINE('',#1210,#241);
#163=LINE('',#1212,#242);
#164=LINE('',#1214,#243);
#165=LINE('',#1215,#244);
#166=LINE('',#1219,#245);
#167=LINE('',#1221,#246);
#168=LINE('',#1223,#247);
#169=LINE('',#1224,#248);
#170=LINE('',#1228,#249);
#171=LINE('',#1230,#250);
#172=LINE('',#1232,#251);
#173=LINE('',#1233,#252);
#174=LINE('',#1235,#253);
#175=LINE('',#1236,#254);
#176=LINE('',#1238,#255);
#177=LINE('',#1239,#256);
#178=LINE('',#1240,#257);
#179=LINE('',#1245,#258);
#180=LINE('',#1249,#259);
#181=LINE('',#1253,#260);
#182=LINE('',#1257,#261);
#183=LINE('',#1261,#262);
#184=LINE('',#1265,#263);
#185=LINE('',#1269,#264);
#186=LINE('',#1273,#265);
#187=LINE('',#1277,#266);
#188=LINE('',#1281,#267);
#189=LINE('',#1285,#268);
#190=LINE('',#1288,#269);
#191=LINE('',#1298,#270);
#192=LINE('',#1302,#271);
#193=LINE('',#1306,#272);
#194=LINE('',#1310,#273);
#195=LINE('',#1314,#274);
#196=LINE('',#1319,#275);
#197=LINE('',#1320,#276);
#198=LINE('',#1323,#277);
#199=LINE('',#1324,#278);
#200=LINE('',#1327,#279);
#201=LINE('',#1330,#280);
#202=LINE('',#1333,#281);
#203=LINE('',#1334,#282);
#204=LINE('',#1339,#283);
#205=LINE('',#1340,#284);
#206=LINE('',#1343,#285);
#207=LINE('',#1344,#286);
#208=LINE('',#1347,#287);
#209=LINE('',#1350,#288);
#210=LINE('',#1353,#289);
#211=LINE('',#1354,#290);
#212=LINE('',#1359,#291);
#213=LINE('',#1360,#292);
#214=LINE('',#1363,#293);
#215=LINE('',#1364,#294);
#216=LINE('',#1367,#295);
#217=LINE('',#1370,#296);
#218=LINE('',#1373,#297);
#219=LINE('',#1374,#298);
#220=LINE('',#1379,#299);
#221=LINE('',#1380,#300);
#222=LINE('',#1383,#301);
#223=LINE('',#1384,#302);
#224=LINE('',#1387,#303);
#225=LINE('',#1390,#304);
#226=LINE('',#1393,#305);
#227=LINE('',#1394,#306);
#228=LINE('',#1398,#307);
#229=LINE('',#1399,#308);
#230=LINE('',#1400,#309);
#231=LINE('',#1402,#310);
#232=LINE('',#1404,#311);
#233=LINE('',#1406,#312);
#234=VECTOR('',#943,1.5);
#235=VECTOR('',#950,1.5);
#236=VECTOR('',#957,1.5);
#237=VECTOR('',#962,10.);
#238=VECTOR('',#963,10.);
#239=VECTOR('',#964,10.);
#240=VECTOR('',#965,10.);
#241=VECTOR('',#968,10.);
#242=VECTOR('',#969,10.);
#243=VECTOR('',#970,10.);
#244=VECTOR('',#971,10.);
#245=VECTOR('',#974,10.);
#246=VECTOR('',#975,10.);
#247=VECTOR('',#976,10.);
#248=VECTOR('',#977,10.);
#249=VECTOR('',#980,10.);
#250=VECTOR('',#981,10.);
#251=VECTOR('',#982,10.);
#252=VECTOR('',#983,10.);
#253=VECTOR('',#986,10.);
#254=VECTOR('',#987,10.);
#255=VECTOR('',#990,10.);
#256=VECTOR('',#991,10.);
#257=VECTOR('',#992,10.);
#258=VECTOR('',#995,10.);
#259=VECTOR('',#998,10.);
#260=VECTOR('',#1001,10.);
#261=VECTOR('',#1004,10.);
#262=VECTOR('',#1007,10.);
#263=VECTOR('',#1010,10.);
#264=VECTOR('',#1013,10.);
#265=VECTOR('',#1016,10.);
#266=VECTOR('',#1019,10.);
#267=VECTOR('',#1022,10.);
#268=VECTOR('',#1025,10.);
#269=VECTOR('',#1028,10.);
#270=VECTOR('',#1039,10.);
#271=VECTOR('',#1044,1.);
#272=VECTOR('',#1049,1.);
#273=VECTOR('',#1054,1.);
#274=VECTOR('',#1059,1.);
#275=VECTOR('',#1064,10.);
#276=VECTOR('',#1065,10.);
#277=VECTOR('',#1068,10.);
#278=VECTOR('',#1069,10.);
#279=VECTOR('',#1072,10.);
#280=VECTOR('',#1075,10.);
#281=VECTOR('',#1078,10.);
#282=VECTOR('',#1079,10.);
#283=VECTOR('',#1084,10.);
#284=VECTOR('',#1085,10.);
#285=VECTOR('',#1088,10.);
#286=VECTOR('',#1089,10.);
#287=VECTOR('',#1092,10.);
#288=VECTOR('',#1095,10.);
#289=VECTOR('',#1098,10.);
#290=VECTOR('',#1099,10.);
#291=VECTOR('',#1104,10.);
#292=VECTOR('',#1105,10.);
#293=VECTOR('',#1108,10.);
#294=VECTOR('',#1109,10.);
#295=VECTOR('',#1112,10.);
#296=VECTOR('',#1115,10.);
#297=VECTOR('',#1118,10.);
#298=VECTOR('',#1119,10.);
#299=VECTOR('',#1124,10.);
#300=VECTOR('',#1125,10.);
#301=VECTOR('',#1128,10.);
#302=VECTOR('',#1129,10.);
#303=VECTOR('',#1132,10.);
#304=VECTOR('',#1135,10.);
#305=VECTOR('',#1138,10.);
#306=VECTOR('',#1139,10.);
#307=VECTOR('',#1146,10.);
#308=VECTOR('',#1147,10.);
#309=VECTOR('',#1148,10.);
#310=VECTOR('',#1151,10.);
#311=VECTOR('',#1154,10.);
#312=VECTOR('',#1157,10.);
#313=CIRCLE('',#856,1.5);
#314=CIRCLE('',#857,1.5);
#315=CIRCLE('',#859,1.5);
#316=CIRCLE('',#860,1.5);
#317=CIRCLE('',#862,1.5);
#318=CIRCLE('',#863,1.5);
#319=CIRCLE('',#870,2.);
#320=CIRCLE('',#871,0.75);
#321=CIRCLE('',#872,0.75);
#322=CIRCLE('',#873,2.);
#323=CIRCLE('',#874,0.75);
#324=CIRCLE('',#875,0.75);
#325=CIRCLE('',#876,2.);
#326=CIRCLE('',#877,0.75);
#327=CIRCLE('',#878,0.75);
#328=CIRCLE('',#879,2.);
#329=CIRCLE('',#880,0.75);
#330=CIRCLE('',#881,0.75);
#331=CIRCLE('',#882,1.);
#332=CIRCLE('',#883,1.);
#333=CIRCLE('',#884,1.);
#334=CIRCLE('',#885,1.);
#335=CIRCLE('',#888,1.);
#336=CIRCLE('',#890,1.);
#337=CIRCLE('',#892,1.);
#338=CIRCLE('',#894,1.);
#339=CIRCLE('',#896,0.75);
#340=CIRCLE('',#899,0.75);
#341=CIRCLE('',#902,0.75);
#342=CIRCLE('',#905,0.75);
#343=CIRCLE('',#908,0.75);
#344=CIRCLE('',#911,0.75);
#345=CIRCLE('',#914,0.75);
#346=CIRCLE('',#917,0.75);
#347=CIRCLE('',#920,2.);
#348=CIRCLE('',#922,2.);
#349=CIRCLE('',#923,2.);
#350=CIRCLE('',#924,2.);
#351=VERTEX_POINT('',#1181);
#352=VERTEX_POINT('',#1183);
#353=VERTEX_POINT('',#1187);
#354=VERTEX_POINT('',#1189);
#355=VERTEX_POINT('',#1193);
#356=VERTEX_POINT('',#1195);
#357=VERTEX_POINT('',#1199);
#358=VERTEX_POINT('',#1200);
#359=VERTEX_POINT('',#1202);
#360=VERTEX_POINT('',#1204);
#361=VERTEX_POINT('',#1208);
#362=VERTEX_POINT('',#1209);
#363=VERTEX_POINT('',#1211);
#364=VERTEX_POINT('',#1213);
#365=VERTEX_POINT('',#1217);
#366=VERTEX_POINT('',#1218);
#367=VERTEX_POINT('',#1220);
#368=VERTEX_POINT('',#1222);
#369=VERTEX_POINT('',#1226);
#370=VERTEX_POINT('',#1227);
#371=VERTEX_POINT('',#1229);
#372=VERTEX_POINT('',#1231);
#373=VERTEX_POINT('',#1241);
#374=VERTEX_POINT('',#1242);
#375=VERTEX_POINT('',#1244);
#376=VERTEX_POINT('',#1246);
#377=VERTEX_POINT('',#1248);
#378=VERTEX_POINT('',#1250);
#379=VERTEX_POINT('',#1252);
#380=VERTEX_POINT('',#1254);
#381=VERTEX_POINT('',#1256);
#382=VERTEX_POINT('',#1258);
#383=VERTEX_POINT('',#1260);
#384=VERTEX_POINT('',#1262);
#385=VERTEX_POINT('',#1264);
#386=VERTEX_POINT('',#1266);
#387=VERTEX_POINT('',#1268);
#388=VERTEX_POINT('',#1270);
#389=VERTEX_POINT('',#1272);
#390=VERTEX_POINT('',#1274);
#391=VERTEX_POINT('',#1276);
#392=VERTEX_POINT('',#1278);
#393=VERTEX_POINT('',#1280);
#394=VERTEX_POINT('',#1282);
#395=VERTEX_POINT('',#1284);
#396=VERTEX_POINT('',#1286);
#397=VERTEX_POINT('',#1289);
#398=VERTEX_POINT('',#1291);
#399=VERTEX_POINT('',#1293);
#400=VERTEX_POINT('',#1295);
#401=VERTEX_POINT('',#1300);
#402=VERTEX_POINT('',#1304);
#403=VERTEX_POINT('',#1308);
#404=VERTEX_POINT('',#1312);
#405=VERTEX_POINT('',#1316);
#406=VERTEX_POINT('',#1317);
#407=VERTEX_POINT('',#1322);
#408=VERTEX_POINT('',#1326);
#409=VERTEX_POINT('',#1328);
#410=VERTEX_POINT('',#1332);
#411=VERTEX_POINT('',#1336);
#412=VERTEX_POINT('',#1337);
#413=VERTEX_POINT('',#1342);
#414=VERTEX_POINT('',#1346);
#415=VERTEX_POINT('',#1348);
#416=VERTEX_POINT('',#1352);
#417=VERTEX_POINT('',#1356);
#418=VERTEX_POINT('',#1357);
#419=VERTEX_POINT('',#1362);
#420=VERTEX_POINT('',#1366);
#421=VERTEX_POINT('',#1368);
#422=VERTEX_POINT('',#1372);
#423=VERTEX_POINT('',#1376);
#424=VERTEX_POINT('',#1377);
#425=VERTEX_POINT('',#1382);
#426=VERTEX_POINT('',#1386);
#427=VERTEX_POINT('',#1388);
#428=VERTEX_POINT('',#1392);
#429=EDGE_CURVE('',#351,#351,#313,.T.);
#430=EDGE_CURVE('',#351,#352,#155,.T.);
#431=EDGE_CURVE('',#352,#352,#314,.T.);
#432=EDGE_CURVE('',#353,#353,#315,.T.);
#433=EDGE_CURVE('',#353,#354,#156,.T.);
#434=EDGE_CURVE('',#354,#354,#316,.T.);
#435=EDGE_CURVE('',#355,#355,#317,.T.);
#436=EDGE_CURVE('',#355,#356,#157,.T.);
#437=EDGE_CURVE('',#356,#356,#318,.T.);
#438=EDGE_CURVE('',#357,#358,#158,.T.);
#439=EDGE_CURVE('',#359,#357,#159,.T.);
#440=EDGE_CURVE('',#360,#359,#160,.T.);
#441=EDGE_CURVE('',#358,#360,#161,.T.);
#442=EDGE_CURVE('',#361,#362,#162,.T.);
#443=EDGE_CURVE('',#363,#361,#163,.T.);
#444=EDGE_CURVE('',#364,#363,#164,.T.);
#445=EDGE_CURVE('',#362,#364,#165,.T.);
#446=EDGE_CURVE('',#365,#366,#166,.T.);
#447=EDGE_CURVE('',#367,#365,#167,.T.);
#448=EDGE_CURVE('',#368,#367,#168,.T.);
#449=EDGE_CURVE('',#366,#368,#169,.T.);
#450=EDGE_CURVE('',#369,#370,#170,.T.);
#451=EDGE_CURVE('',#371,#369,#171,.T.);
#452=EDGE_CURVE('',#372,#371,#172,.T.);
#453=EDGE_CURVE('',#370,#372,#173,.T.);
#454=EDGE_CURVE('',#363,#360,#174,.T.);
#455=EDGE_CURVE('',#358,#361,#175,.T.);
#456=EDGE_CURVE('',#362,#369,#176,.T.);
#457=EDGE_CURVE('',#370,#365,#177,.T.);
#458=EDGE_CURVE('',#366,#357,#178,.T.);
#459=EDGE_CURVE('',#373,#374,#319,.T.);
#460=EDGE_CURVE('',#375,#373,#179,.T.);
#461=EDGE_CURVE('',#376,#375,#320,.T.);
#462=EDGE_CURVE('',#377,#376,#180,.T.);
#463=EDGE_CURVE('',#378,#377,#321,.T.);
#464=EDGE_CURVE('',#379,#378,#181,.T.);
#465=EDGE_CURVE('',#380,#379,#322,.T.);
#466=EDGE_CURVE('',#381,#380,#182,.T.);
#467=EDGE_CURVE('',#382,#381,#323,.T.);
#468=EDGE_CURVE('',#383,#382,#183,.T.);
#469=EDGE_CURVE('',#384,#383,#324,.T.);
#470=EDGE_CURVE('',#384,#385,#184,.T.);
#471=EDGE_CURVE('',#386,#385,#325,.T.);
#472=EDGE_CURVE('',#387,#386,#185,.T.);
#473=EDGE_CURVE('',#388,#387,#326,.T.);
#474=EDGE_CURVE('',#389,#388,#186,.T.);
#475=EDGE_CURVE('',#390,#389,#327,.T.);
#476=EDGE_CURVE('',#391,#390,#187,.T.);
#477=EDGE_CURVE('',#392,#391,#328,.T.);
#478=EDGE_CURVE('',#393,#392,#188,.T.);
#479=EDGE_CURVE('',#394,#393,#329,.T.);
#480=EDGE_CURVE('',#395,#394,#189,.T.);
#481=EDGE_CURVE('',#396,#395,#330,.T.);
#482=EDGE_CURVE('',#396,#374,#190,.T.);
#483=EDGE_CURVE('',#397,#397,#331,.T.);
#484=EDGE_CURVE('',#398,#398,#332,.T.);
#485=EDGE_CURVE('',#399,#399,#333,.T.);
#486=EDGE_CURVE('',#400,#400,#334,.T.);
#487=EDGE_CURVE('',#371,#364,#191,.T.);
#488=EDGE_CURVE('',#401,#401,#335,.T.);
#489=EDGE_CURVE('',#401,#400,#192,.T.);
#490=EDGE_CURVE('',#402,#402,#336,.T.);
#491=EDGE_CURVE('',#402,#399,#193,.T.);
#492=EDGE_CURVE('',#403,#403,#337,.T.);
#493=EDGE_CURVE('',#403,#398,#194,.T.);
#494=EDGE_CURVE('',#404,#404,#338,.T.);
#495=EDGE_CURVE('',#404,#397,#195,.T.);
#496=EDGE_CURVE('',#405,#406,#339,.T.);
#497=EDGE_CURVE('',#406,#378,#196,.T.);
#498=EDGE_CURVE('',#377,#405,#197,.T.);
#499=EDGE_CURVE('',#406,#407,#198,.T.);
#500=EDGE_CURVE('',#379,#407,#199,.T.);
#501=EDGE_CURVE('',#381,#408,#200,.T.);
#502=EDGE_CURVE('',#408,#409,#340,.T.);
#503=EDGE_CURVE('',#409,#382,#201,.T.);
#504=EDGE_CURVE('',#410,#380,#202,.T.);
#505=EDGE_CURVE('',#408,#410,#203,.T.);
#506=EDGE_CURVE('',#411,#412,#341,.T.);
#507=EDGE_CURVE('',#412,#384,#204,.T.);
#508=EDGE_CURVE('',#383,#411,#205,.T.);
#509=EDGE_CURVE('',#412,#413,#206,.T.);
#510=EDGE_CURVE('',#385,#413,#207,.T.);
#511=EDGE_CURVE('',#387,#414,#208,.T.);
#512=EDGE_CURVE('',#414,#415,#342,.T.);
#513=EDGE_CURVE('',#415,#388,#209,.T.);
#514=EDGE_CURVE('',#416,#386,#210,.T.);
#515=EDGE_CURVE('',#416,#414,#211,.T.);
#516=EDGE_CURVE('',#417,#418,#343,.T.);
#517=EDGE_CURVE('',#418,#390,#212,.T.);
#518=EDGE_CURVE('',#389,#417,#213,.T.);
#519=EDGE_CURVE('',#418,#419,#214,.T.);
#520=EDGE_CURVE('',#391,#419,#215,.T.);
#521=EDGE_CURVE('',#393,#420,#216,.T.);
#522=EDGE_CURVE('',#420,#421,#344,.T.);
#523=EDGE_CURVE('',#421,#394,#217,.T.);
#524=EDGE_CURVE('',#422,#392,#218,.T.);
#525=EDGE_CURVE('',#420,#422,#219,.T.);
#526=EDGE_CURVE('',#423,#424,#345,.T.);
#527=EDGE_CURVE('',#424,#396,#220,.T.);
#528=EDGE_CURVE('',#395,#423,#221,.T.);
#529=EDGE_CURVE('',#424,#425,#222,.T.);
#530=EDGE_CURVE('',#374,#425,#223,.T.);
#531=EDGE_CURVE('',#375,#426,#224,.T.);
#532=EDGE_CURVE('',#426,#427,#346,.T.);
#533=EDGE_CURVE('',#427,#376,#225,.T.);
#534=EDGE_CURVE('',#428,#373,#226,.T.);
#535=EDGE_CURVE('',#428,#426,#227,.T.);
#536=EDGE_CURVE('',#425,#428,#347,.T.);
#537=EDGE_CURVE('',#359,#368,#228,.T.);
#538=EDGE_CURVE('',#367,#372,#229,.T.);
#539=EDGE_CURVE('',#423,#421,#230,.T.);
#540=EDGE_CURVE('',#419,#422,#348,.T.);
#541=EDGE_CURVE('',#417,#415,#231,.T.);
#542=EDGE_CURVE('',#413,#416,#349,.T.);
#543=EDGE_CURVE('',#411,#409,#232,.T.);
#544=EDGE_CURVE('',#407,#410,#350,.T.);
#545=EDGE_CURVE('',#405,#427,#233,.T.);
#546=ORIENTED_EDGE('',*,*,#429,.F.);
#547=ORIENTED_EDGE('',*,*,#430,.T.);
#548=ORIENTED_EDGE('',*,*,#431,.F.);
#549=ORIENTED_EDGE('',*,*,#430,.F.);
#550=ORIENTED_EDGE('',*,*,#432,.F.);
#551=ORIENTED_EDGE('',*,*,#433,.T.);
#552=ORIENTED_EDGE('',*,*,#434,.F.);
#553=ORIENTED_EDGE('',*,*,#433,.F.);
#554=ORIENTED_EDGE('',*,*,#435,.F.);
#555=ORIENTED_EDGE('',*,*,#436,.T.);
#556=ORIENTED_EDGE('',*,*,#437,.F.);
#557=ORIENTED_EDGE('',*,*,#436,.F.);
#558=ORIENTED_EDGE('',*,*,#438,.F.);
#559=ORIENTED_EDGE('',*,*,#439,.F.);
#560=ORIENTED_EDGE('',*,*,#440,.F.);
#561=ORIENTED_EDGE('',*,*,#441,.F.);
#562=ORIENTED_EDGE('',*,*,#442,.F.);
#563=ORIENTED_EDGE('',*,*,#443,.F.);
#564=ORIENTED_EDGE('',*,*,#444,.F.);
#565=ORIENTED_EDGE('',*,*,#445,.F.);
#566=ORIENTED_EDGE('',*,*,#446,.F.);
#567=ORIENTED_EDGE('',*,*,#447,.F.);
#568=ORIENTED_EDGE('',*,*,#448,.F.);
#569=ORIENTED_EDGE('',*,*,#449,.F.);
#570=ORIENTED_EDGE('',*,*,#450,.F.);
#571=ORIENTED_EDGE('',*,*,#451,.F.);
#572=ORIENTED_EDGE('',*,*,#452,.F.);
#573=ORIENTED_EDGE('',*,*,#453,.F.);
#574=ORIENTED_EDGE('',*,*,#441,.T.);
#575=ORIENTED_EDGE('',*,*,#454,.F.);
#576=ORIENTED_EDGE('',*,*,#443,.T.);
#577=ORIENTED_EDGE('',*,*,#455,.F.);
#578=ORIENTED_EDGE('',*,*,#438,.T.);
#579=ORIENTED_EDGE('',*,*,#455,.T.);
#580=ORIENTED_EDGE('',*,*,#442,.T.);
#581=ORIENTED_EDGE('',*,*,#456,.T.);
#582=ORIENTED_EDGE('',*,*,#450,.T.);
#583=ORIENTED_EDGE('',*,*,#457,.T.);
#584=ORIENTED_EDGE('',*,*,#446,.T.);
#585=ORIENTED_EDGE('',*,*,#458,.T.);
#586=ORIENTED_EDGE('',*,*,#431,.T.);
#587=ORIENTED_EDGE('',*,*,#434,.T.);
#588=ORIENTED_EDGE('',*,*,#437,.T.);
#589=ORIENTED_EDGE('',*,*,#459,.F.);
#590=ORIENTED_EDGE('',*,*,#460,.F.);
#591=ORIENTED_EDGE('',*,*,#461,.F.);
#592=ORIENTED_EDGE('',*,*,#462,.F.);
#593=ORIENTED_EDGE('',*,*,#463,.F.);
#594=ORIENTED_EDGE('',*,*,#464,.F.);
#595=ORIENTED_EDGE('',*,*,#465,.F.);
#596=ORIENTED_EDGE('',*,*,#466,.F.);
#597=ORIENTED_EDGE('',*,*,#467,.F.);
#598=ORIENTED_EDGE('',*,*,#468,.F.);
#599=ORIENTED_EDGE('',*,*,#469,.F.);
#600=ORIENTED_EDGE('',*,*,#470,.T.);
#601=ORIENTED_EDGE('',*,*,#471,.F.);
#602=ORIENTED_EDGE('',*,*,#472,.F.);
#603=ORIENTED_EDGE('',*,*,#473,.F.);
#604=ORIENTED_EDGE('',*,*,#474,.F.);
#605=ORIENTED_EDGE('',*,*,#475,.F.);
#606=ORIENTED_EDGE('',*,*,#476,.F.);
#607=ORIENTED_EDGE('',*,*,#477,.F.);
#608=ORIENTED_EDGE('',*,*,#478,.F.);
#609=ORIENTED_EDGE('',*,*,#479,.F.);
#610=ORIENTED_EDGE('',*,*,#480,.F.);
#611=ORIENTED_EDGE('',*,*,#481,.F.);
#612=ORIENTED_EDGE('',*,*,#482,.T.);
#613=ORIENTED_EDGE('',*,*,#483,.T.);
#614=ORIENTED_EDGE('',*,*,#484,.T.);
#615=ORIENTED_EDGE('',*,*,#485,.T.);
#616=ORIENTED_EDGE('',*,*,#486,.T.);
#617=ORIENTED_EDGE('',*,*,#445,.T.);
#618=ORIENTED_EDGE('',*,*,#487,.F.);
#619=ORIENTED_EDGE('',*,*,#451,.T.);
#620=ORIENTED_EDGE('',*,*,#456,.F.);
#621=ORIENTED_EDGE('',*,*,#488,.F.);
#622=ORIENTED_EDGE('',*,*,#489,.T.);
#623=ORIENTED_EDGE('',*,*,#486,.F.);
#624=ORIENTED_EDGE('',*,*,#489,.F.);
#625=ORIENTED_EDGE('',*,*,#490,.F.);
#626=ORIENTED_EDGE('',*,*,#491,.T.);
#627=ORIENTED_EDGE('',*,*,#485,.F.);
#628=ORIENTED_EDGE('',*,*,#491,.F.);
#629=ORIENTED_EDGE('',*,*,#492,.F.);
#630=ORIENTED_EDGE('',*,*,#493,.T.);
#631=ORIENTED_EDGE('',*,*,#484,.F.);
#632=ORIENTED_EDGE('',*,*,#493,.F.);
#633=ORIENTED_EDGE('',*,*,#494,.F.);
#634=ORIENTED_EDGE('',*,*,#495,.T.);
#635=ORIENTED_EDGE('',*,*,#483,.F.);
#636=ORIENTED_EDGE('',*,*,#495,.F.);
#637=ORIENTED_EDGE('',*,*,#496,.T.);
#638=ORIENTED_EDGE('',*,*,#497,.T.);
#639=ORIENTED_EDGE('',*,*,#463,.T.);
#640=ORIENTED_EDGE('',*,*,#498,.T.);
#641=ORIENTED_EDGE('',*,*,#497,.F.);
#642=ORIENTED_EDGE('',*,*,#499,.T.);
#643=ORIENTED_EDGE('',*,*,#500,.F.);
#644=ORIENTED_EDGE('',*,*,#464,.T.);
#645=ORIENTED_EDGE('',*,*,#467,.T.);
#646=ORIENTED_EDGE('',*,*,#501,.T.);
#647=ORIENTED_EDGE('',*,*,#502,.T.);
#648=ORIENTED_EDGE('',*,*,#503,.T.);
#649=ORIENTED_EDGE('',*,*,#501,.F.);
#650=ORIENTED_EDGE('',*,*,#466,.T.);
#651=ORIENTED_EDGE('',*,*,#504,.F.);
#652=ORIENTED_EDGE('',*,*,#505,.F.);
#653=ORIENTED_EDGE('',*,*,#506,.T.);
#654=ORIENTED_EDGE('',*,*,#507,.T.);
#655=ORIENTED_EDGE('',*,*,#469,.T.);
#656=ORIENTED_EDGE('',*,*,#508,.T.);
#657=ORIENTED_EDGE('',*,*,#507,.F.);
#658=ORIENTED_EDGE('',*,*,#509,.T.);
#659=ORIENTED_EDGE('',*,*,#510,.F.);
#660=ORIENTED_EDGE('',*,*,#470,.F.);
#661=ORIENTED_EDGE('',*,*,#473,.T.);
#662=ORIENTED_EDGE('',*,*,#511,.T.);
#663=ORIENTED_EDGE('',*,*,#512,.T.);
#664=ORIENTED_EDGE('',*,*,#513,.T.);
#665=ORIENTED_EDGE('',*,*,#511,.F.);
#666=ORIENTED_EDGE('',*,*,#472,.T.);
#667=ORIENTED_EDGE('',*,*,#514,.F.);
#668=ORIENTED_EDGE('',*,*,#515,.T.);
#669=ORIENTED_EDGE('',*,*,#516,.T.);
#670=ORIENTED_EDGE('',*,*,#517,.T.);
#671=ORIENTED_EDGE('',*,*,#475,.T.);
#672=ORIENTED_EDGE('',*,*,#518,.T.);
#673=ORIENTED_EDGE('',*,*,#517,.F.);
#674=ORIENTED_EDGE('',*,*,#519,.T.);
#675=ORIENTED_EDGE('',*,*,#520,.F.);
#676=ORIENTED_EDGE('',*,*,#476,.T.);
#677=ORIENTED_EDGE('',*,*,#479,.T.);
#678=ORIENTED_EDGE('',*,*,#521,.T.);
#679=ORIENTED_EDGE('',*,*,#522,.T.);
#680=ORIENTED_EDGE('',*,*,#523,.T.);
#681=ORIENTED_EDGE('',*,*,#521,.F.);
#682=ORIENTED_EDGE('',*,*,#478,.T.);
#683=ORIENTED_EDGE('',*,*,#524,.F.);
#684=ORIENTED_EDGE('',*,*,#525,.F.);
#685=ORIENTED_EDGE('',*,*,#526,.T.);
#686=ORIENTED_EDGE('',*,*,#527,.T.);
#687=ORIENTED_EDGE('',*,*,#481,.T.);
#688=ORIENTED_EDGE('',*,*,#528,.T.);
#689=ORIENTED_EDGE('',*,*,#527,.F.);
#690=ORIENTED_EDGE('',*,*,#529,.T.);
#691=ORIENTED_EDGE('',*,*,#530,.F.);
#692=ORIENTED_EDGE('',*,*,#482,.F.);
#693=ORIENTED_EDGE('',*,*,#461,.T.);
#694=ORIENTED_EDGE('',*,*,#531,.T.);
#695=ORIENTED_EDGE('',*,*,#532,.T.);
#696=ORIENTED_EDGE('',*,*,#533,.T.);
#697=ORIENTED_EDGE('',*,*,#531,.F.);
#698=ORIENTED_EDGE('',*,*,#460,.T.);
#699=ORIENTED_EDGE('',*,*,#534,.F.);
#700=ORIENTED_EDGE('',*,*,#535,.T.);
#701=ORIENTED_EDGE('',*,*,#536,.T.);
#702=ORIENTED_EDGE('',*,*,#534,.T.);
#703=ORIENTED_EDGE('',*,*,#459,.T.);
#704=ORIENTED_EDGE('',*,*,#530,.T.);
#705=ORIENTED_EDGE('',*,*,#440,.T.);
#706=ORIENTED_EDGE('',*,*,#537,.T.);
#707=ORIENTED_EDGE('',*,*,#448,.T.);
#708=ORIENTED_EDGE('',*,*,#538,.T.);
#709=ORIENTED_EDGE('',*,*,#452,.T.);
#710=ORIENTED_EDGE('',*,*,#487,.T.);
#711=ORIENTED_EDGE('',*,*,#444,.T.);
#712=ORIENTED_EDGE('',*,*,#454,.T.);
#713=ORIENTED_EDGE('',*,*,#429,.T.);
#714=ORIENTED_EDGE('',*,*,#432,.T.);
#715=ORIENTED_EDGE('',*,*,#435,.T.);
#716=ORIENTED_EDGE('',*,*,#488,.T.);
#717=ORIENTED_EDGE('',*,*,#490,.T.);
#718=ORIENTED_EDGE('',*,*,#492,.T.);
#719=ORIENTED_EDGE('',*,*,#494,.T.);
#720=ORIENTED_EDGE('',*,*,#536,.F.);
#721=ORIENTED_EDGE('',*,*,#529,.F.);
#722=ORIENTED_EDGE('',*,*,#526,.F.);
#723=ORIENTED_EDGE('',*,*,#539,.T.);
#724=ORIENTED_EDGE('',*,*,#522,.F.);
#725=ORIENTED_EDGE('',*,*,#525,.T.);
#726=ORIENTED_EDGE('',*,*,#540,.F.);
#727=ORIENTED_EDGE('',*,*,#519,.F.);
#728=ORIENTED_EDGE('',*,*,#516,.F.);
#729=ORIENTED_EDGE('',*,*,#541,.T.);
#730=ORIENTED_EDGE('',*,*,#512,.F.);
#731=ORIENTED_EDGE('',*,*,#515,.F.);
#732=ORIENTED_EDGE('',*,*,#542,.F.);
#733=ORIENTED_EDGE('',*,*,#509,.F.);
#734=ORIENTED_EDGE('',*,*,#506,.F.);
#735=ORIENTED_EDGE('',*,*,#543,.T.);
#736=ORIENTED_EDGE('',*,*,#502,.F.);
#737=ORIENTED_EDGE('',*,*,#505,.T.);
#738=ORIENTED_EDGE('',*,*,#544,.F.);
#739=ORIENTED_EDGE('',*,*,#499,.F.);
#740=ORIENTED_EDGE('',*,*,#496,.F.);
#741=ORIENTED_EDGE('',*,*,#545,.T.);
#742=ORIENTED_EDGE('',*,*,#532,.F.);
#743=ORIENTED_EDGE('',*,*,#535,.F.);
#744=ORIENTED_EDGE('',*,*,#477,.T.);
#745=ORIENTED_EDGE('',*,*,#520,.T.);
#746=ORIENTED_EDGE('',*,*,#540,.T.);
#747=ORIENTED_EDGE('',*,*,#524,.T.);
#748=ORIENTED_EDGE('',*,*,#542,.T.);
#749=ORIENTED_EDGE('',*,*,#514,.T.);
#750=ORIENTED_EDGE('',*,*,#471,.T.);
#751=ORIENTED_EDGE('',*,*,#510,.T.);
#752=ORIENTED_EDGE('',*,*,#465,.T.);
#753=ORIENTED_EDGE('',*,*,#500,.T.);
#754=ORIENTED_EDGE('',*,*,#544,.T.);
#755=ORIENTED_EDGE('',*,*,#504,.T.);
#756=ORIENTED_EDGE('',*,*,#503,.F.);
#757=ORIENTED_EDGE('',*,*,#543,.F.);
#758=ORIENTED_EDGE('',*,*,#508,.F.);
#759=ORIENTED_EDGE('',*,*,#468,.T.);
#760=ORIENTED_EDGE('',*,*,#513,.F.);
#761=ORIENTED_EDGE('',*,*,#541,.F.);
#762=ORIENTED_EDGE('',*,*,#518,.F.);
#763=ORIENTED_EDGE('',*,*,#474,.T.);
#764=ORIENTED_EDGE('',*,*,#523,.F.);
#765=ORIENTED_EDGE('',*,*,#539,.F.);
#766=ORIENTED_EDGE('',*,*,#528,.F.);
#767=ORIENTED_EDGE('',*,*,#480,.T.);
#768=ORIENTED_EDGE('',*,*,#498,.F.);
#769=ORIENTED_EDGE('',*,*,#462,.T.);
#770=ORIENTED_EDGE('',*,*,#533,.F.);
#771=ORIENTED_EDGE('',*,*,#545,.F.);
#772=ORIENTED_EDGE('',*,*,#447,.T.);
#773=ORIENTED_EDGE('',*,*,#457,.F.);
#774=ORIENTED_EDGE('',*,*,#453,.T.);
#775=ORIENTED_EDGE('',*,*,#538,.F.);
#776=ORIENTED_EDGE('',*,*,#439,.T.);
#777=ORIENTED_EDGE('',*,*,#458,.F.);
#778=ORIENTED_EDGE('',*,*,#449,.T.);
#779=ORIENTED_EDGE('',*,*,#537,.F.);
#780=CYLINDRICAL_SURFACE('',#855,1.5);
#781=CYLINDRICAL_SURFACE('',#858,1.5);
#782=CYLINDRICAL_SURFACE('',#861,1.5);
#783=CYLINDRICAL_SURFACE('',#887,1.);
#784=CYLINDRICAL_SURFACE('',#889,1.);
#785=CYLINDRICAL_SURFACE('',#891,1.);
#786=CYLINDRICAL_SURFACE('',#893,1.);
#787=CYLINDRICAL_SURFACE('',#895,0.75);
#788=CYLINDRICAL_SURFACE('',#898,0.75);
#789=CYLINDRICAL_SURFACE('',#901,0.75);
#790=CYLINDRICAL_SURFACE('',#904,0.75);
#791=CYLINDRICAL_SURFACE('',#907,0.75);
#792=CYLINDRICAL_SURFACE('',#910,0.75);
#793=CYLINDRICAL_SURFACE('',#913,0.75);
#794=CYLINDRICAL_SURFACE('',#916,0.75);
#795=CYLINDRICAL_SURFACE('',#919,2.);
#796=CYLINDRICAL_SURFACE('',#925,2.);
#797=CYLINDRICAL_SURFACE('',#926,2.);
#798=CYLINDRICAL_SURFACE('',#927,2.);
#799=ADVANCED_FACE('',(#57),#780,.F.);
#800=ADVANCED_FACE('',(#58),#781,.F.);
#801=ADVANCED_FACE('',(#59),#782,.F.);
#802=ADVANCED_FACE('',(#60),#35,.F.);
#803=ADVANCED_FACE('',(#61),#36,.F.);
#804=ADVANCED_FACE('',(#62),#37,.F.);
#805=ADVANCED_FACE('',(#63),#38,.F.);
#806=ADVANCED_FACE('',(#64),#39,.T.);
#807=ADVANCED_FACE('',(#65,#19,#20,#21,#22,#23,#24,#25,#26),#40,.F.);
#808=ADVANCED_FACE('',(#66),#41,.T.);
#809=ADVANCED_FACE('',(#67),#783,.F.);
#810=ADVANCED_FACE('',(#68),#784,.F.);
#811=ADVANCED_FACE('',(#69),#785,.F.);
#812=ADVANCED_FACE('',(#70),#786,.F.);
#813=ADVANCED_FACE('',(#71),#787,.F.);
#814=ADVANCED_FACE('',(#72),#42,.T.);
#815=ADVANCED_FACE('',(#73),#788,.F.);
#816=ADVANCED_FACE('',(#74),#43,.T.);
#817=ADVANCED_FACE('',(#75),#789,.F.);
#818=ADVANCED_FACE('',(#76),#44,.T.);
#819=ADVANCED_FACE('',(#77),#790,.F.);
#820=ADVANCED_FACE('',(#78),#45,.T.);
#821=ADVANCED_FACE('',(#79),#791,.F.);
#822=ADVANCED_FACE('',(#80),#46,.T.);
#823=ADVANCED_FACE('',(#81),#792,.F.);
#824=ADVANCED_FACE('',(#82),#47,.T.);
#825=ADVANCED_FACE('',(#83),#793,.F.);
#826=ADVANCED_FACE('',(#84),#48,.T.);
#827=ADVANCED_FACE('',(#85),#794,.F.);
#828=ADVANCED_FACE('',(#86),#49,.T.);
#829=ADVANCED_FACE('',(#87),#795,.T.);
#830=ADVANCED_FACE('',(#88,#27,#28,#29,#30,#31,#32,#33,#34),#50,.T.);
#831=ADVANCED_FACE('',(#89),#796,.T.);
#832=ADVANCED_FACE('',(#90),#797,.T.);
#833=ADVANCED_FACE('',(#91),#798,.T.);
#834=ADVANCED_FACE('',(#92),#51,.T.);
#835=ADVANCED_FACE('',(#93),#52,.T.);
#836=ADVANCED_FACE('',(#94),#53,.T.);
#837=ADVANCED_FACE('',(#95),#54,.T.);
#838=ADVANCED_FACE('',(#96),#55,.T.);
#839=ADVANCED_FACE('',(#97),#56,.T.);
#840=CLOSED_SHELL('',(#799,#800,#801,#802,#803,#804,#805,#806,#807,#808,
#809,#810,#811,#812,#813,#814,#815,#816,#817,#818,#819,#820,#821,#822,#823,
#824,#825,#826,#827,#828,#829,#830,#831,#832,#833,#834,#835,#836,#837,#838,
#839));
#841=DERIVED_UNIT_ELEMENT(#843,1.);
#842=DERIVED_UNIT_ELEMENT(#1424,-3.);
#843=(
MASS_UNIT()
NAMED_UNIT(*)
SI_UNIT(.KILO.,.GRAM.)
);
#844=DERIVED_UNIT((#841,#842));
#845=MEASURE_REPRESENTATION_ITEM('density measure',
POSITIVE_RATIO_MEASURE(7850.),#844);
#846=PROPERTY_DEFINITION_REPRESENTATION(#851,#848);
#847=PROPERTY_DEFINITION_REPRESENTATION(#852,#849);
#848=REPRESENTATION('material name',(#850),#1421);
#849=REPRESENTATION('density',(#845),#1421);
#850=DESCRIPTIVE_REPRESENTATION_ITEM('Steel','Steel');
#851=PROPERTY_DEFINITION('material property','material name',#1436);
#852=PROPERTY_DEFINITION('material property','density of part',#1436);
#853=AXIS2_PLACEMENT_3D('',#1178,#935,#936);
#854=AXIS2_PLACEMENT_3D('',#1179,#937,#938);
#855=AXIS2_PLACEMENT_3D('',#1180,#939,#940);
#856=AXIS2_PLACEMENT_3D('',#1182,#941,#942);
#857=AXIS2_PLACEMENT_3D('',#1185,#944,#945);
#858=AXIS2_PLACEMENT_3D('',#1186,#946,#947);
#859=AXIS2_PLACEMENT_3D('',#1188,#948,#949);
#860=AXIS2_PLACEMENT_3D('',#1191,#951,#952);
#861=AXIS2_PLACEMENT_3D('',#1192,#953,#954);
#862=AXIS2_PLACEMENT_3D('',#1194,#955,#956);
#863=AXIS2_PLACEMENT_3D('',#1197,#958,#959);
#864=AXIS2_PLACEMENT_3D('',#1198,#960,#961);
#865=AXIS2_PLACEMENT_3D('',#1207,#966,#967);
#866=AXIS2_PLACEMENT_3D('',#1216,#972,#973);
#867=AXIS2_PLACEMENT_3D('',#1225,#978,#979);
#868=AXIS2_PLACEMENT_3D('',#1234,#984,#985);
#869=AXIS2_PLACEMENT_3D('',#1237,#988,#989);
#870=AXIS2_PLACEMENT_3D('',#1243,#993,#994);
#871=AXIS2_PLACEMENT_3D('',#1247,#996,#997);
#872=AXIS2_PLACEMENT_3D('',#1251,#999,#1000);
#873=AXIS2_PLACEMENT_3D('',#1255,#1002,#1003);
#874=AXIS2_PLACEMENT_3D('',#1259,#1005,#1006);
#875=AXIS2_PLACEMENT_3D('',#1263,#1008,#1009);
#876=AXIS2_PLACEMENT_3D('',#1267,#1011,#1012);
#877=AXIS2_PLACEMENT_3D('',#1271,#1014,#1015);
#878=AXIS2_PLACEMENT_3D('',#1275,#1017,#1018);
#879=AXIS2_PLACEMENT_3D('',#1279,#1020,#1021);
#880=AXIS2_PLACEMENT_3D('',#1283,#1023,#1024);
#881=AXIS2_PLACEMENT_3D('',#1287,#1026,#1027);
#882=AXIS2_PLACEMENT_3D('',#1290,#1029,#1030);
#883=AXIS2_PLACEMENT_3D('',#1292,#1031,#1032);
#884=AXIS2_PLACEMENT_3D('',#1294,#1033,#1034);
#885=AXIS2_PLACEMENT_3D('',#1296,#1035,#1036);
#886=AXIS2_PLACEMENT_3D('',#1297,#1037,#1038);
#887=AXIS2_PLACEMENT_3D('',#1299,#1040,#1041);
#888=AXIS2_PLACEMENT_3D('',#1301,#1042,#1043);
#889=AXIS2_PLACEMENT_3D('',#1303,#1045,#1046);
#890=AXIS2_PLACEMENT_3D('',#1305,#1047,#1048);
#891=AXIS2_PLACEMENT_3D('',#1307,#1050,#1051);
#892=AXIS2_PLACEMENT_3D('',#1309,#1052,#1053);
#893=AXIS2_PLACEMENT_3D('',#1311,#1055,#1056);
#894=AXIS2_PLACEMENT_3D('',#1313,#1057,#1058);
#895=AXIS2_PLACEMENT_3D('',#1315,#1060,#1061);
#896=AXIS2_PLACEMENT_3D('',#1318,#1062,#1063);
#897=AXIS2_PLACEMENT_3D('',#1321,#1066,#1067);
#898=AXIS2_PLACEMENT_3D('',#1325,#1070,#1071);
#899=AXIS2_PLACEMENT_3D('',#1329,#1073,#1074);
#900=AXIS2_PLACEMENT_3D('',#1331,#1076,#1077);
#901=AXIS2_PLACEMENT_3D('',#1335,#1080,#1081);
#902=AXIS2_PLACEMENT_3D('',#1338,#1082,#1083);
#903=AXIS2_PLACEMENT_3D('',#1341,#1086,#1087);
#904=AXIS2_PLACEMENT_3D('',#1345,#1090,#1091);
#905=AXIS2_PLACEMENT_3D('',#1349,#1093,#1094);
#906=AXIS2_PLACEMENT_3D('',#1351,#1096,#1097);
#907=AXIS2_PLACEMENT_3D('',#1355,#1100,#1101);
#908=AXIS2_PLACEMENT_3D('',#1358,#1102,#1103);
#909=AXIS2_PLACEMENT_3D('',#1361,#1106,#1107);
#910=AXIS2_PLACEMENT_3D('',#1365,#1110,#1111);
#911=AXIS2_PLACEMENT_3D('',#1369,#1113,#1114);
#912=AXIS2_PLACEMENT_3D('',#1371,#1116,#1117);
#913=AXIS2_PLACEMENT_3D('',#1375,#1120,#1121);
#914=AXIS2_PLACEMENT_3D('',#1378,#1122,#1123);
#915=AXIS2_PLACEMENT_3D('',#1381,#1126,#1127);
#916=AXIS2_PLACEMENT_3D('',#1385,#1130,#1131);
#917=AXIS2_PLACEMENT_3D('',#1389,#1133,#1134);
#918=AXIS2_PLACEMENT_3D('',#1391,#1136,#1137);
#919=AXIS2_PLACEMENT_3D('',#1395,#1140,#1141);
#920=AXIS2_PLACEMENT_3D('',#1396,#1142,#1143);
#921=AXIS2_PLACEMENT_3D('',#1397,#1144,#1145);
#922=AXIS2_PLACEMENT_3D('',#1401,#1149,#1150);
#923=AXIS2_PLACEMENT_3D('',#1403,#1152,#1153);
#924=AXIS2_PLACEMENT_3D('',#1405,#1155,#1156);
#925=AXIS2_PLACEMENT_3D('',#1407,#1158,#1159);
#926=AXIS2_PLACEMENT_3D('',#1408,#1160,#1161);
#927=AXIS2_PLACEMENT_3D('',#1409,#1162,#1163);
#928=AXIS2_PLACEMENT_3D('',#1410,#1164,#1165);
#929=AXIS2_PLACEMENT_3D('',#1411,#1166,#1167);
#930=AXIS2_PLACEMENT_3D('',#1412,#1168,#1169);
#931=AXIS2_PLACEMENT_3D('',#1413,#1170,#1171);
#932=AXIS2_PLACEMENT_3D('',#1414,#1172,#1173);
#933=AXIS2_PLACEMENT_3D('',#1415,#1174,#1175);
#934=AXIS2_PLACEMENT_3D('',#1416,#1176,#1177);
#935=DIRECTION('axis',(0.,0.,1.));
#936=DIRECTION('refdir',(1.,0.,0.));
#937=DIRECTION('axis',(0.,0.,1.));
#938=DIRECTION('refdir',(1.,0.,0.));
#939=DIRECTION('center_axis',(1.4791141972894E-31,1.15623751542293E-62,
-1.));
#940=DIRECTION('ref_axis',(-1.,-4.80248160496539E-32,-1.4791141972894E-31));
#941=DIRECTION('center_axis',(1.4791141972894E-31,1.15623751542293E-62,
-1.));
#942=DIRECTION('ref_axis',(-1.,-4.80248160496539E-32,-1.4791141972894E-31));
#943=DIRECTION('',(1.4791141972894E-31,1.15623751542293E-62,-1.));
#944=DIRECTION('center_axis',(-1.4791141972894E-31,-1.15623751542293E-62,
1.));
#945=DIRECTION('ref_axis',(-1.,-4.80248160496539E-32,-1.4791141972894E-31));
#946=DIRECTION('center_axis',(1.4791141972894E-31,1.15623751542293E-62,
-1.));
#947=DIRECTION('ref_axis',(-1.,-4.80248160496539E-32,-1.4791141972894E-31));
#948=DIRECTION('center_axis',(1.4791141972894E-31,1.15623751542293E-62,
-1.));
#949=DIRECTION('ref_axis',(-1.,-4.80248160496539E-32,-1.4791141972894E-31));
#950=DIRECTION('',(1.4791141972894E-31,1.15623751542293E-62,-1.));
#951=DIRECTION('center_axis',(-1.4791141972894E-31,-1.15623751542293E-62,
1.));
#952=DIRECTION('ref_axis',(-1.,-4.80248160496539E-32,-1.4791141972894E-31));
#953=DIRECTION('center_axis',(1.4791141972894E-31,1.15623751542293E-62,
-1.));
#954=DIRECTION('ref_axis',(-1.,-4.80248160496539E-32,-1.4791141972894E-31));
#955=DIRECTION('center_axis',(1.4791141972894E-31,1.15623751542293E-62,
-1.));
#956=DIRECTION('ref_axis',(-1.,-4.80248160496539E-32,-1.4791141972894E-31));
#957=DIRECTION('',(1.4791141972894E-31,1.15623751542293E-62,-1.));
#958=DIRECTION('center_axis',(-1.4791141972894E-31,-1.15623751542293E-62,
1.));
#959=DIRECTION('ref_axis',(-1.,-4.80248160496539E-32,-1.4791141972894E-31));
#960=DIRECTION('center_axis',(-0.707106781186547,-0.707106781186548,-1.04589167905263E-31));
#961=DIRECTION('ref_axis',(-0.707106781186548,0.707106781186547,-1.04589167905263E-31));
#962=DIRECTION('',(0.707106781186548,-0.707106781186547,1.04589167905263E-31));
#963=DIRECTION('',(1.4791141972894E-31,1.15623751542293E-62,-1.));
#964=DIRECTION('',(-0.707106781186548,0.707106781186547,-1.04589167905263E-31));
#965=DIRECTION('',(-1.4791141972894E-31,-1.15623751542293E-62,1.));
#966=DIRECTION('center_axis',(-0.707106781186548,0.707106781186547,-1.04589167905263E-31));
#967=DIRECTION('ref_axis',(0.707106781186547,0.707106781186548,1.04589167905263E-31));
#968=DIRECTION('',(-0.707106781186547,-0.707106781186548,-1.04589167905263E-31));
#969=DIRECTION('',(1.4791141972894E-31,1.15623751542293E-62,-1.));
#970=DIRECTION('',(0.707106781186547,0.707106781186548,1.04589167905263E-31));
#971=DIRECTION('',(-1.4791141972894E-31,-1.15623751542293E-62,1.));
#972=DIRECTION('center_axis',(0.707106781186548,-0.707106781186547,1.04589167905263E-31));
#973=DIRECTION('ref_axis',(-0.707106781186547,-0.707106781186548,-1.04589167905263E-31));
#974=DIRECTION('',(0.707106781186547,0.707106781186548,1.04589167905263E-31));
#975=DIRECTION('',(1.4791141972894E-31,1.15623751542293E-62,-1.));
#976=DIRECTION('',(-0.707106781186547,-0.707106781186548,-1.04589167905263E-31));
#977=DIRECTION('',(-1.4791141972894E-31,-1.15623751542293E-62,1.));
#978=DIRECTION('center_axis',(0.707106781186547,0.707106781186548,1.04589167905263E-31));
#979=DIRECTION('ref_axis',(0.707106781186548,-0.707106781186547,1.04589167905263E-31));
#980=DIRECTION('',(-0.707106781186548,0.707106781186547,-1.04589167905263E-31));
#981=DIRECTION('',(1.4791141972894E-31,1.15623751542293E-62,-1.));
#982=DIRECTION('',(0.707106781186548,-0.707106781186547,1.04589167905263E-31));
#983=DIRECTION('',(-1.4791141972894E-31,-1.15623751542293E-62,1.));
#984=DIRECTION('center_axis',(1.,4.80248160496539E-32,1.4791141972894E-31));
#985=DIRECTION('ref_axis',(-4.80248160496539E-32,1.,4.45895643010386E-63));
#986=DIRECTION('',(-4.80248160496539E-32,1.,4.45895643010386E-63));
#987=DIRECTION('',(4.80248160496539E-32,-1.,-4.45895643010386E-63));
#988=DIRECTION('center_axis',(-1.4791141972894E-31,-1.15623751542293E-62,
1.));
#989=DIRECTION('ref_axis',(-1.,-4.80248160496539E-32,-1.4791141972894E-31));
#990=DIRECTION('',(-1.,-4.80248160496539E-32,-1.4791141972894E-31));
#991=DIRECTION('',(-4.80248160496539E-32,1.,4.45895643010386E-63));
#992=DIRECTION('',(1.,4.80248160496539E-32,1.4791141972894E-31));
#993=DIRECTION('center_axis',(-1.4791141972894E-31,-1.15623751542293E-62,
1.));
#994=DIRECTION('ref_axis',(-0.707106781186548,-0.707106781186548,-1.04589167905263E-31));
#995=DIRECTION('',(4.80248160496539E-32,-1.,-4.45895643010386E-63));
#996=DIRECTION('center_axis',(1.4791141972894E-31,1.15623751542293E-62,
-1.));
#997=DIRECTION('ref_axis',(0.707106781186548,0.707106781186548,1.04589167905263E-31));
#998=DIRECTION('',(1.,4.80248160496539E-32,1.4791141972894E-31));
#999=DIRECTION('center_axis',(1.4791141972894E-31,1.15623751542293E-62,
-1.));
#1000=DIRECTION('ref_axis',(-0.707106781186548,0.707106781186548,-1.04589167905263E-31));
#1001=DIRECTION('',(-4.80248160496539E-32,1.,4.45895643010386E-63));
#1002=DIRECTION('center_axis',(-1.4791141972894E-31,-1.15623751542293E-62,
1.));
#1003=DIRECTION('ref_axis',(0.707106781186548,-0.707106781186548,1.04589167905263E-31));
#1004=DIRECTION('',(1.,4.80248160496539E-32,1.4791141972894E-31));
#1005=DIRECTION('center_axis',(1.4791141972894E-31,1.15623751542293E-62,
-1.));
#1006=DIRECTION('ref_axis',(-0.70710678118655,0.707106781186545,-1.04589167905263E-31));
#1007=DIRECTION('',(-4.80248160496539E-32,1.,4.45895643010386E-63));
#1008=DIRECTION('center_axis',(1.4791141972894E-31,1.15623751542293E-62,
-1.));
#1009=DIRECTION('ref_axis',(-0.707106781186548,-0.707106781186548,-1.04589167905263E-31));
#1010=DIRECTION('',(1.,4.80248160496539E-32,1.4791141972894E-31));
#1011=DIRECTION('center_axis',(-1.4791141972894E-31,-1.15623751542293E-62,
1.));
#1012=DIRECTION('ref_axis',(0.707106781186547,0.707106781186548,1.04589167905263E-31));
#1013=DIRECTION('',(-4.80248160496539E-32,1.,4.45895643010386E-63));
#1014=DIRECTION('center_axis',(1.4791141972894E-31,1.15623751542293E-62,
-1.));
#1015=DIRECTION('ref_axis',(-0.707106781186545,-0.70710678118655,-1.04589167905263E-31));
#1016=DIRECTION('',(-1.,-4.80248160496539E-32,-1.4791141972894E-31));
#1017=DIRECTION('center_axis',(1.4791141972894E-31,1.15623751542293E-62,
-1.));
#1018=DIRECTION('ref_axis',(0.707106781186548,-0.707106781186548,1.04589167905263E-31));
#1019=DIRECTION('',(4.80248160496539E-32,-1.,-4.45895643010386E-63));
#1020=DIRECTION('center_axis',(-1.4791141972894E-31,-1.15623751542293E-62,
1.));
#1021=DIRECTION('ref_axis',(-0.707106781186548,0.707106781186548,-1.04589167905263E-31));
#1022=DIRECTION('',(-1.,-4.80248160496539E-32,-1.4791141972894E-31));
#1023=DIRECTION('center_axis',(1.4791141972894E-31,1.15623751542293E-62,
-1.));
#1024=DIRECTION('ref_axis',(0.70710678118655,-0.707106781186545,1.04589167905263E-31));
#1025=DIRECTION('',(4.80248160496539E-32,-1.,-4.45895643010386E-63));
#1026=DIRECTION('center_axis',(1.4791141972894E-31,1.15623751542293E-62,
-1.));
#1027=DIRECTION('ref_axis',(0.70710678118655,0.707106781186545,1.04589167905263E-31));
#1028=DIRECTION('',(-1.,-4.80248160496539E-32,-1.4791141972894E-31));
#1029=DIRECTION('center_axis',(-1.4791141972894E-31,-1.15623751542293E-62,
1.));
#1030=DIRECTION('ref_axis',(-1.,-4.80248160496539E-32,-1.4791141972894E-31));
#1031=DIRECTION('center_axis',(-1.4791141972894E-31,-1.15623751542293E-62,
1.));
#1032=DIRECTION('ref_axis',(-1.,-4.80248160496539E-32,-1.4791141972894E-31));
#1033=DIRECTION('center_axis',(-1.4791141972894E-31,-1.15623751542293E-62,
1.));
#1034=DIRECTION('ref_axis',(-1.,-4.80248160496539E-32,-1.4791141972894E-31));
#1035=DIRECTION('center_axis',(-1.4791141972894E-31,-1.15623751542293E-62,
1.));
#1036=DIRECTION('ref_axis',(-1.,-4.80248160496539E-32,-1.4791141972894E-31));
#1037=DIRECTION('center_axis',(4.80248160496539E-32,-1.,-4.45895643010386E-63));
#1038=DIRECTION('ref_axis',(1.,4.80248160496539E-32,1.4791141972894E-31));
#1039=DIRECTION('',(1.,4.80248160496539E-32,1.4791141972894E-31));
#1040=DIRECTION('center_axis',(1.4791141972894E-31,1.15623751542293E-62,
-1.));
#1041=DIRECTION('ref_axis',(-1.,-4.80248160496539E-32,-1.4791141972894E-31));
#1042=DIRECTION('center_axis',(1.4791141972894E-31,1.15623751542293E-62,
-1.));
#1043=DIRECTION('ref_axis',(-1.,-4.80248160496539E-32,-1.4791141972894E-31));
#1044=DIRECTION('',(1.4791141972894E-31,1.15623751542293E-62,-1.));
#1045=DIRECTION('center_axis',(1.4791141972894E-31,1.15623751542293E-62,
-1.));
#1046=DIRECTION('ref_axis',(-1.,-4.80248160496539E-32,-1.4791141972894E-31));
#1047=DIRECTION('center_axis',(1.4791141972894E-31,1.15623751542293E-62,
-1.));
#1048=DIRECTION('ref_axis',(-1.,-4.80248160496539E-32,-1.4791141972894E-31));
#1049=DIRECTION('',(1.4791141972894E-31,1.15623751542293E-62,-1.));
#1050=DIRECTION('center_axis',(1.4791141972894E-31,1.15623751542293E-62,
-1.));
#1051=DIRECTION('ref_axis',(-1.,-4.80248160496539E-32,-1.4791141972894E-31));
#1052=DIRECTION('center_axis',(1.4791141972894E-31,1.15623751542293E-62,
-1.));
#1053=DIRECTION('ref_axis',(-1.,-4.80248160496539E-32,-1.4791141972894E-31));
#1054=DIRECTION('',(1.4791141972894E-31,1.15623751542293E-62,-1.));
#1055=DIRECTION('center_axis',(1.4791141972894E-31,1.15623751542293E-62,
-1.));
#1056=DIRECTION('ref_axis',(-1.,-4.80248160496539E-32,-1.4791141972894E-31));
#1057=DIRECTION('center_axis',(1.4791141972894E-31,1.15623751542293E-62,
-1.));
#1058=DIRECTION('ref_axis',(-1.,-4.80248160496539E-32,-1.4791141972894E-31));
#1059=DIRECTION('',(1.4791141972894E-31,1.15623751542293E-62,-1.));
#1060=DIRECTION('center_axis',(1.4791141972894E-31,1.15623751542293E-62,
-1.));
#1061=DIRECTION('ref_axis',(-0.707106781186548,0.707106781186548,-1.04589167905263E-31));
#1062=DIRECTION('center_axis',(-1.4791141972894E-31,-1.15623751542293E-62,
1.));
#1063=DIRECTION('ref_axis',(-0.707106781186548,0.707106781186548,-1.04589167905263E-31));
#1064=DIRECTION('',(1.4791141972894E-31,1.15623751542293E-62,-1.));
#1065=DIRECTION('',(-1.4791141972894E-31,-1.15623751542293E-62,1.));
#1066=DIRECTION('center_axis',(1.,4.80248160496539E-32,1.4791141972894E-31));
#1067=DIRECTION('ref_axis',(1.4791141972894E-31,1.15623751542293E-62,-1.));
#1068=DIRECTION('',(4.80248160496539E-32,-1.,-4.45895643010386E-63));
#1069=DIRECTION('',(-1.4791141972894E-31,-1.15623751542293E-62,1.));
#1070=DIRECTION('center_axis',(-1.4791141972894E-31,-1.15623751542293E-62,
1.));
#1071=DIRECTION('ref_axis',(-0.70710678118655,0.707106781186545,-1.04589167905263E-31));
#1072=DIRECTION('',(-1.4791141972894E-31,-1.15623751542293E-62,1.));
#1073=DIRECTION('center_axis',(-1.4791141972894E-31,-1.15623751542293E-62,
1.));
#1074=DIRECTION('ref_axis',(-0.70710678118655,0.707106781186545,-1.04589167905263E-31));
#1075=DIRECTION('',(1.4791141972894E-31,1.15623751542293E-62,-1.));
#1076=DIRECTION('center_axis',(4.80248160496539E-32,-1.,-4.45895643010386E-63));
#1077=DIRECTION('ref_axis',(1.4791141972894E-31,1.15623751542293E-62,-1.));
#1078=DIRECTION('',(1.4791141972894E-31,1.15623751542293E-62,-1.));
#1079=DIRECTION('',(1.,4.80248160496539E-32,1.4791141972894E-31));
#1080=DIRECTION('center_axis',(1.4791141972894E-31,1.15623751542293E-62,
-1.));
#1081=DIRECTION('ref_axis',(-0.707106781186548,-0.707106781186548,-1.04589167905263E-31));
#1082=DIRECTION('center_axis',(-1.4791141972894E-31,-1.15623751542293E-62,
1.));
#1083=DIRECTION('ref_axis',(-0.707106781186548,-0.707106781186548,-1.04589167905263E-31));
#1084=DIRECTION('',(1.4791141972894E-31,1.15623751542293E-62,-1.));
#1085=DIRECTION('',(-1.4791141972894E-31,-1.15623751542293E-62,1.));
#1086=DIRECTION('center_axis',(-4.80248160496539E-32,1.,4.45895643010386E-63));
#1087=DIRECTION('ref_axis',(-1.4791141972894E-31,-1.15623751542293E-62,
1.));
#1088=DIRECTION('',(1.,4.80248160496539E-32,1.4791141972894E-31));
#1089=DIRECTION('',(-1.4791141972894E-31,-1.15623751542293E-62,1.));
#1090=DIRECTION('center_axis',(-1.4791141972894E-31,-1.15623751542293E-62,
1.));
#1091=DIRECTION('ref_axis',(-0.707106781186545,-0.70710678118655,-1.04589167905263E-31));
#1092=DIRECTION('',(-1.4791141972894E-31,-1.15623751542293E-62,1.));
#1093=DIRECTION('center_axis',(-1.4791141972894E-31,-1.15623751542293E-62,
1.));
#1094=DIRECTION('ref_axis',(-0.707106781186545,-0.70710678118655,-1.04589167905263E-31));
#1095=DIRECTION('',(1.4791141972894E-31,1.15623751542293E-62,-1.));
#1096=DIRECTION('center_axis',(1.,4.80248160496539E-32,1.4791141972894E-31));
#1097=DIRECTION('ref_axis',(1.4791141972894E-31,1.15623751542293E-62,-1.));
#1098=DIRECTION('',(1.4791141972894E-31,1.15623751542293E-62,-1.));
#1099=DIRECTION('',(4.80248160496539E-32,-1.,-4.45895643010386E-63));
#1100=DIRECTION('center_axis',(1.4791141972894E-31,1.15623751542293E-62,
-1.));
#1101=DIRECTION('ref_axis',(0.707106781186548,-0.707106781186548,1.04589167905263E-31));
#1102=DIRECTION('center_axis',(-1.4791141972894E-31,-1.15623751542293E-62,
1.));
#1103=DIRECTION('ref_axis',(0.707106781186548,-0.707106781186548,1.04589167905263E-31));
#1104=DIRECTION('',(1.4791141972894E-31,1.15623751542293E-62,-1.));
#1105=DIRECTION('',(-1.4791141972894E-31,-1.15623751542293E-62,1.));
#1106=DIRECTION('center_axis',(-1.,-4.80248160496539E-32,-1.4791141972894E-31));
#1107=DIRECTION('ref_axis',(-1.4791141972894E-31,-1.15623751542293E-62,
1.));
#1108=DIRECTION('',(-4.80248160496539E-32,1.,4.45895643010386E-63));
#1109=DIRECTION('',(-1.4791141972894E-31,-1.15623751542293E-62,1.));
#1110=DIRECTION('center_axis',(-1.4791141972894E-31,-1.15623751542293E-62,
1.));
#1111=DIRECTION('ref_axis',(0.70710678118655,-0.707106781186545,1.04589167905263E-31));
#1112=DIRECTION('',(-1.4791141972894E-31,-1.15623751542293E-62,1.));
#1113=DIRECTION('center_axis',(-1.4791141972894E-31,-1.15623751542293E-62,
1.));
#1114=DIRECTION('ref_axis',(0.70710678118655,-0.707106781186545,1.04589167905263E-31));
#1115=DIRECTION('',(1.4791141972894E-31,1.15623751542293E-62,-1.));
#1116=DIRECTION('center_axis',(-4.80248160496539E-32,1.,4.45895643010386E-63));
#1117=DIRECTION('ref_axis',(1.4791141972894E-31,1.15623751542293E-62,-1.));
#1118=DIRECTION('',(1.4791141972894E-31,1.15623751542293E-62,-1.));
#1119=DIRECTION('',(-1.,-4.80248160496539E-32,-1.4791141972894E-31));
#1120=DIRECTION('center_axis',(1.4791141972894E-31,1.15623751542293E-62,
-1.));
#1121=DIRECTION('ref_axis',(0.70710678118655,0.707106781186545,1.04589167905263E-31));
#1122=DIRECTION('center_axis',(-1.4791141972894E-31,-1.15623751542293E-62,
1.));
#1123=DIRECTION('ref_axis',(0.70710678118655,0.707106781186545,1.04589167905263E-31));
#1124=DIRECTION('',(1.4791141972894E-31,1.15623751542293E-62,-1.));
#1125=DIRECTION('',(-1.4791141972894E-31,-1.15623751542293E-62,1.));
#1126=DIRECTION('center_axis',(4.80248160496539E-32,-1.,-4.45895643010386E-63));
#1127=DIRECTION('ref_axis',(-1.4791141972894E-31,-1.15623751542293E-62,
1.));
#1128=DIRECTION('',(-1.,-4.80248160496539E-32,-1.4791141972894E-31));
#1129=DIRECTION('',(-1.4791141972894E-31,-1.15623751542293E-62,1.));
#1130=DIRECTION('center_axis',(-1.4791141972894E-31,-1.15623751542293E-62,
1.));
#1131=DIRECTION('ref_axis',(0.707106781186548,0.707106781186548,1.04589167905263E-31));
#1132=DIRECTION('',(-1.4791141972894E-31,-1.15623751542293E-62,1.));
#1133=DIRECTION('center_axis',(-1.4791141972894E-31,-1.15623751542293E-62,
1.));
#1134=DIRECTION('ref_axis',(0.707106781186548,0.707106781186548,1.04589167905263E-31));
#1135=DIRECTION('',(1.4791141972894E-31,1.15623751542293E-62,-1.));
#1136=DIRECTION('center_axis',(-1.,-4.80248160496539E-32,-1.4791141972894E-31));
#1137=DIRECTION('ref_axis',(-1.4791141972894E-31,-1.15623751542293E-62,
1.));
#1138=DIRECTION('',(1.4791141972894E-31,1.15623751542293E-62,-1.));
#1139=DIRECTION('',(-4.80248160496539E-32,1.,4.45895643010386E-63));
#1140=DIRECTION('center_axis',(-1.4791141972894E-31,-1.15623751542293E-62,
1.));
#1141=DIRECTION('ref_axis',(-0.707106781186548,-0.707106781186548,-1.04589167905263E-31));
#1142=DIRECTION('center_axis',(1.4791141972894E-31,1.15623751542293E-62,
-1.));
#1143=DIRECTION('ref_axis',(-0.707106781186548,-0.707106781186548,-1.04589167905263E-31));
#1144=DIRECTION('center_axis',(-1.4791141972894E-31,-1.15623751542293E-62,
1.));
#1145=DIRECTION('ref_axis',(1.,4.80248160496539E-32,1.4791141972894E-31));
#1146=DIRECTION('',(-1.,-4.80248160496539E-32,-1.4791141972894E-31));
#1147=DIRECTION('',(4.80248160496539E-32,-1.,-4.45895643010386E-63));
#1148=DIRECTION('',(4.80248160496539E-32,-1.,-4.45895643010386E-63));
#1149=DIRECTION('center_axis',(1.4791141972894E-31,1.15623751542293E-62,
-1.));
#1150=DIRECTION('ref_axis',(-0.707106781186548,0.707106781186548,-1.04589167905263E-31));
#1151=DIRECTION('',(-1.,-4.80248160496539E-32,-1.4791141972894E-31));
#1152=DIRECTION('center_axis',(1.4791141972894E-31,1.15623751542293E-62,
-1.));
#1153=DIRECTION('ref_axis',(0.707106781186547,0.707106781186548,1.04589167905263E-31));
#1154=DIRECTION('',(-4.80248160496539E-32,1.,4.45895643010386E-63));
#1155=DIRECTION('center_axis',(1.4791141972894E-31,1.15623751542293E-62,
-1.));
#1156=DIRECTION('ref_axis',(0.707106781186548,-0.707106781186548,1.04589167905263E-31));
#1157=DIRECTION('',(1.,4.80248160496539E-32,1.4791141972894E-31));
#1158=DIRECTION('center_axis',(1.4791141972894E-31,1.15623751542293E-62,
-1.));
#1159=DIRECTION('ref_axis',(-0.707106781186548,0.707106781186548,-1.04589167905263E-31));
#1160=DIRECTION('center_axis',(-1.4791141972894E-31,-1.15623751542293E-62,
1.));
#1161=DIRECTION('ref_axis',(0.707106781186547,0.707106781186548,1.04589167905263E-31));
#1162=DIRECTION('center_axis',(1.4791141972894E-31,1.15623751542293E-62,
-1.));
#1163=DIRECTION('ref_axis',(0.707106781186548,-0.707106781186548,1.04589167905263E-31));
#1164=DIRECTION('center_axis',(1.,4.80248160496539E-32,1.4791141972894E-31));
#1165=DIRECTION('ref_axis',(-4.80248160496539E-32,1.,4.45895643010386E-63));
#1166=DIRECTION('center_axis',(-4.80248160496539E-32,1.,4.45895643010386E-63));
#1167=DIRECTION('ref_axis',(-1.,-4.80248160496539E-32,-1.4791141972894E-31));
#1168=DIRECTION('center_axis',(-1.,-4.80248160496539E-32,-1.4791141972894E-31));
#1169=DIRECTION('ref_axis',(4.80248160496539E-32,-1.,-4.45895643010386E-63));
#1170=DIRECTION('center_axis',(4.80248160496539E-32,-1.,-4.45895643010386E-63));
#1171=DIRECTION('ref_axis',(1.,4.80248160496539E-32,1.4791141972894E-31));
#1172=DIRECTION('center_axis',(-1.,-4.80248160496539E-32,-1.4791141972894E-31));
#1173=DIRECTION('ref_axis',(4.80248160496539E-32,-1.,-4.45895643010386E-63));
#1174=DIRECTION('center_axis',(-4.80248160496539E-32,1.,4.45895643010386E-63));
#1175=DIRECTION('ref_axis',(-1.,-4.80248160496539E-32,-1.4791141972894E-31));
#1176=DIRECTION('',(-4.55531587302284E-16,-1.22464679914723E-16,1.));
#1177=DIRECTION('',(2.63677968348474E-16,1.,1.22464679914729E-16));
#1178=CARTESIAN_POINT('',(0.,0.,0.));
#1179=CARTESIAN_POINT('',(0.,0.,0.));
#1180=CARTESIAN_POINT('Origin',(22.,1.14423774522214E-16,16.));
#1181=CARTESIAN_POINT('',(23.5,2.98120794394316E-16,16.));
#1182=CARTESIAN_POINT('Origin',(22.,1.14423774522214E-16,16.));
#1183=CARTESIAN_POINT('',(23.5,2.98120794394316E-16,13.));
#1184=CARTESIAN_POINT('',(23.5,-6.92732453498891E-17,16.));
#1185=CARTESIAN_POINT('Origin',(22.,1.14423774522214E-16,13.));
#1186=CARTESIAN_POINT('Origin',(-1.01064309961485E-14,-22.0000003278255,
16.));
#1187=CARTESIAN_POINT('',(1.49999999999999,-22.0000003278255,16.));
#1188=CARTESIAN_POINT('Origin',(-1.01064309961485E-14,-22.0000003278255,
16.));
#1189=CARTESIAN_POINT('',(1.49999999999999,-22.0000003278255,13.));
#1190=CARTESIAN_POINT('',(1.49999999999999,-22.0000003278255,16.));
#1191=CARTESIAN_POINT('Origin',(-1.01064309961485E-14,-22.0000003278255,
13.));
#1192=CARTESIAN_POINT('Origin',(-22.,1.14423774522212E-16,16.));
#1193=CARTESIAN_POINT('',(-20.5,2.98120794394315E-16,16.));
#1194=CARTESIAN_POINT('Origin',(-22.,1.14423774522212E-16,16.));
#1195=CARTESIAN_POINT('',(-20.5,2.98120794394315E-16,13.));
#1196=CARTESIAN_POINT('',(-20.5,-6.92732453498911E-17,16.));
#1197=CARTESIAN_POINT('Origin',(-22.,1.14423774522212E-16,13.));
#1198=CARTESIAN_POINT('Origin',(25.,8.34,16.));
#1199=CARTESIAN_POINT('',(8.33999999999998,25.,13.));
#1200=CARTESIAN_POINT('',(25.,8.34,13.));
#1201=CARTESIAN_POINT('',(20.835,12.505,13.));
#1202=CARTESIAN_POINT('',(8.33999999999998,25.,16.));
#1203=CARTESIAN_POINT('',(8.33999999999998,25.,14.5));
#1204=CARTESIAN_POINT('',(25.,8.34,16.));
#1205=CARTESIAN_POINT('',(20.835,12.505,16.));
#1206=CARTESIAN_POINT('',(25.,8.34,14.5));
#1207=CARTESIAN_POINT('Origin',(8.33999999999999,-25.,16.));
#1208=CARTESIAN_POINT('',(25.,-8.34,13.));
#1209=CARTESIAN_POINT('',(8.33999999999999,-25.,13.));
#1210=CARTESIAN_POINT('',(12.505,-20.835,13.));
#1211=CARTESIAN_POINT('',(25.,-8.34,16.));
#1212=CARTESIAN_POINT('',(25.,-8.33999999999999,14.5));
#1213=CARTESIAN_POINT('',(8.33999999999999,-25.,16.));
#1214=CARTESIAN_POINT('',(12.505,-20.835,16.));
#1215=CARTESIAN_POINT('',(8.34,-25.,14.5));
#1216=CARTESIAN_POINT('Origin',(-8.34000000000002,25.,16.));
#1217=CARTESIAN_POINT('',(-25.,8.34,13.));
#1218=CARTESIAN_POINT('',(-8.34000000000002,25.,13.));
#1219=CARTESIAN_POINT('',(-12.505,20.835,13.));
#1220=CARTESIAN_POINT('',(-25.,8.34,16.));
#1221=CARTESIAN_POINT('',(-25.,8.34,14.5));
#1222=CARTESIAN_POINT('',(-8.34000000000002,25.,16.));
#1223=CARTESIAN_POINT('',(-12.505,20.835,16.));
#1224=CARTESIAN_POINT('',(-8.34000000000001,25.,14.5));
#1225=CARTESIAN_POINT('Origin',(-25.,-8.34,16.));
#1226=CARTESIAN_POINT('',(-8.34,-25.,13.));
#1227=CARTESIAN_POINT('',(-25.,-8.34,13.));
#1228=CARTESIAN_POINT('',(-20.835,-12.505,13.));
#1229=CARTESIAN_POINT('',(-8.34,-25.,16.));
#1230=CARTESIAN_POINT('',(-8.34,-25.,14.5));
#1231=CARTESIAN_POINT('',(-25.,-8.34,16.));
#1232=CARTESIAN_POINT('',(-20.835,-12.505,16.));
#1233=CARTESIAN_POINT('',(-25.,-8.33999999999999,14.5));
#1234=CARTESIAN_POINT('Origin',(25.,-25.,13.));
#1235=CARTESIAN_POINT('',(25.,25.,16.));
#1236=CARTESIAN_POINT('',(25.,25.,13.));
#1237=CARTESIAN_POINT('Origin',(-1.01064309961485E-14,1.14423774522213E-16,
13.));
#1238=CARTESIAN_POINT('',(25.,-25.,13.));
#1239=CARTESIAN_POINT('',(-25.,-25.,13.));
#1240=CARTESIAN_POINT('',(-25.,25.,13.));
#1241=CARTESIAN_POINT('',(11.,13.,13.));
#1242=CARTESIAN_POINT('',(13.,11.,13.));
#1243=CARTESIAN_POINT('Origin',(13.,13.,13.));
#1244=CARTESIAN_POINT('',(11.,14.25,13.));
#1245=CARTESIAN_POINT('',(11.,15.,13.));
#1246=CARTESIAN_POINT('',(10.25,15.,13.));
#1247=CARTESIAN_POINT('Origin',(10.25,14.25,13.));
#1248=CARTESIAN_POINT('',(-10.25,15.,13.));
#1249=CARTESIAN_POINT('',(15.,15.,13.));
#1250=CARTESIAN_POINT('',(-11.,14.25,13.));
#1251=CARTESIAN_POINT('Origin',(-10.25,14.25,13.));
#1252=CARTESIAN_POINT('',(-11.,13.,13.));
#1253=CARTESIAN_POINT('',(-11.,11.,13.));
#1254=CARTESIAN_POINT('',(-13.,11.,13.));
#1255=CARTESIAN_POINT('Origin',(-13.,13.,13.));
#1256=CARTESIAN_POINT('',(-14.25,11.,13.));
#1257=CARTESIAN_POINT('',(-15.,11.,13.));
#1258=CARTESIAN_POINT('',(-15.,10.25,13.));
#1259=CARTESIAN_POINT('Origin',(-14.25,10.25,13.));
#1260=CARTESIAN_POINT('',(-15.,-10.25,13.));
#1261=CARTESIAN_POINT('',(-15.,15.,13.));
#1262=CARTESIAN_POINT('',(-14.25,-11.,13.));
#1263=CARTESIAN_POINT('Origin',(-14.25,-10.25,13.));
#1264=CARTESIAN_POINT('',(-13.,-11.,13.));
#1265=CARTESIAN_POINT('',(-15.,-11.,13.));
#1266=CARTESIAN_POINT('',(-11.,-13.,13.));
#1267=CARTESIAN_POINT('Origin',(-13.,-13.,13.));
#1268=CARTESIAN_POINT('',(-11.,-14.25,13.));
#1269=CARTESIAN_POINT('',(-11.,-15.,13.));
#1270=CARTESIAN_POINT('',(-10.25,-15.,13.));
#1271=CARTESIAN_POINT('Origin',(-10.25,-14.25,13.));
#1272=CARTESIAN_POINT('',(10.25,-15.,13.));
#1273=CARTESIAN_POINT('',(-15.,-15.,13.));
#1274=CARTESIAN_POINT('',(11.,-14.25,13.));
#1275=CARTESIAN_POINT('Origin',(10.25,-14.25,13.));
#1276=CARTESIAN_POINT('',(11.,-13.,13.));
#1277=CARTESIAN_POINT('',(11.,-11.,13.));
#1278=CARTESIAN_POINT('',(13.,-11.,13.));
#1279=CARTESIAN_POINT('Origin',(13.,-13.,13.));
#1280=CARTESIAN_POINT('',(14.25,-11.,13.));
#1281=CARTESIAN_POINT('',(15.,-11.,13.));
#1282=CARTESIAN_POINT('',(15.,-10.25,13.));
#1283=CARTESIAN_POINT('Origin',(14.25,-10.25,13.));
#1284=CARTESIAN_POINT('',(15.,10.25,13.));
#1285=CARTESIAN_POINT('',(15.,-15.,13.));
#1286=CARTESIAN_POINT('',(14.25,11.,13.));
#1287=CARTESIAN_POINT('Origin',(14.25,10.25,13.));
#1288=CARTESIAN_POINT('',(15.,11.,13.));
#1289=CARTESIAN_POINT('',(14.14,13.14,13.));
#1290=CARTESIAN_POINT('Origin',(13.14,13.14,13.));
#1291=CARTESIAN_POINT('',(-12.14,-13.14,13.));
#1292=CARTESIAN_POINT('Origin',(-13.14,-13.14,13.));
#1293=CARTESIAN_POINT('',(-12.14,13.14,13.));
#1294=CARTESIAN_POINT('Origin',(-13.14,13.14,13.));
#1295=CARTESIAN_POINT('',(14.14,-13.14,13.));
#1296=CARTESIAN_POINT('Origin',(13.14,-13.14,13.));
#1297=CARTESIAN_POINT('Origin',(-25.,-25.,13.));
#1298=CARTESIAN_POINT('',(25.,-25.,16.));
#1299=CARTESIAN_POINT('Origin',(13.14,-13.14,16.));
#1300=CARTESIAN_POINT('',(14.14,-13.14,16.));
#1301=CARTESIAN_POINT('Origin',(13.14,-13.14,16.));
#1302=CARTESIAN_POINT('',(14.14,-13.14,16.));
#1303=CARTESIAN_POINT('Origin',(-13.14,13.14,16.));
#1304=CARTESIAN_POINT('',(-12.14,13.14,16.));
#1305=CARTESIAN_POINT('Origin',(-13.14,13.14,16.));
#1306=CARTESIAN_POINT('',(-12.14,13.14,16.));
#1307=CARTESIAN_POINT('Origin',(-13.14,-13.14,16.));
#1308=CARTESIAN_POINT('',(-12.14,-13.14,16.));
#1309=CARTESIAN_POINT('Origin',(-13.14,-13.14,16.));
#1310=CARTESIAN_POINT('',(-12.14,-13.14,16.));
#1311=CARTESIAN_POINT('Origin',(13.14,13.14,16.));
#1312=CARTESIAN_POINT('',(14.14,13.14,16.));
#1313=CARTESIAN_POINT('Origin',(13.14,13.14,16.));
#1314=CARTESIAN_POINT('',(14.14,13.14,16.));
#1315=CARTESIAN_POINT('Origin',(-10.25,14.25,13.75));
#1316=CARTESIAN_POINT('',(-10.25,15.,16.));
#1317=CARTESIAN_POINT('',(-11.,14.25,16.));
#1318=CARTESIAN_POINT('Origin',(-10.25,14.25,16.));
#1319=CARTESIAN_POINT('',(-11.,14.25,13.75));
#1320=CARTESIAN_POINT('',(-10.25,15.,13.75));
#1321=CARTESIAN_POINT('Origin',(-11.,13.,14.5));
#1322=CARTESIAN_POINT('',(-11.,13.,16.));
#1323=CARTESIAN_POINT('',(-11.,15.,16.));
#1324=CARTESIAN_POINT('',(-11.,13.,15.25));
#1325=CARTESIAN_POINT('Origin',(-14.25,10.25,14.5));
#1326=CARTESIAN_POINT('',(-14.25,11.,16.));
#1327=CARTESIAN_POINT('',(-14.25,11.,14.5));
#1328=CARTESIAN_POINT('',(-15.,10.25,16.));
#1329=CARTESIAN_POINT('Origin',(-14.25,10.25,16.));
#1330=CARTESIAN_POINT('',(-15.,10.25,14.5));
#1331=CARTESIAN_POINT('Origin',(-15.,11.,16.));
#1332=CARTESIAN_POINT('',(-13.,11.,16.));
#1333=CARTESIAN_POINT('',(-13.,11.,15.25));
#1334=CARTESIAN_POINT('',(-15.,11.,16.));
#1335=CARTESIAN_POINT('Origin',(-14.25,-10.25,13.));
#1336=CARTESIAN_POINT('',(-15.,-10.25,16.));
#1337=CARTESIAN_POINT('',(-14.25,-11.,16.));
#1338=CARTESIAN_POINT('Origin',(-14.25,-10.25,16.));
#1339=CARTESIAN_POINT('',(-14.25,-11.,13.));
#1340=CARTESIAN_POINT('',(-15.,-10.25,13.));
#1341=CARTESIAN_POINT('Origin',(-15.,-11.,13.));
#1342=CARTESIAN_POINT('',(-13.,-11.,16.));
#1343=CARTESIAN_POINT('',(-15.,-11.,16.));
#1344=CARTESIAN_POINT('',(-13.,-11.,13.75));
#1345=CARTESIAN_POINT('Origin',(-10.25,-14.25,13.75));
#1346=CARTESIAN_POINT('',(-11.,-14.25,16.));
#1347=CARTESIAN_POINT('',(-11.,-14.25,13.75));
#1348=CARTESIAN_POINT('',(-10.25,-15.,16.));
#1349=CARTESIAN_POINT('Origin',(-10.25,-14.25,16.));
#1350=CARTESIAN_POINT('',(-10.25,-15.,13.75));
#1351=CARTESIAN_POINT('Origin',(-11.,-13.,14.5));
#1352=CARTESIAN_POINT('',(-11.,-13.,16.));
#1353=CARTESIAN_POINT('',(-11.,-13.,13.75));
#1354=CARTESIAN_POINT('',(-11.,-11.,16.));
#1355=CARTESIAN_POINT('Origin',(10.25,-14.25,13.75));
#1356=CARTESIAN_POINT('',(10.25,-15.,16.));
#1357=CARTESIAN_POINT('',(11.,-14.25,16.));
#1358=CARTESIAN_POINT('Origin',(10.25,-14.25,16.));
#1359=CARTESIAN_POINT('',(11.,-14.25,13.75));
#1360=CARTESIAN_POINT('',(10.25,-15.,13.75));
#1361=CARTESIAN_POINT('Origin',(11.,-13.,14.5));
#1362=CARTESIAN_POINT('',(11.,-13.,16.));
#1363=CARTESIAN_POINT('',(11.,-15.,16.));
#1364=CARTESIAN_POINT('',(11.,-13.,15.25));
#1365=CARTESIAN_POINT('Origin',(14.25,-10.25,14.5));
#1366=CARTESIAN_POINT('',(14.25,-11.,16.));
#1367=CARTESIAN_POINT('',(14.25,-11.,14.5));
#1368=CARTESIAN_POINT('',(15.,-10.25,16.));
#1369=CARTESIAN_POINT('Origin',(14.25,-10.25,16.));
#1370=CARTESIAN_POINT('',(15.,-10.25,14.5));
#1371=CARTESIAN_POINT('Origin',(15.,-11.,16.));
#1372=CARTESIAN_POINT('',(13.,-11.,16.));
#1373=CARTESIAN_POINT('',(13.,-11.,15.25));
#1374=CARTESIAN_POINT('',(15.,-11.,16.));
#1375=CARTESIAN_POINT('Origin',(14.25,10.25,13.));
#1376=CARTESIAN_POINT('',(15.,10.25,16.));
#1377=CARTESIAN_POINT('',(14.25,11.,16.));
#1378=CARTESIAN_POINT('Origin',(14.25,10.25,16.));
#1379=CARTESIAN_POINT('',(14.25,11.,13.));
#1380=CARTESIAN_POINT('',(15.,10.25,13.));
#1381=CARTESIAN_POINT('Origin',(15.,11.,13.));
#1382=CARTESIAN_POINT('',(13.,11.,16.));
#1383=CARTESIAN_POINT('',(15.,11.,16.));
#1384=CARTESIAN_POINT('',(13.,11.,13.75));
#1385=CARTESIAN_POINT('Origin',(10.25,14.25,13.75));
#1386=CARTESIAN_POINT('',(11.,14.25,16.));
#1387=CARTESIAN_POINT('',(11.,14.25,13.75));
#1388=CARTESIAN_POINT('',(10.25,15.,16.));
#1389=CARTESIAN_POINT('Origin',(10.25,14.25,16.));
#1390=CARTESIAN_POINT('',(10.25,15.,13.75));
#1391=CARTESIAN_POINT('Origin',(11.,13.,14.5));
#1392=CARTESIAN_POINT('',(11.,13.,16.));
#1393=CARTESIAN_POINT('',(11.,13.,13.75));
#1394=CARTESIAN_POINT('',(11.,11.,16.));
#1395=CARTESIAN_POINT('Origin',(13.,13.,13.75));
#1396=CARTESIAN_POINT('Origin',(13.,13.,16.));
#1397=CARTESIAN_POINT('Origin',(-1.01064309961485E-14,1.14423774522213E-16,
16.));
#1398=CARTESIAN_POINT('',(-25.,25.,16.));
#1399=CARTESIAN_POINT('',(-25.,-25.,16.));
#1400=CARTESIAN_POINT('',(15.,-15.,16.));
#1401=CARTESIAN_POINT('Origin',(13.,-13.,16.));
#1402=CARTESIAN_POINT('',(-15.,-15.,16.));
#1403=CARTESIAN_POINT('Origin',(-13.,-13.,16.));
#1404=CARTESIAN_POINT('',(-15.,15.,16.));
#1405=CARTESIAN_POINT('Origin',(-13.,13.,16.));
#1406=CARTESIAN_POINT('',(15.,15.,16.));
#1407=CARTESIAN_POINT('Origin',(13.,-13.,15.25));
#1408=CARTESIAN_POINT('Origin',(-13.,-13.,13.75));
#1409=CARTESIAN_POINT('Origin',(-13.,13.,15.25));
#1410=CARTESIAN_POINT('Origin',(-15.,-15.,13.));
#1411=CARTESIAN_POINT('Origin',(15.,-15.,13.));
#1412=CARTESIAN_POINT('Origin',(15.,15.,13.));
#1413=CARTESIAN_POINT('Origin',(-15.,15.,13.));
#1414=CARTESIAN_POINT('Origin',(-25.,25.,13.));
#1415=CARTESIAN_POINT('Origin',(25.,25.,13.));
#1416=CARTESIAN_POINT('',(5.10791249302738E-14,3.07538049245287E-14,-92.6));
#1417=UNCERTAINTY_MEASURE_WITH_UNIT(LENGTH_MEASURE(0.01),#1423,
'DISTANCE_ACCURACY_VALUE',
'Maximum model space distance between geometric entities at asserted c
onnectivities');
#1418=UNCERTAINTY_MEASURE_WITH_UNIT(LENGTH_MEASURE(0.01),#1423,
'DISTANCE_ACCURACY_VALUE',
'Maximum model space distance between geometric entities at asserted c
onnectivities');
#1419=UNCERTAINTY_MEASURE_WITH_UNIT(LENGTH_MEASURE(0.01),#1423,
'DISTANCE_ACCURACY_VALUE',
'Maximum model space distance between geometric entities at asserted c
onnectivities');
#1420=(
GEOMETRIC_REPRESENTATION_CONTEXT(3)
GLOBAL_UNCERTAINTY_ASSIGNED_CONTEXT((#1417))
GLOBAL_UNIT_ASSIGNED_CONTEXT((#1423,#1425,#1426))
REPRESENTATION_CONTEXT('','3D')
);
#1421=(
GEOMETRIC_REPRESENTATION_CONTEXT(3)
GLOBAL_UNCERTAINTY_ASSIGNED_CONTEXT((#1418))
GLOBAL_UNIT_ASSIGNED_CONTEXT((#1423,#1425,#1426))
REPRESENTATION_CONTEXT('','3D')
);
#1422=(
GEOMETRIC_REPRESENTATION_CONTEXT(3)
GLOBAL_UNCERTAINTY_ASSIGNED_CONTEXT((#1419))
GLOBAL_UNIT_ASSIGNED_CONTEXT((#1423,#1425,#1426))
REPRESENTATION_CONTEXT('','3D')
);
#1423=(
LENGTH_UNIT()
NAMED_UNIT(*)
SI_UNIT(.MILLI.,.METRE.)
);
#1424=(
LENGTH_UNIT()
NAMED_UNIT(*)
SI_UNIT($,.METRE.)
);
#1425=(
NAMED_UNIT(*)
PLANE_ANGLE_UNIT()
SI_UNIT($,.RADIAN.)
);
#1426=(
NAMED_UNIT(*)
SI_UNIT($,.STERADIAN.)
SOLID_ANGLE_UNIT()
);
#1427=SHAPE_DEFINITION_REPRESENTATION(#1429,#1432);
#1428=SHAPE_DEFINITION_REPRESENTATION(#1430,#1433);
#1429=PRODUCT_DEFINITION_SHAPE('',$,#1435);
#1430=PRODUCT_DEFINITION_SHAPE('',$,#1436);
#1431=PRODUCT_DEFINITION_SHAPE($,$,#14);
#1432=SHAPE_REPRESENTATION('',(#853,#934),#1420);
#1433=SHAPE_REPRESENTATION('',(#854),#1421);
#1434=PRODUCT_DEFINITION_CONTEXT('part definition',#1442,'design');
#1435=PRODUCT_DEFINITION('HighPrecisionStepperJuggler',
'HighPrecisionStepperJuggler v1',#1437,#1434);
#1436=PRODUCT_DEFINITION('camera','camera',#1438,#1434);
#1437=PRODUCT_DEFINITION_FORMATION('',$,#1444);
#1438=PRODUCT_DEFINITION_FORMATION('',$,#1445);
#1439=PRODUCT_RELATED_PRODUCT_CATEGORY('HighPrecisionStepperJuggler v1',
'HighPrecisionStepperJuggler v1',(#1444));
#1440=PRODUCT_RELATED_PRODUCT_CATEGORY('camera','camera',(#1445));
#1441=APPLICATION_PROTOCOL_DEFINITION('international standard',
'automotive_design',2009,#1442);
#1442=APPLICATION_CONTEXT(
'Core Data for Automotive Mechanical Design Process');
#1443=PRODUCT_CONTEXT('part definition',#1442,'mechanical');
#1444=PRODUCT('HighPrecisionStepperJuggler',
'HighPrecisionStepperJuggler v1',$,(#1443));
#1445=PRODUCT('camera','camera',$,(#1443));
#1446=PRESENTATION_STYLE_ASSIGNMENT((#1447));
#1447=SURFACE_STYLE_USAGE(.BOTH.,#1448);
#1448=SURFACE_SIDE_STYLE('',(#1449));
#1449=SURFACE_STYLE_FILL_AREA(#1450);
#1450=FILL_AREA_STYLE('Steel - Satin',(#1451));
#1451=FILL_AREA_STYLE_COLOUR('Steel - Satin',#1452);
#1452=COLOUR_RGB('Steel - Satin',0.627450980392157,0.627450980392157,0.627450980392157);
ENDSEC;
END-ISO-10303-21;
