ISO-10303-21;
HEADER;
/* Generated by software containing ST-Developer
 * from STEP Tools, Inc. (www.steptools.com) 
 */

FILE_DESCRIPTION(
/* description */ (''),
/* implementation_level */ '2;1');

FILE_NAME(
/* name */ 'dcut support.step',
/* time_stamp */ '2026-08-16T13:06:36+02:00',
/* author */ (''),
/* organization */ (''),
/* preprocessor_version */ 'ST-DEVELOPER v20.1',
/* originating_system */ 'Autodesk Translation Framework v15.8.0.0',
/* authorisation */ '');

FILE_SCHEMA (('AUTOMOTIVE_DESIGN { 1 0 10303 214 3 1 1 }'));
ENDSEC;

DATA;
#10=MECHANICAL_DESIGN_GEOMETRIC_PRESENTATION_REPRESENTATION('',(#17),#755);
#11=ITEM_DEFINED_TRANSFORMATION($,$,#463,#500);
#12=(
REPRESENTATION_RELATIONSHIP($,$,#766,#765)
REPRESENTATION_RELATIONSHIP_WITH_TRANSFORMATION(#11)
SHAPE_REPRESENTATION_RELATIONSHIP()
);
#13=CONTEXT_DEPENDENT_SHAPE_REPRESENTATION(#12,#764);
#14=NEXT_ASSEMBLY_USAGE_OCCURRENCE('LowerArm:1','LowerArm:1',
'LowerArm:1',#768,#769,'LowerArm:1');
#15=SHAPE_REPRESENTATION_RELATIONSHIP('SRR','None',#766,#16);
#16=ADVANCED_BREP_SHAPE_REPRESENTATION('',(#18),#754);
#17=STYLED_ITEM('',(#779),#18);
#18=MANIFOLD_SOLID_BREP('Body5',#449);
#19=FACE_BOUND('',#74,.T.);
#20=FACE_BOUND('',#75,.T.);
#21=FACE_BOUND('',#76,.T.);
#22=FACE_BOUND('',#77,.T.);
#23=FACE_BOUND('',#82,.T.);
#24=FACE_BOUND('',#83,.T.);
#25=FACE_BOUND('',#84,.T.);
#26=FACE_BOUND('',#85,.T.);
#27=PLANE('',#476);
#28=PLANE('',#480);
#29=PLANE('',#481);
#30=PLANE('',#482);
#31=PLANE('',#483);
#32=PLANE('',#486);
#33=PLANE('',#487);
#34=PLANE('',#488);
#35=PLANE('',#489);
#36=PLANE('',#494);
#37=PLANE('',#495);
#38=PLANE('',#496);
#39=PLANE('',#497);
#40=PLANE('',#498);
#41=PLANE('',#499);
#42=FACE_OUTER_BOUND('',#64,.T.);
#43=FACE_OUTER_BOUND('',#65,.T.);
#44=FACE_OUTER_BOUND('',#66,.T.);
#45=FACE_OUTER_BOUND('',#67,.T.);
#46=FACE_OUTER_BOUND('',#68,.T.);
#47=FACE_OUTER_BOUND('',#69,.T.);
#48=FACE_OUTER_BOUND('',#70,.T.);
#49=FACE_OUTER_BOUND('',#71,.T.);
#50=FACE_OUTER_BOUND('',#72,.T.);
#51=FACE_OUTER_BOUND('',#73,.T.);
#52=FACE_OUTER_BOUND('',#78,.T.);
#53=FACE_OUTER_BOUND('',#79,.T.);
#54=FACE_OUTER_BOUND('',#80,.T.);
#55=FACE_OUTER_BOUND('',#81,.T.);
#56=FACE_OUTER_BOUND('',#86,.T.);
#57=FACE_OUTER_BOUND('',#87,.T.);
#58=FACE_OUTER_BOUND('',#88,.T.);
#59=FACE_OUTER_BOUND('',#89,.T.);
#60=FACE_OUTER_BOUND('',#90,.T.);
#61=FACE_OUTER_BOUND('',#91,.T.);
#62=FACE_OUTER_BOUND('',#92,.T.);
#63=FACE_OUTER_BOUND('',#93,.T.);
#64=EDGE_LOOP('',(#300,#301,#302,#303));
#65=EDGE_LOOP('',(#304,#305,#306,#307));
#66=EDGE_LOOP('',(#308,#309,#310,#311));
#67=EDGE_LOOP('',(#312,#313,#314,#315));
#68=EDGE_LOOP('',(#316,#317,#318,#319));
#69=EDGE_LOOP('',(#320,#321,#322,#323));
#70=EDGE_LOOP('',(#324,#325,#326,#327));
#71=EDGE_LOOP('',(#328,#329,#330,#331));
#72=EDGE_LOOP('',(#332,#333,#334,#335));
#73=EDGE_LOOP('',(#336,#337,#338,#339,#340,#341,#342,#343,#344,#345,#346,
#347));
#74=EDGE_LOOP('',(#348,#349,#350,#351));
#75=EDGE_LOOP('',(#352,#353));
#76=EDGE_LOOP('',(#354));
#77=EDGE_LOOP('',(#355));
#78=EDGE_LOOP('',(#356,#357,#358,#359));
#79=EDGE_LOOP('',(#360,#361,#362,#363));
#80=EDGE_LOOP('',(#364,#365,#366,#367));
#81=EDGE_LOOP('',(#368,#369,#370,#371,#372,#373,#374,#375,#376,#377,#378,
#379));
#82=EDGE_LOOP('',(#380,#381,#382,#383));
#83=EDGE_LOOP('',(#384,#385));
#84=EDGE_LOOP('',(#386));
#85=EDGE_LOOP('',(#387));
#86=EDGE_LOOP('',(#388,#389,#390,#391));
#87=EDGE_LOOP('',(#392,#393,#394,#395));
#88=EDGE_LOOP('',(#396,#397,#398,#399));
#89=EDGE_LOOP('',(#400,#401,#402,#403));
#90=EDGE_LOOP('',(#404,#405,#406,#407));
#91=EDGE_LOOP('',(#408,#409,#410,#411));
#92=EDGE_LOOP('',(#412,#413,#414,#415));
#93=EDGE_LOOP('',(#416,#417,#418,#419));
#94=LINE('',#632,#140);
#95=LINE('',#635,#141);
#96=LINE('',#641,#142);
#97=LINE('',#647,#143);
#98=LINE('',#654,#144);
#99=LINE('',#656,#145);
#100=LINE('',#658,#146);
#101=LINE('',#659,#147);
#102=LINE('',#666,#148);
#103=LINE('',#668,#149);
#104=LINE('',#670,#150);
#105=LINE('',#671,#151);
#106=LINE('',#675,#152);
#107=LINE('',#677,#153);
#108=LINE('',#679,#154);
#109=LINE('',#680,#155);
#110=LINE('',#683,#156);
#111=LINE('',#685,#157);
#112=LINE('',#686,#158);
#113=LINE('',#689,#159);
#114=LINE('',#691,#160);
#115=LINE('',#693,#161);
#116=LINE('',#695,#162);
#117=LINE('',#697,#163);
#118=LINE('',#699,#164);
#119=LINE('',#701,#165);
#120=LINE('',#702,#166);
#121=LINE('',#703,#167);
#122=LINE('',#711,#168);
#123=LINE('',#712,#169);
#124=LINE('',#713,#170);
#125=LINE('',#717,#171);
#126=LINE('',#718,#172);
#127=LINE('',#719,#173);
#128=LINE('',#722,#174);
#129=LINE('',#723,#175);
#130=LINE('',#725,#176);
#131=LINE('',#727,#177);
#132=LINE('',#728,#178);
#133=LINE('',#729,#179);
#134=LINE('',#731,#180);
#135=LINE('',#732,#181);
#136=LINE('',#738,#182);
#137=LINE('',#740,#183);
#138=LINE('',#742,#184);
#139=LINE('',#746,#185);
#140=VECTOR('',#509,10.);
#141=VECTOR('',#512,10.);
#142=VECTOR('',#519,10.);
#143=VECTOR('',#526,10.);
#144=VECTOR('',#535,10.);
#145=VECTOR('',#536,10.);
#146=VECTOR('',#537,10.);
#147=VECTOR('',#538,10.);
#148=VECTOR('',#547,10.);
#149=VECTOR('',#548,10.);
#150=VECTOR('',#549,10.);
#151=VECTOR('',#550,10.);
#152=VECTOR('',#553,10.);
#153=VECTOR('',#554,10.);
#154=VECTOR('',#555,10.);
#155=VECTOR('',#556,10.);
#156=VECTOR('',#559,10.);
#157=VECTOR('',#560,10.);
#158=VECTOR('',#561,10.);
#159=VECTOR('',#564,10.);
#160=VECTOR('',#565,10.);
#161=VECTOR('',#566,10.);
#162=VECTOR('',#567,10.);
#163=VECTOR('',#568,10.);
#164=VECTOR('',#569,10.);
#165=VECTOR('',#570,10.);
#166=VECTOR('',#571,10.);
#167=VECTOR('',#572,10.);
#168=VECTOR('',#579,10.);
#169=VECTOR('',#580,10.);
#170=VECTOR('',#581,10.);
#171=VECTOR('',#584,10.);
#172=VECTOR('',#585,10.);
#173=VECTOR('',#586,10.);
#174=VECTOR('',#589,10.);
#175=VECTOR('',#590,10.);
#176=VECTOR('',#593,10.);
#177=VECTOR('',#594,10.);
#178=VECTOR('',#595,10.);
#179=VECTOR('',#596,10.);
#180=VECTOR('',#597,10.);
#181=VECTOR('',#598,10.);
#182=VECTOR('',#605,1.5);
#183=VECTOR('',#608,1.5);
#184=VECTOR('',#611,10.);
#185=VECTOR('',#618,10.);
#186=CIRCLE('',#465,5.49999999999998);
#187=CIRCLE('',#466,5.49999999999998);
#188=CIRCLE('',#468,1.5);
#189=CIRCLE('',#469,1.5);
#190=CIRCLE('',#471,8.49999999999999);
#191=CIRCLE('',#472,8.49999999999999);
#192=CIRCLE('',#474,1.5);
#193=CIRCLE('',#475,1.5);
#194=CIRCLE('',#478,4.00000000000001);
#195=CIRCLE('',#479,4.00000000000001);
#196=CIRCLE('',#484,1.5);
#197=CIRCLE('',#485,1.5);
#198=CIRCLE('',#490,1.5);
#199=CIRCLE('',#491,1.5);
#200=VERTEX_POINT('',#628);
#201=VERTEX_POINT('',#629);
#202=VERTEX_POINT('',#631);
#203=VERTEX_POINT('',#633);
#204=VERTEX_POINT('',#637);
#205=VERTEX_POINT('',#639);
#206=VERTEX_POINT('',#643);
#207=VERTEX_POINT('',#645);
#208=VERTEX_POINT('',#652);
#209=VERTEX_POINT('',#653);
#210=VERTEX_POINT('',#655);
#211=VERTEX_POINT('',#657);
#212=VERTEX_POINT('',#664);
#213=VERTEX_POINT('',#665);
#214=VERTEX_POINT('',#667);
#215=VERTEX_POINT('',#669);
#216=VERTEX_POINT('',#673);
#217=VERTEX_POINT('',#674);
#218=VERTEX_POINT('',#676);
#219=VERTEX_POINT('',#678);
#220=VERTEX_POINT('',#682);
#221=VERTEX_POINT('',#684);
#222=VERTEX_POINT('',#688);
#223=VERTEX_POINT('',#690);
#224=VERTEX_POINT('',#692);
#225=VERTEX_POINT('',#694);
#226=VERTEX_POINT('',#696);
#227=VERTEX_POINT('',#698);
#228=VERTEX_POINT('',#700);
#229=VERTEX_POINT('',#704);
#230=VERTEX_POINT('',#706);
#231=VERTEX_POINT('',#709);
#232=VERTEX_POINT('',#710);
#233=VERTEX_POINT('',#715);
#234=VERTEX_POINT('',#716);
#235=VERTEX_POINT('',#721);
#236=VERTEX_POINT('',#726);
#237=VERTEX_POINT('',#730);
#238=VERTEX_POINT('',#733);
#239=VERTEX_POINT('',#735);
#240=EDGE_CURVE('',#200,#201,#186,.T.);
#241=EDGE_CURVE('',#202,#200,#94,.T.);
#242=EDGE_CURVE('',#203,#202,#187,.T.);
#243=EDGE_CURVE('',#203,#201,#95,.T.);
#244=EDGE_CURVE('',#201,#204,#188,.T.);
#245=EDGE_CURVE('',#205,#203,#189,.T.);
#246=EDGE_CURVE('',#205,#204,#96,.T.);
#247=EDGE_CURVE('',#204,#206,#190,.T.);
#248=EDGE_CURVE('',#207,#205,#191,.T.);
#249=EDGE_CURVE('',#207,#206,#97,.T.);
#250=EDGE_CURVE('',#206,#200,#192,.T.);
#251=EDGE_CURVE('',#202,#207,#193,.T.);
#252=EDGE_CURVE('',#208,#209,#98,.T.);
#253=EDGE_CURVE('',#210,#208,#99,.T.);
#254=EDGE_CURVE('',#211,#210,#100,.T.);
#255=EDGE_CURVE('',#211,#209,#101,.T.);
#256=EDGE_CURVE('',#209,#208,#194,.T.);
#257=EDGE_CURVE('',#210,#211,#195,.T.);
#258=EDGE_CURVE('',#212,#213,#102,.T.);
#259=EDGE_CURVE('',#214,#212,#103,.T.);
#260=EDGE_CURVE('',#215,#214,#104,.T.);
#261=EDGE_CURVE('',#213,#215,#105,.T.);
#262=EDGE_CURVE('',#216,#217,#106,.T.);
#263=EDGE_CURVE('',#218,#216,#107,.T.);
#264=EDGE_CURVE('',#219,#218,#108,.T.);
#265=EDGE_CURVE('',#217,#219,#109,.T.);
#266=EDGE_CURVE('',#220,#212,#110,.T.);
#267=EDGE_CURVE('',#220,#221,#111,.T.);
#268=EDGE_CURVE('',#214,#221,#112,.T.);
#269=EDGE_CURVE('',#221,#222,#113,.T.);
#270=EDGE_CURVE('',#222,#223,#114,.T.);
#271=EDGE_CURVE('',#223,#224,#115,.T.);
#272=EDGE_CURVE('',#224,#225,#116,.F.);
#273=EDGE_CURVE('',#225,#226,#117,.T.);
#274=EDGE_CURVE('',#226,#227,#118,.T.);
#275=EDGE_CURVE('',#227,#228,#119,.T.);
#276=EDGE_CURVE('',#228,#219,#120,.T.);
#277=EDGE_CURVE('',#218,#215,#121,.T.);
#278=EDGE_CURVE('',#229,#229,#196,.T.);
#279=EDGE_CURVE('',#230,#230,#197,.T.);
#280=EDGE_CURVE('',#231,#232,#122,.T.);
#281=EDGE_CURVE('',#226,#231,#123,.T.);
#282=EDGE_CURVE('',#232,#225,#124,.T.);
#283=EDGE_CURVE('',#233,#234,#125,.T.);
#284=EDGE_CURVE('',#224,#233,#126,.T.);
#285=EDGE_CURVE('',#234,#223,#127,.T.);
#286=EDGE_CURVE('',#231,#235,#128,.T.);
#287=EDGE_CURVE('',#235,#227,#129,.T.);
#288=EDGE_CURVE('',#213,#216,#130,.T.);
#289=EDGE_CURVE('',#236,#217,#131,.T.);
#290=EDGE_CURVE('',#235,#236,#132,.T.);
#291=EDGE_CURVE('',#233,#232,#133,.F.);
#292=EDGE_CURVE('',#237,#234,#134,.T.);
#293=EDGE_CURVE('',#237,#220,#135,.T.);
#294=EDGE_CURVE('',#238,#238,#198,.T.);
#295=EDGE_CURVE('',#239,#239,#199,.T.);
#296=EDGE_CURVE('',#229,#238,#136,.T.);
#297=EDGE_CURVE('',#230,#239,#137,.T.);
#298=EDGE_CURVE('',#237,#222,#138,.T.);
#299=EDGE_CURVE('',#236,#228,#139,.T.);
#300=ORIENTED_EDGE('',*,*,#240,.F.);
#301=ORIENTED_EDGE('',*,*,#241,.F.);
#302=ORIENTED_EDGE('',*,*,#242,.F.);
#303=ORIENTED_EDGE('',*,*,#243,.T.);
#304=ORIENTED_EDGE('',*,*,#244,.F.);
#305=ORIENTED_EDGE('',*,*,#243,.F.);
#306=ORIENTED_EDGE('',*,*,#245,.F.);
#307=ORIENTED_EDGE('',*,*,#246,.T.);
#308=ORIENTED_EDGE('',*,*,#247,.F.);
#309=ORIENTED_EDGE('',*,*,#246,.F.);
#310=ORIENTED_EDGE('',*,*,#248,.F.);
#311=ORIENTED_EDGE('',*,*,#249,.T.);
#312=ORIENTED_EDGE('',*,*,#250,.F.);
#313=ORIENTED_EDGE('',*,*,#249,.F.);
#314=ORIENTED_EDGE('',*,*,#251,.F.);
#315=ORIENTED_EDGE('',*,*,#241,.T.);
#316=ORIENTED_EDGE('',*,*,#252,.F.);
#317=ORIENTED_EDGE('',*,*,#253,.F.);
#318=ORIENTED_EDGE('',*,*,#254,.F.);
#319=ORIENTED_EDGE('',*,*,#255,.T.);
#320=ORIENTED_EDGE('',*,*,#256,.F.);
#321=ORIENTED_EDGE('',*,*,#255,.F.);
#322=ORIENTED_EDGE('',*,*,#257,.F.);
#323=ORIENTED_EDGE('',*,*,#253,.T.);
#324=ORIENTED_EDGE('',*,*,#258,.F.);
#325=ORIENTED_EDGE('',*,*,#259,.F.);
#326=ORIENTED_EDGE('',*,*,#260,.F.);
#327=ORIENTED_EDGE('',*,*,#261,.F.);
#328=ORIENTED_EDGE('',*,*,#262,.F.);
#329=ORIENTED_EDGE('',*,*,#263,.F.);
#330=ORIENTED_EDGE('',*,*,#264,.F.);
#331=ORIENTED_EDGE('',*,*,#265,.F.);
#332=ORIENTED_EDGE('',*,*,#259,.T.);
#333=ORIENTED_EDGE('',*,*,#266,.F.);
#334=ORIENTED_EDGE('',*,*,#267,.T.);
#335=ORIENTED_EDGE('',*,*,#268,.F.);
#336=ORIENTED_EDGE('',*,*,#260,.T.);
#337=ORIENTED_EDGE('',*,*,#268,.T.);
#338=ORIENTED_EDGE('',*,*,#269,.T.);
#339=ORIENTED_EDGE('',*,*,#270,.T.);
#340=ORIENTED_EDGE('',*,*,#271,.T.);
#341=ORIENTED_EDGE('',*,*,#272,.T.);
#342=ORIENTED_EDGE('',*,*,#273,.T.);
#343=ORIENTED_EDGE('',*,*,#274,.T.);
#344=ORIENTED_EDGE('',*,*,#275,.T.);
#345=ORIENTED_EDGE('',*,*,#276,.T.);
#346=ORIENTED_EDGE('',*,*,#264,.T.);
#347=ORIENTED_EDGE('',*,*,#277,.T.);
#348=ORIENTED_EDGE('',*,*,#242,.T.);
#349=ORIENTED_EDGE('',*,*,#251,.T.);
#350=ORIENTED_EDGE('',*,*,#248,.T.);
#351=ORIENTED_EDGE('',*,*,#245,.T.);
#352=ORIENTED_EDGE('',*,*,#254,.T.);
#353=ORIENTED_EDGE('',*,*,#257,.T.);
#354=ORIENTED_EDGE('',*,*,#278,.T.);
#355=ORIENTED_EDGE('',*,*,#279,.T.);
#356=ORIENTED_EDGE('',*,*,#280,.F.);
#357=ORIENTED_EDGE('',*,*,#281,.F.);
#358=ORIENTED_EDGE('',*,*,#273,.F.);
#359=ORIENTED_EDGE('',*,*,#282,.F.);
#360=ORIENTED_EDGE('',*,*,#283,.F.);
#361=ORIENTED_EDGE('',*,*,#284,.F.);
#362=ORIENTED_EDGE('',*,*,#271,.F.);
#363=ORIENTED_EDGE('',*,*,#285,.F.);
#364=ORIENTED_EDGE('',*,*,#281,.T.);
#365=ORIENTED_EDGE('',*,*,#286,.T.);
#366=ORIENTED_EDGE('',*,*,#287,.T.);
#367=ORIENTED_EDGE('',*,*,#274,.F.);
#368=ORIENTED_EDGE('',*,*,#258,.T.);
#369=ORIENTED_EDGE('',*,*,#288,.T.);
#370=ORIENTED_EDGE('',*,*,#262,.T.);
#371=ORIENTED_EDGE('',*,*,#289,.F.);
#372=ORIENTED_EDGE('',*,*,#290,.F.);
#373=ORIENTED_EDGE('',*,*,#286,.F.);
#374=ORIENTED_EDGE('',*,*,#280,.T.);
#375=ORIENTED_EDGE('',*,*,#291,.F.);
#376=ORIENTED_EDGE('',*,*,#283,.T.);
#377=ORIENTED_EDGE('',*,*,#292,.F.);
#378=ORIENTED_EDGE('',*,*,#293,.T.);
#379=ORIENTED_EDGE('',*,*,#266,.T.);
#380=ORIENTED_EDGE('',*,*,#240,.T.);
#381=ORIENTED_EDGE('',*,*,#244,.T.);
#382=ORIENTED_EDGE('',*,*,#247,.T.);
#383=ORIENTED_EDGE('',*,*,#250,.T.);
#384=ORIENTED_EDGE('',*,*,#252,.T.);
#385=ORIENTED_EDGE('',*,*,#256,.T.);
#386=ORIENTED_EDGE('',*,*,#294,.F.);
#387=ORIENTED_EDGE('',*,*,#295,.F.);
#388=ORIENTED_EDGE('',*,*,#278,.F.);
#389=ORIENTED_EDGE('',*,*,#296,.T.);
#390=ORIENTED_EDGE('',*,*,#294,.T.);
#391=ORIENTED_EDGE('',*,*,#296,.F.);
#392=ORIENTED_EDGE('',*,*,#279,.F.);
#393=ORIENTED_EDGE('',*,*,#297,.T.);
#394=ORIENTED_EDGE('',*,*,#295,.T.);
#395=ORIENTED_EDGE('',*,*,#297,.F.);
#396=ORIENTED_EDGE('',*,*,#285,.T.);
#397=ORIENTED_EDGE('',*,*,#270,.F.);
#398=ORIENTED_EDGE('',*,*,#298,.F.);
#399=ORIENTED_EDGE('',*,*,#292,.T.);
#400=ORIENTED_EDGE('',*,*,#293,.F.);
#401=ORIENTED_EDGE('',*,*,#298,.T.);
#402=ORIENTED_EDGE('',*,*,#269,.F.);
#403=ORIENTED_EDGE('',*,*,#267,.F.);
#404=ORIENTED_EDGE('',*,*,#261,.T.);
#405=ORIENTED_EDGE('',*,*,#277,.F.);
#406=ORIENTED_EDGE('',*,*,#263,.T.);
#407=ORIENTED_EDGE('',*,*,#288,.F.);
#408=ORIENTED_EDGE('',*,*,#265,.T.);
#409=ORIENTED_EDGE('',*,*,#276,.F.);
#410=ORIENTED_EDGE('',*,*,#299,.F.);
#411=ORIENTED_EDGE('',*,*,#289,.T.);
#412=ORIENTED_EDGE('',*,*,#290,.T.);
#413=ORIENTED_EDGE('',*,*,#299,.T.);
#414=ORIENTED_EDGE('',*,*,#275,.F.);
#415=ORIENTED_EDGE('',*,*,#287,.F.);
#416=ORIENTED_EDGE('',*,*,#282,.T.);
#417=ORIENTED_EDGE('',*,*,#272,.F.);
#418=ORIENTED_EDGE('',*,*,#284,.T.);
#419=ORIENTED_EDGE('',*,*,#291,.T.);
#420=CYLINDRICAL_SURFACE('',#464,5.49999999999998);
#421=CYLINDRICAL_SURFACE('',#467,1.5);
#422=CYLINDRICAL_SURFACE('',#470,8.49999999999999);
#423=CYLINDRICAL_SURFACE('',#473,1.5);
#424=CYLINDRICAL_SURFACE('',#477,4.00000000000001);
#425=CYLINDRICAL_SURFACE('',#492,1.5);
#426=CYLINDRICAL_SURFACE('',#493,1.5);
#427=ADVANCED_FACE('',(#42),#420,.T.);
#428=ADVANCED_FACE('',(#43),#421,.F.);
#429=ADVANCED_FACE('',(#44),#422,.F.);
#430=ADVANCED_FACE('',(#45),#423,.F.);
#431=ADVANCED_FACE('',(#46),#27,.F.);
#432=ADVANCED_FACE('',(#47),#424,.F.);
#433=ADVANCED_FACE('',(#48),#28,.F.);
#434=ADVANCED_FACE('',(#49),#29,.F.);
#435=ADVANCED_FACE('',(#50),#30,.T.);
#436=ADVANCED_FACE('',(#51,#19,#20,#21,#22),#31,.T.);
#437=ADVANCED_FACE('',(#52),#32,.F.);
#438=ADVANCED_FACE('',(#53),#33,.F.);
#439=ADVANCED_FACE('',(#54),#34,.T.);
#440=ADVANCED_FACE('',(#55,#23,#24,#25,#26),#35,.F.);
#441=ADVANCED_FACE('',(#56),#425,.F.);
#442=ADVANCED_FACE('',(#57),#426,.F.);
#443=ADVANCED_FACE('',(#58),#36,.T.);
#444=ADVANCED_FACE('',(#59),#37,.T.);
#445=ADVANCED_FACE('',(#60),#38,.T.);
#446=ADVANCED_FACE('',(#61),#39,.T.);
#447=ADVANCED_FACE('',(#62),#40,.T.);
#448=ADVANCED_FACE('',(#63),#41,.T.);
#449=CLOSED_SHELL('',(#427,#428,#429,#430,#431,#432,#433,#434,#435,#436,
#437,#438,#439,#440,#441,#442,#443,#444,#445,#446,#447,#448));
#450=DERIVED_UNIT_ELEMENT(#452,1.);
#451=DERIVED_UNIT_ELEMENT(#757,-3.);
#452=(
MASS_UNIT()
NAMED_UNIT(*)
SI_UNIT(.KILO.,.GRAM.)
);
#453=DERIVED_UNIT((#450,#451));
#454=MEASURE_REPRESENTATION_ITEM('density measure',
POSITIVE_RATIO_MEASURE(7850.),#453);
#455=PROPERTY_DEFINITION_REPRESENTATION(#460,#457);
#456=PROPERTY_DEFINITION_REPRESENTATION(#461,#458);
#457=REPRESENTATION('material name',(#459),#754);
#458=REPRESENTATION('density',(#454),#754);
#459=DESCRIPTIVE_REPRESENTATION_ITEM('Steel','Steel');
#460=PROPERTY_DEFINITION('material property','material name',#769);
#461=PROPERTY_DEFINITION('material property','density of part',#769);
#462=AXIS2_PLACEMENT_3D('',#625,#501,#502);
#463=AXIS2_PLACEMENT_3D('',#626,#503,#504);
#464=AXIS2_PLACEMENT_3D('',#627,#505,#506);
#465=AXIS2_PLACEMENT_3D('',#630,#507,#508);
#466=AXIS2_PLACEMENT_3D('',#634,#510,#511);
#467=AXIS2_PLACEMENT_3D('',#636,#513,#514);
#468=AXIS2_PLACEMENT_3D('',#638,#515,#516);
#469=AXIS2_PLACEMENT_3D('',#640,#517,#518);
#470=AXIS2_PLACEMENT_3D('',#642,#520,#521);
#471=AXIS2_PLACEMENT_3D('',#644,#522,#523);
#472=AXIS2_PLACEMENT_3D('',#646,#524,#525);
#473=AXIS2_PLACEMENT_3D('',#648,#527,#528);
#474=AXIS2_PLACEMENT_3D('',#649,#529,#530);
#475=AXIS2_PLACEMENT_3D('',#650,#531,#532);
#476=AXIS2_PLACEMENT_3D('',#651,#533,#534);
#477=AXIS2_PLACEMENT_3D('',#660,#539,#540);
#478=AXIS2_PLACEMENT_3D('',#661,#541,#542);
#479=AXIS2_PLACEMENT_3D('',#662,#543,#544);
#480=AXIS2_PLACEMENT_3D('',#663,#545,#546);
#481=AXIS2_PLACEMENT_3D('',#672,#551,#552);
#482=AXIS2_PLACEMENT_3D('',#681,#557,#558);
#483=AXIS2_PLACEMENT_3D('',#687,#562,#563);
#484=AXIS2_PLACEMENT_3D('',#705,#573,#574);
#485=AXIS2_PLACEMENT_3D('',#707,#575,#576);
#486=AXIS2_PLACEMENT_3D('',#708,#577,#578);
#487=AXIS2_PLACEMENT_3D('',#714,#582,#583);
#488=AXIS2_PLACEMENT_3D('',#720,#587,#588);
#489=AXIS2_PLACEMENT_3D('',#724,#591,#592);
#490=AXIS2_PLACEMENT_3D('',#734,#599,#600);
#491=AXIS2_PLACEMENT_3D('',#736,#601,#602);
#492=AXIS2_PLACEMENT_3D('',#737,#603,#604);
#493=AXIS2_PLACEMENT_3D('',#739,#606,#607);
#494=AXIS2_PLACEMENT_3D('',#741,#609,#610);
#495=AXIS2_PLACEMENT_3D('',#743,#612,#613);
#496=AXIS2_PLACEMENT_3D('',#744,#614,#615);
#497=AXIS2_PLACEMENT_3D('',#745,#616,#617);
#498=AXIS2_PLACEMENT_3D('',#747,#619,#620);
#499=AXIS2_PLACEMENT_3D('',#748,#621,#622);
#500=AXIS2_PLACEMENT_3D('',#749,#623,#624);
#501=DIRECTION('axis',(0.,0.,1.));
#502=DIRECTION('refdir',(1.,0.,0.));
#503=DIRECTION('axis',(0.,0.,1.));
#504=DIRECTION('refdir',(1.,0.,0.));
#505=DIRECTION('center_axis',(0.,1.,1.34572487833352E-15));
#506=DIRECTION('ref_axis',(1.,0.,3.02673539340947E-31));
#507=DIRECTION('center_axis',(1.3975884060303E-16,1.,1.15290108754615E-15));
#508=DIRECTION('ref_axis',(1.,0.,3.02673539340947E-31));
#509=DIRECTION('',(0.,1.,1.34572487833352E-15));
#510=DIRECTION('center_axis',(-1.3975884060303E-16,-1.,-1.15290108754615E-15));
#511=DIRECTION('ref_axis',(1.,0.,3.02673539340947E-31));
#512=DIRECTION('',(0.,1.,1.34572487833352E-15));
#513=DIRECTION('center_axis',(0.,1.,1.34572487833352E-15));
#514=DIRECTION('ref_axis',(1.,0.,3.02673539340947E-31));
#515=DIRECTION('center_axis',(-1.3975884060303E-16,-1.,-1.15290108754615E-15));
#516=DIRECTION('ref_axis',(1.,0.,3.02673539340947E-31));
#517=DIRECTION('center_axis',(1.3975884060303E-16,1.,1.15290108754615E-15));
#518=DIRECTION('ref_axis',(1.,0.,3.02673539340947E-31));
#519=DIRECTION('',(0.,1.,1.34572487833352E-15));
#520=DIRECTION('center_axis',(0.,1.,1.34572487833352E-15));
#521=DIRECTION('ref_axis',(1.,0.,3.02673539340947E-31));
#522=DIRECTION('center_axis',(-1.3975884060303E-16,-1.,-1.15290108754615E-15));
#523=DIRECTION('ref_axis',(1.,0.,3.02673539340947E-31));
#524=DIRECTION('center_axis',(1.3975884060303E-16,1.,1.15290108754615E-15));
#525=DIRECTION('ref_axis',(1.,0.,3.02673539340947E-31));
#526=DIRECTION('',(0.,1.,1.34572487833352E-15));
#527=DIRECTION('center_axis',(0.,1.,1.34572487833352E-15));
#528=DIRECTION('ref_axis',(1.,0.,3.02673539340947E-31));
#529=DIRECTION('center_axis',(-1.3975884060303E-16,-1.,-1.15290108754615E-15));
#530=DIRECTION('ref_axis',(1.,0.,3.02673539340947E-31));
#531=DIRECTION('center_axis',(1.3975884060303E-16,1.,1.15290108754615E-15));
#532=DIRECTION('ref_axis',(1.,0.,3.02673539340947E-31));
#533=DIRECTION('center_axis',(-3.02673539340947E-31,-1.34572487833352E-15,
1.));
#534=DIRECTION('ref_axis',(1.,-2.24914872433482E-16,-6.57904951744021E-47));
#535=DIRECTION('',(-1.,1.3975884060303E-16,-1.14596590574401E-31));
#536=DIRECTION('',(0.,1.,1.34572487833352E-15));
#537=DIRECTION('',(1.,-1.3975884060303E-16,1.14596590574401E-31));
#538=DIRECTION('',(0.,1.,1.34572487833352E-15));
#539=DIRECTION('center_axis',(0.,1.,1.34572487833352E-15));
#540=DIRECTION('ref_axis',(5.9674487573602E-15,1.34572487833352E-15,-1.));
#541=DIRECTION('center_axis',(-1.3975884060303E-16,-1.,-1.15290108754615E-15));
#542=DIRECTION('ref_axis',(-0.714142842854286,-9.42007414833466E-16,0.699999999999999));
#543=DIRECTION('center_axis',(1.3975884060303E-16,1.,1.15290108754615E-15));
#544=DIRECTION('ref_axis',(-0.714142842854286,-9.42007414833466E-16,0.699999999999999));
#545=DIRECTION('center_axis',(-0.847121921382137,7.44106371343013E-16,-0.531398579518084));
#546=DIRECTION('ref_axis',(-0.531398579518084,-9.02380135074106E-16,0.847121921382137));
#547=DIRECTION('',(0.531398579518084,9.02380135074106E-16,-0.847121921382137));
#548=DIRECTION('',(-4.62244552631188E-17,1.,1.47396728348555E-15));
#549=DIRECTION('',(-0.531398579518084,-9.02380135074106E-16,0.847121921382137));
#550=DIRECTION('',(-5.49082601619255E-17,-1.,-1.31274792101915E-15));
#551=DIRECTION('center_axis',(-0.531398579518084,-1.08287936969029E-15,
0.847121921382137));
#552=DIRECTION('ref_axis',(0.847121921382137,-7.31042777828656E-16,0.531398579518083));
#553=DIRECTION('',(-0.847121921382137,7.31042777828656E-16,-0.531398579518083));
#554=DIRECTION('',(5.49082601619255E-17,1.,1.31274792101915E-15));
#555=DIRECTION('',(0.847121921382137,-7.31042777828656E-16,0.531398579518083));
#556=DIRECTION('',(-2.16127622628326E-16,-1.,-1.41388063644419E-15));
#557=DIRECTION('center_axis',(0.223250116010951,-1.42644649444913E-15,0.974761194191222));
#558=DIRECTION('ref_axis',(-0.974761194191222,-1.2115380717884E-16,0.223250116010951));
#559=DIRECTION('',(0.974761194191222,1.2115380717884E-16,-0.223250116010951));
#560=DIRECTION('',(-8.49515836826038E-17,-1.,-1.44392395996487E-15));
#561=DIRECTION('',(-0.974761194191222,-1.2115380717884E-16,0.223250116010951));
#562=DIRECTION('center_axis',(-1.3975884060303E-16,-1.,-1.15290108754615E-15));
#563=DIRECTION('ref_axis',(0.974761194191222,1.2115380717884E-16,-0.223250116010951));
#564=DIRECTION('',(-0.531398579518084,-9.02380135074106E-16,0.847121921382137));
#565=DIRECTION('',(-0.974761194191222,-1.2115380717884E-16,0.223250116010951));
#566=DIRECTION('',(-0.847146154340425,7.3100162502948E-16,-0.531359946915675));
#567=DIRECTION('',(0.223250116010951,-1.15500441825903E-15,0.974761194191222));
#568=DIRECTION('',(0.531437211015333,9.02346795745728E-16,-0.847097686662078));
#569=DIRECTION('',(0.974761194191222,1.2115380717884E-16,-0.223250116010951));
#570=DIRECTION('',(0.847121921382138,-7.31042777828655E-16,0.531398579518082));
#571=DIRECTION('',(0.974761194191222,1.2115380717884E-16,-0.223250116010951));
#572=DIRECTION('',(0.223250116010951,-1.15500441825903E-15,0.974761194191222));
#573=DIRECTION('center_axis',(1.3975884060303E-16,1.,1.15290108754615E-15));
#574=DIRECTION('ref_axis',(0.974761194191222,1.2115380717884E-16,-0.223250116010951));
#575=DIRECTION('center_axis',(1.3975884060303E-16,1.,1.15290108754615E-15));
#576=DIRECTION('ref_axis',(0.974761194191222,1.2115380717884E-16,-0.223250116010951));
#577=DIRECTION('center_axis',(0.847097686662078,-7.441557540744E-16,0.531437211015333));
#578=DIRECTION('ref_axis',(0.531437211015333,-1.06350707764886E-15,-0.847097686662078));
#579=DIRECTION('',(-0.531437211015333,-9.02346795745728E-16,0.847097686662078));
#580=DIRECTION('',(-4.62364200824981E-17,1.,1.473970023795E-15));
#581=DIRECTION('',(-5.49082601619255E-17,-1.,-1.31274792101915E-15));
#582=DIRECTION('center_axis',(0.531359946915675,1.08291330270489E-15,-0.847146154340425));
#583=DIRECTION('ref_axis',(-0.847146154340425,1.00070657555154E-15,-0.531359946915675));
#584=DIRECTION('',(0.847146154340425,-7.3100162502948E-16,0.531359946915675));
#585=DIRECTION('',(5.49082601619252E-17,1.,1.31274792101915E-15));
#586=DIRECTION('',(-2.16139587447707E-16,-1.,-1.41387789613474E-15));
#587=DIRECTION('center_axis',(-0.223250116010951,1.42644649444913E-15,-0.974761194191222));
#588=DIRECTION('ref_axis',(0.974761194191222,1.2115380717884E-16,-0.223250116010951));
#589=DIRECTION('',(0.974761194191222,1.2115380717884E-16,-0.223250116010951));
#590=DIRECTION('',(-8.49515836826038E-17,-1.,-1.44392395996487E-15));
#591=DIRECTION('center_axis',(-1.3975884060303E-16,-1.,-1.15290108754615E-15));
#592=DIRECTION('ref_axis',(0.974761194191222,1.2115380717884E-16,-0.223250116010951));
#593=DIRECTION('',(-0.223250116010951,1.15500441825903E-15,-0.974761194191222));
#594=DIRECTION('',(0.974761194191222,1.2115380717884E-16,-0.223250116010951));
#595=DIRECTION('',(0.847121921382138,-7.31042777828655E-16,0.531398579518082));
#596=DIRECTION('',(0.223250116010951,-1.15500441825903E-15,0.974761194191222));
#597=DIRECTION('',(-0.974761194191222,-1.2115380717884E-16,0.223250116010951));
#598=DIRECTION('',(0.531398579518084,9.02380135074106E-16,-0.847121921382137));
#599=DIRECTION('center_axis',(1.3975884060303E-16,1.,1.15290108754615E-15));
#600=DIRECTION('ref_axis',(0.974761194191222,1.2115380717884E-16,-0.223250116010951));
#601=DIRECTION('center_axis',(1.3975884060303E-16,1.,1.15290108754615E-15));
#602=DIRECTION('ref_axis',(0.974761194191222,1.2115380717884E-16,-0.223250116010951));
#603=DIRECTION('center_axis',(-8.49515836826038E-17,-1.,-1.44392395996487E-15));
#604=DIRECTION('ref_axis',(0.974761194191222,2.39548684414259E-16,-0.223250116010951));
#605=DIRECTION('',(8.49515836826038E-17,1.,1.44392395996487E-15));
#606=DIRECTION('center_axis',(-8.49515836826038E-17,-1.,-1.44392395996487E-15));
#607=DIRECTION('ref_axis',(0.974761194191222,2.39548684414259E-16,-0.223250116010951));
#608=DIRECTION('',(8.49515836826038E-17,1.,1.44392395996487E-15));
#609=DIRECTION('center_axis',(0.223250116010951,-1.42644649444913E-15,0.974761194191222));
#610=DIRECTION('ref_axis',(-0.974761194191222,-1.2115380717884E-16,0.223250116010951));
#611=DIRECTION('',(-8.49515836826038E-17,-1.,-1.44392395996487E-15));
#612=DIRECTION('center_axis',(0.847121921382137,-8.39263490051121E-16,0.531398579518084));
#613=DIRECTION('ref_axis',(-0.531398579518083,-9.02380135074106E-16,0.847121921382137));
#614=DIRECTION('center_axis',(0.974761194191222,2.39548684414259E-16,-0.223250116010951));
#615=DIRECTION('ref_axis',(0.223250116010951,-1.15500441825903E-15,0.974761194191222));
#616=DIRECTION('center_axis',(-0.223250116010951,1.42644649444913E-15,-0.974761194191222));
#617=DIRECTION('ref_axis',(0.974761194191222,1.2115380717884E-16,-0.223250116010951));
#618=DIRECTION('',(-8.49515836826038E-17,-1.,-1.44392395996487E-15));
#619=DIRECTION('center_axis',(0.531398579518082,1.1780364883984E-15,-0.847121921382137));
#620=DIRECTION('ref_axis',(0.847121921382138,-7.31042777828655E-16,0.531398579518082));
#621=DIRECTION('center_axis',(-0.974761194191222,-2.39548684414259E-16,
0.223250116010951));
#622=DIRECTION('ref_axis',(-0.223250116010951,1.15500441825903E-15,-0.974761194191222));
#623=DIRECTION('',(1.81831284755332E-15,1.74219716968701E-18,-0.999999999999999));
#624=DIRECTION('',(-1.,-7.63278329429795E-17,-2.09554595897998E-15));
#625=CARTESIAN_POINT('',(0.,0.,0.));
#626=CARTESIAN_POINT('',(0.,0.,0.));
#627=CARTESIAN_POINT('Origin',(80.4767485762416,1.54517756015989,27.3));
#628=CARTESIAN_POINT('',(74.9767485762416,4.54517756015989,27.3));
#629=CARTESIAN_POINT('',(75.5249995025871,4.54517756015989,29.6937796707278));
#630=CARTESIAN_POINT('Origin',(80.4767485762416,4.54517756015989,27.3));
#631=CARTESIAN_POINT('',(74.9767485762416,1.54517756015989,27.3));
#632=CARTESIAN_POINT('',(74.9767485762416,1.54517756015989,27.3));
#633=CARTESIAN_POINT('',(75.5249995025871,1.54517756015989,29.6937796707278));
#634=CARTESIAN_POINT('Origin',(80.4767485762416,1.54517756015989,27.3));
#635=CARTESIAN_POINT('',(75.5249995025871,1.54517756015989,29.6937796707278));
#636=CARTESIAN_POINT('Origin',(74.1745171764262,1.54517756015989,30.3466176956063));
#637=CARTESIAN_POINT('',(72.824039076762,4.54517756015989,30.999464463483));
#638=CARTESIAN_POINT('Origin',(74.1745171764262,4.54517756015988,30.3466176956063));
#639=CARTESIAN_POINT('',(72.824039076762,1.54517756015989,30.999464463483));
#640=CARTESIAN_POINT('Origin',(74.1745171764262,1.54517756015989,30.3466176956063));
#641=CARTESIAN_POINT('',(72.824039076762,1.54517756015989,30.999464463483));
#642=CARTESIAN_POINT('Origin',(80.4767485762416,1.54517756015989,27.3));
#643=CARTESIAN_POINT('',(71.9767485762416,4.54517756015989,27.3));
#644=CARTESIAN_POINT('Origin',(80.4767485762416,4.54517756015989,27.3));
#645=CARTESIAN_POINT('',(71.9767485762416,1.54517756015989,27.3));
#646=CARTESIAN_POINT('Origin',(80.4767485762416,1.54517756015989,27.3));
#647=CARTESIAN_POINT('',(71.9767485762416,1.54517756015989,27.3));
#648=CARTESIAN_POINT('Origin',(73.4767485762416,1.54517756015989,27.3));
#649=CARTESIAN_POINT('Origin',(73.4767485762416,4.54517756015989,27.3));
#650=CARTESIAN_POINT('Origin',(73.4767485762416,1.54517756015989,27.3));
#651=CARTESIAN_POINT('Origin',(77.6201772048245,1.54517756015989,30.1));
#652=CARTESIAN_POINT('',(83.3333199476587,4.54517756015989,30.1));
#653=CARTESIAN_POINT('',(77.6201772048245,4.54517756015989,30.1));
#654=CARTESIAN_POINT('',(88.160427484137,4.54517756015989,30.1));
#655=CARTESIAN_POINT('',(83.3333199476587,1.54517756015989,30.1));
#656=CARTESIAN_POINT('',(83.3333199476587,1.54517756015989,30.1));
#657=CARTESIAN_POINT('',(77.6201772048245,1.54517756015989,30.1));
#658=CARTESIAN_POINT('',(88.160427484137,1.54517756015989,30.1));
#659=CARTESIAN_POINT('',(77.6201772048245,1.54517756015989,30.1));
#660=CARTESIAN_POINT('Origin',(80.4767485762416,1.54517756015989,27.3));
#661=CARTESIAN_POINT('Origin',(80.4767485762416,4.54517756015989,27.3));
#662=CARTESIAN_POINT('Origin',(80.4767485762416,1.54517756015989,27.3));
#663=CARTESIAN_POINT('Origin',(124.269756930843,1.54517756015989,19.1823253912989));
#664=CARTESIAN_POINT('',(122.288773728759,4.54517756015989,22.3402832049918));
#665=CARTESIAN_POINT('',(124.269756930843,4.54517756015989,19.1823253912989));
#666=CARTESIAN_POINT('',(119.771923982686,4.54517756015989,26.3524854857305));
#667=CARTESIAN_POINT('',(122.288773728759,1.54517756015989,22.3402832049918));
#668=CARTESIAN_POINT('',(122.288773728759,3.04517756015989,22.3402832049918));
#669=CARTESIAN_POINT('',(124.269756930843,1.54517756015989,19.1823253912989));
#670=CARTESIAN_POINT('',(119.771923982686,1.54517756015989,26.3524854857305));
#671=CARTESIAN_POINT('',(124.269756930843,3.04517756015989,19.1823253912989));
#672=CARTESIAN_POINT('Origin',(120.279522684661,1.5451775601599,13.5674324572708));
#673=CARTESIAN_POINT('',(123.437480498354,4.5451775601599,15.548415659354));
#674=CARTESIAN_POINT('',(120.279522684661,4.5451775601599,13.5674324572708));
#675=CARTESIAN_POINT('',(114.688341497076,4.54517756015991,10.0600911101559));
#676=CARTESIAN_POINT('',(123.437480498354,1.54517756015989,15.548415659354));
#677=CARTESIAN_POINT('',(123.437480498354,3.0451775601599,15.548415659354));
#678=CARTESIAN_POINT('',(120.279522684661,1.5451775601599,13.5674324572708));
#679=CARTESIAN_POINT('',(114.688341497076,1.5451775601599,10.0600911101559));
#680=CARTESIAN_POINT('',(120.279522684661,3.0451775601599,13.5674324572708));
#681=CARTESIAN_POINT('Origin',(124.858244236647,4.54517756015989,21.751795899187));
#682=CARTESIAN_POINT('',(91.0288946722666,4.54517756015989,29.4997512546414));
#683=CARTESIAN_POINT('',(83.9409428749395,4.54517756015988,31.1231089246667));
#684=CARTESIAN_POINT('',(91.0288946722666,1.54517756015989,29.4997512546414));
#685=CARTESIAN_POINT('',(91.0288946722666,4.54517756015989,29.4997512546414));
#686=CARTESIAN_POINT('',(83.9409428749395,1.54517756015989,31.1231089246667));
#687=CARTESIAN_POINT('Origin',(98.7006777634494,1.54517756015989,23.1261630341211));
#688=CARTESIAN_POINT('',(89.010104438535,1.54517756015988,32.7179786409794));
#689=CARTESIAN_POINT('',(89.010104438535,1.54517756015988,32.7179786409794));
#690=CARTESIAN_POINT('',(76.3315419556247,1.54517756015987,35.6217570864379));
#691=CARTESIAN_POINT('',(89.010104438535,1.54517756015988,32.7179786409794));
#692=CARTESIAN_POINT('',(71.288000060394,1.54517756015988,32.4582697236187));
#693=CARTESIAN_POINT('',(81.5458405543457,1.54517756015988,38.8923490762889));
#694=CARTESIAN_POINT('',(69.9589063990603,1.5451775601599,26.6551420582786));
#695=CARTESIAN_POINT('',(71.4256252789034,1.54517756015989,33.0591729828963));
#696=CARTESIAN_POINT('',(73.1228537589197,1.54517756015989,21.6118887186473));
#697=CARTESIAN_POINT('',(74.8119476397735,1.5451775601599,18.9195151148254));
#698=CARTESIAN_POINT('',(85.80141624183,1.54517756015989,18.7081102731888));
#699=CARTESIAN_POINT('',(71.9433927139483,1.54517756015989,21.8820213590205));
#700=CARTESIAN_POINT('',(89.019643628168,1.5451775601599,20.7269005069204));
#701=CARTESIAN_POINT('',(85.80141624183,1.54517756015989,18.7081102731888));
#702=CARTESIAN_POINT('',(80.4439182110589,1.54517756015989,22.6910038233601));
#703=CARTESIAN_POINT('',(124.679644246966,1.54517756015989,20.9719873941113));
#704=CARTESIAN_POINT('',(118.008556454708,1.54517756015989,18.7201744413649));
#705=CARTESIAN_POINT('Origin',(119.470698245995,1.54517756015989,18.3852992673484));
#706=CARTESIAN_POINT('',(108.257442610691,1.54517756015989,20.9373716936879));
#707=CARTESIAN_POINT('Origin',(109.719584401978,1.54517756015989,20.6024965196714));
#708=CARTESIAN_POINT('Origin',(69.9589063990603,1.5451775601599,26.6551420582786));
#709=CARTESIAN_POINT('',(73.1228537589197,4.5451775601599,21.6118887186473));
#710=CARTESIAN_POINT('',(69.9589063990603,4.54517756015989,26.6551420582786));
#711=CARTESIAN_POINT('',(74.8119476397735,4.5451775601599,18.9195151148254));
#712=CARTESIAN_POINT('',(73.1228537589197,3.0451775601599,21.6118887186473));
#713=CARTESIAN_POINT('',(69.9589063990603,3.0451775601599,26.6551420582786));
#714=CARTESIAN_POINT('Origin',(76.3315419556247,1.54517756015987,35.6217570864379));
#715=CARTESIAN_POINT('',(71.288000060394,4.54517756015989,32.4582697236187));
#716=CARTESIAN_POINT('',(76.3315419556247,4.54517756015988,35.6217570864379));
#717=CARTESIAN_POINT('',(81.5458405543457,4.54517756015988,38.8923490762889));
#718=CARTESIAN_POINT('',(71.288000060394,3.04517756015988,32.4582697236187));
#719=CARTESIAN_POINT('',(76.3315419556247,3.04517756015988,35.6217570864379));
#720=CARTESIAN_POINT('Origin',(71.9433927139483,4.5451775601599,21.8820213590205));
#721=CARTESIAN_POINT('',(85.80141624183,4.5451775601599,18.7081102731888));
#722=CARTESIAN_POINT('',(71.9433927139483,4.5451775601599,21.8820213590205));
#723=CARTESIAN_POINT('',(85.80141624183,4.5451775601599,18.7081102731888));
#724=CARTESIAN_POINT('Origin',(98.7006777634494,4.54517756015989,23.1261630341212));
#725=CARTESIAN_POINT('',(124.679644246966,4.54517756015989,20.9719873941113));
#726=CARTESIAN_POINT('',(89.019643628168,4.5451775601599,20.7269005069204));
#727=CARTESIAN_POINT('',(80.4439182110589,4.5451775601599,22.6910038233601));
#728=CARTESIAN_POINT('',(85.80141624183,4.5451775601599,18.7081102731888));
#729=CARTESIAN_POINT('',(71.4256252789034,4.54517756015989,33.0591729828963));
#730=CARTESIAN_POINT('',(89.010104438535,4.54517756015988,32.7179786409794));
#731=CARTESIAN_POINT('',(89.010104438535,4.54517756015988,32.7179786409794));
#732=CARTESIAN_POINT('',(89.010104438535,4.54517756015988,32.7179786409794));
#733=CARTESIAN_POINT('',(118.008556454708,4.5451775601599,18.7201744413649));
#734=CARTESIAN_POINT('Origin',(119.470698245995,4.5451775601599,18.3852992673485));
#735=CARTESIAN_POINT('',(108.257442610691,4.54517756015989,20.9373716936879));
#736=CARTESIAN_POINT('Origin',(109.719584401978,4.54517756015989,20.6024965196714));
#737=CARTESIAN_POINT('Origin',(119.470698245995,4.5451775601599,18.3852992673485));
#738=CARTESIAN_POINT('',(118.008556454708,4.5451775601599,18.7201744413649));
#739=CARTESIAN_POINT('Origin',(109.719584401978,4.54517756015989,20.6024965196714));
#740=CARTESIAN_POINT('',(108.257442610691,4.54517756015989,20.9373716936879));
#741=CARTESIAN_POINT('Origin',(89.010104438535,4.54517756015988,32.7179786409794));
#742=CARTESIAN_POINT('',(89.010104438535,4.54517756015988,32.7179786409794));
#743=CARTESIAN_POINT('Origin',(91.0288946722666,4.54517756015989,29.4997512546414));
#744=CARTESIAN_POINT('Origin',(122.848993192549,4.5451775601599,12.978945151466));
#745=CARTESIAN_POINT('Origin',(89.019643628168,4.5451775601599,20.7269005069204));
#746=CARTESIAN_POINT('',(89.019643628168,4.5451775601599,20.7269005069204));
#747=CARTESIAN_POINT('Origin',(85.80141624183,4.5451775601599,18.7081102731888));
#748=CARTESIAN_POINT('Origin',(72.2277973280796,4.54517756015988,36.561640074844));
#749=CARTESIAN_POINT('',(-3.41406054140139,-1.57324283930655,-26.3510259497562));
#750=UNCERTAINTY_MEASURE_WITH_UNIT(LENGTH_MEASURE(0.01),#756,
'DISTANCE_ACCURACY_VALUE',
'Maximum model space distance between geometric entities at asserted c
onnectivities');
#751=UNCERTAINTY_MEASURE_WITH_UNIT(LENGTH_MEASURE(0.01),#756,
'DISTANCE_ACCURACY_VALUE',
'Maximum model space distance between geometric entities at asserted c
onnectivities');
#752=UNCERTAINTY_MEASURE_WITH_UNIT(LENGTH_MEASURE(0.01),#756,
'DISTANCE_ACCURACY_VALUE',
'Maximum model space distance between geometric entities at asserted c
onnectivities');
#753=(
GEOMETRIC_REPRESENTATION_CONTEXT(3)
GLOBAL_UNCERTAINTY_ASSIGNED_CONTEXT((#750))
GLOBAL_UNIT_ASSIGNED_CONTEXT((#756,#758,#759))
REPRESENTATION_CONTEXT('','3D')
);
#754=(
GEOMETRIC_REPRESENTATION_CONTEXT(3)
GLOBAL_UNCERTAINTY_ASSIGNED_CONTEXT((#751))
GLOBAL_UNIT_ASSIGNED_CONTEXT((#756,#758,#759))
REPRESENTATION_CONTEXT('','3D')
);
#755=(
GEOMETRIC_REPRESENTATION_CONTEXT(3)
GLOBAL_UNCERTAINTY_ASSIGNED_CONTEXT((#752))
GLOBAL_UNIT_ASSIGNED_CONTEXT((#756,#758,#759))
REPRESENTATION_CONTEXT('','3D')
);
#756=(
LENGTH_UNIT()
NAMED_UNIT(*)
SI_UNIT(.MILLI.,.METRE.)
);
#757=(
LENGTH_UNIT()
NAMED_UNIT(*)
SI_UNIT($,.METRE.)
);
#758=(
NAMED_UNIT(*)
PLANE_ANGLE_UNIT()
SI_UNIT($,.RADIAN.)
);
#759=(
NAMED_UNIT(*)
SI_UNIT($,.STERADIAN.)
SOLID_ANGLE_UNIT()
);
#760=SHAPE_DEFINITION_REPRESENTATION(#762,#765);
#761=SHAPE_DEFINITION_REPRESENTATION(#763,#766);
#762=PRODUCT_DEFINITION_SHAPE('',$,#768);
#763=PRODUCT_DEFINITION_SHAPE('',$,#769);
#764=PRODUCT_DEFINITION_SHAPE($,$,#14);
#765=SHAPE_REPRESENTATION('',(#462,#500),#753);
#766=SHAPE_REPRESENTATION('',(#463),#754);
#767=PRODUCT_DEFINITION_CONTEXT('part definition',#775,'design');
#768=PRODUCT_DEFINITION('Arms','Arms v1',#770,#767);
#769=PRODUCT_DEFINITION('LowerArm','LowerArm',#771,#767);
#770=PRODUCT_DEFINITION_FORMATION('',$,#777);
#771=PRODUCT_DEFINITION_FORMATION('',$,#778);
#772=PRODUCT_RELATED_PRODUCT_CATEGORY('Arms v1','Arms v1',(#777));
#773=PRODUCT_RELATED_PRODUCT_CATEGORY('LowerArm','LowerArm',(#778));
#774=APPLICATION_PROTOCOL_DEFINITION('international standard',
'automotive_design',2009,#775);
#775=APPLICATION_CONTEXT(
'Core Data for Automotive Mechanical Design Process');
#776=PRODUCT_CONTEXT('part definition',#775,'mechanical');
#777=PRODUCT('Arms','Arms v1',$,(#776));
#778=PRODUCT('LowerArm','LowerArm',$,(#776));
#779=PRESENTATION_STYLE_ASSIGNMENT((#780));
#780=SURFACE_STYLE_USAGE(.BOTH.,#781);
#781=SURFACE_SIDE_STYLE('',(#782));
#782=SURFACE_STYLE_FILL_AREA(#783);
#783=FILL_AREA_STYLE('Steel - Satin',(#784));
#784=FILL_AREA_STYLE_COLOUR('Steel - Satin',#785);
#785=COLOUR_RGB('Steel - Satin',0.627450980392157,0.627450980392157,0.627450980392157);
ENDSEC;
END-ISO-10303-21;
