ISO-10303-21;
HEADER;
/* Generated by software containing ST-Developer
 * from STEP Tools, Inc. (www.steptools.com) 
 */

FILE_DESCRIPTION(
/* description */ (''),
/* implementation_level */ '2;1');

FILE_NAME(
/* name */ 'lower arm D cut.step',
/* time_stamp */ '2026-08-16T13:05:40+02:00',
/* author */ (''),
/* organization */ (''),
/* preprocessor_version */ 'ST-DEVELOPER v20.1',
/* originating_system */ 'Autodesk Translation Framework v15.8.0.0',
/* authorisation */ '');

FILE_SCHEMA (('AUTOMOTIVE_DESIGN { 1 0 10303 214 3 1 1 }'));
ENDSEC;

DATA;
#10=MECHANICAL_DESIGN_GEOMETRIC_PRESENTATION_REPRESENTATION('',(#17),#977);
#11=ITEM_DEFINED_TRANSFORMATION($,$,#605,#652);
#12=(
REPRESENTATION_RELATIONSHIP($,$,#988,#987)
REPRESENTATION_RELATIONSHIP_WITH_TRANSFORMATION(#11)
SHAPE_REPRESENTATION_RELATIONSHIP()
);
#13=CONTEXT_DEPENDENT_SHAPE_REPRESENTATION(#12,#986);
#14=NEXT_ASSEMBLY_USAGE_OCCURRENCE('LowerArm:1','LowerArm:1',
'LowerArm:1',#990,#991,'LowerArm:1');
#15=SHAPE_REPRESENTATION_RELATIONSHIP('SRR','None',#988,#16);
#16=ADVANCED_BREP_SHAPE_REPRESENTATION('',(#18),#976);
#17=STYLED_ITEM('',(#1001),#18);
#18=MANIFOLD_SOLID_BREP('Body1',#591);
#19=FACE_BOUND('',#95,.T.);
#20=FACE_BOUND('',#96,.T.);
#21=FACE_BOUND('',#97,.T.);
#22=FACE_BOUND('',#98,.T.);
#23=FACE_BOUND('',#99,.T.);
#24=FACE_BOUND('',#100,.T.);
#25=FACE_BOUND('',#101,.T.);
#26=FACE_BOUND('',#102,.T.);
#27=FACE_BOUND('',#103,.T.);
#28=FACE_BOUND('',#116,.T.);
#29=FACE_BOUND('',#117,.T.);
#30=FACE_BOUND('',#118,.T.);
#31=FACE_BOUND('',#119,.T.);
#32=FACE_BOUND('',#120,.T.);
#33=FACE_BOUND('',#121,.T.);
#34=FACE_BOUND('',#122,.T.);
#35=FACE_BOUND('',#123,.T.);
#36=FACE_BOUND('',#124,.T.);
#37=PLANE('',#612);
#38=PLANE('',#613);
#39=PLANE('',#614);
#40=PLANE('',#615);
#41=PLANE('',#616);
#42=PLANE('',#617);
#43=PLANE('',#618);
#44=PLANE('',#619);
#45=PLANE('',#620);
#46=PLANE('',#628);
#47=PLANE('',#641);
#48=PLANE('',#642);
#49=PLANE('',#643);
#50=PLANE('',#644);
#51=PLANE('',#645);
#52=PLANE('',#647);
#53=PLANE('',#648);
#54=PLANE('',#650);
#55=PLANE('',#651);
#56=FACE_OUTER_BOUND('',#84,.T.);
#57=FACE_OUTER_BOUND('',#85,.T.);
#58=FACE_OUTER_BOUND('',#86,.T.);
#59=FACE_OUTER_BOUND('',#87,.T.);
#60=FACE_OUTER_BOUND('',#88,.T.);
#61=FACE_OUTER_BOUND('',#89,.T.);
#62=FACE_OUTER_BOUND('',#90,.T.);
#63=FACE_OUTER_BOUND('',#91,.T.);
#64=FACE_OUTER_BOUND('',#92,.T.);
#65=FACE_OUTER_BOUND('',#93,.T.);
#66=FACE_OUTER_BOUND('',#94,.T.);
#67=FACE_OUTER_BOUND('',#104,.T.);
#68=FACE_OUTER_BOUND('',#105,.T.);
#69=FACE_OUTER_BOUND('',#106,.T.);
#70=FACE_OUTER_BOUND('',#107,.T.);
#71=FACE_OUTER_BOUND('',#108,.T.);
#72=FACE_OUTER_BOUND('',#109,.T.);
#73=FACE_OUTER_BOUND('',#110,.T.);
#74=FACE_OUTER_BOUND('',#111,.T.);
#75=FACE_OUTER_BOUND('',#112,.T.);
#76=FACE_OUTER_BOUND('',#113,.T.);
#77=FACE_OUTER_BOUND('',#114,.T.);
#78=FACE_OUTER_BOUND('',#115,.T.);
#79=FACE_OUTER_BOUND('',#125,.T.);
#80=FACE_OUTER_BOUND('',#126,.T.);
#81=FACE_OUTER_BOUND('',#127,.T.);
#82=FACE_OUTER_BOUND('',#128,.T.);
#83=FACE_OUTER_BOUND('',#129,.T.);
#84=EDGE_LOOP('',(#398,#399,#400,#401));
#85=EDGE_LOOP('',(#402,#403,#404,#405));
#86=EDGE_LOOP('',(#406,#407,#408,#409));
#87=EDGE_LOOP('',(#410,#411,#412,#413));
#88=EDGE_LOOP('',(#414,#415,#416,#417));
#89=EDGE_LOOP('',(#418,#419,#420,#421));
#90=EDGE_LOOP('',(#422,#423,#424,#425));
#91=EDGE_LOOP('',(#426,#427,#428,#429));
#92=EDGE_LOOP('',(#430,#431,#432,#433));
#93=EDGE_LOOP('',(#434,#435,#436,#437));
#94=EDGE_LOOP('',(#438,#439,#440,#441,#442,#443,#444,#445,#446,#447,#448,
#449,#450,#451,#452,#453));
#95=EDGE_LOOP('',(#454));
#96=EDGE_LOOP('',(#455));
#97=EDGE_LOOP('',(#456,#457));
#98=EDGE_LOOP('',(#458));
#99=EDGE_LOOP('',(#459));
#100=EDGE_LOOP('',(#460));
#101=EDGE_LOOP('',(#461));
#102=EDGE_LOOP('',(#462));
#103=EDGE_LOOP('',(#463));
#104=EDGE_LOOP('',(#464,#465,#466,#467));
#105=EDGE_LOOP('',(#468,#469,#470,#471));
#106=EDGE_LOOP('',(#472,#473,#474,#475));
#107=EDGE_LOOP('',(#476,#477,#478,#479));
#108=EDGE_LOOP('',(#480,#481,#482,#483));
#109=EDGE_LOOP('',(#484,#485,#486,#487));
#110=EDGE_LOOP('',(#488,#489,#490,#491));
#111=EDGE_LOOP('',(#492,#493,#494,#495));
#112=EDGE_LOOP('',(#496,#497,#498,#499));
#113=EDGE_LOOP('',(#500,#501,#502,#503));
#114=EDGE_LOOP('',(#504,#505,#506,#507));
#115=EDGE_LOOP('',(#508,#509,#510,#511,#512,#513,#514,#515,#516,#517,#518,
#519,#520,#521,#522,#523));
#116=EDGE_LOOP('',(#524));
#117=EDGE_LOOP('',(#525));
#118=EDGE_LOOP('',(#526));
#119=EDGE_LOOP('',(#527));
#120=EDGE_LOOP('',(#528));
#121=EDGE_LOOP('',(#529));
#122=EDGE_LOOP('',(#530));
#123=EDGE_LOOP('',(#531));
#124=EDGE_LOOP('',(#532,#533));
#125=EDGE_LOOP('',(#534,#535,#536,#537));
#126=EDGE_LOOP('',(#538,#539,#540,#541));
#127=EDGE_LOOP('',(#542,#543,#544,#545));
#128=EDGE_LOOP('',(#546,#547,#548,#549));
#129=EDGE_LOOP('',(#550,#551,#552,#553));
#130=LINE('',#817,#190);
#131=LINE('',#823,#191);
#132=LINE('',#828,#192);
#133=LINE('',#830,#193);
#134=LINE('',#832,#194);
#135=LINE('',#833,#195);
#136=LINE('',#836,#196);
#137=LINE('',#838,#197);
#138=LINE('',#839,#198);
#139=LINE('',#842,#199);
#140=LINE('',#844,#200);
#141=LINE('',#845,#201);
#142=LINE('',#849,#202);
#143=LINE('',#851,#203);
#144=LINE('',#853,#204);
#145=LINE('',#854,#205);
#146=LINE('',#858,#206);
#147=LINE('',#860,#207);
#148=LINE('',#862,#208);
#149=LINE('',#863,#209);
#150=LINE('',#865,#210);
#151=LINE('',#866,#211);
#152=LINE('',#869,#212);
#153=LINE('',#871,#213);
#154=LINE('',#872,#214);
#155=LINE('',#875,#215);
#156=LINE('',#877,#216);
#157=LINE('',#878,#217);
#158=LINE('',#881,#218);
#159=LINE('',#883,#219);
#160=LINE('',#885,#220);
#161=LINE('',#886,#221);
#162=LINE('',#888,#222);
#163=LINE('',#890,#223);
#164=LINE('',#892,#224);
#165=LINE('',#893,#225);
#166=LINE('',#897,#226);
#167=LINE('',#912,#227);
#168=LINE('',#913,#228);
#169=LINE('',#916,#229);
#170=LINE('',#920,#230);
#171=LINE('',#924,#231);
#172=LINE('',#928,#232);
#173=LINE('',#932,#233);
#174=LINE('',#936,#234);
#175=LINE('',#940,#235);
#176=LINE('',#941,#236);
#177=LINE('',#945,#237);
#178=LINE('',#946,#238);
#179=LINE('',#947,#239);
#180=LINE('',#950,#240);
#181=LINE('',#951,#241);
#182=LINE('',#954,#242);
#183=LINE('',#955,#243);
#184=LINE('',#957,#244);
#185=LINE('',#958,#245);
#186=LINE('',#959,#246);
#187=LINE('',#963,#247);
#188=LINE('',#966,#248);
#189=LINE('',#967,#249);
#190=VECTOR('',#661,1.5);
#191=VECTOR('',#668,1.5);
#192=VECTOR('',#673,10.);
#193=VECTOR('',#674,10.);
#194=VECTOR('',#675,10.);
#195=VECTOR('',#676,10.);
#196=VECTOR('',#679,10.);
#197=VECTOR('',#680,10.);
#198=VECTOR('',#681,10.);
#199=VECTOR('',#684,10.);
#200=VECTOR('',#685,10.);
#201=VECTOR('',#686,10.);
#202=VECTOR('',#689,10.);
#203=VECTOR('',#690,10.);
#204=VECTOR('',#691,10.);
#205=VECTOR('',#692,10.);
#206=VECTOR('',#695,10.);
#207=VECTOR('',#696,10.);
#208=VECTOR('',#697,10.);
#209=VECTOR('',#698,10.);
#210=VECTOR('',#701,10.);
#211=VECTOR('',#702,10.);
#212=VECTOR('',#705,10.);
#213=VECTOR('',#706,10.);
#214=VECTOR('',#707,10.);
#215=VECTOR('',#710,10.);
#216=VECTOR('',#711,10.);
#217=VECTOR('',#712,10.);
#218=VECTOR('',#715,10.);
#219=VECTOR('',#716,10.);
#220=VECTOR('',#717,10.);
#221=VECTOR('',#718,10.);
#222=VECTOR('',#719,10.);
#223=VECTOR('',#720,10.);
#224=VECTOR('',#721,10.);
#225=VECTOR('',#722,10.);
#226=VECTOR('',#725,10.);
#227=VECTOR('',#740,10.);
#228=VECTOR('',#741,10.);
#229=VECTOR('',#744,1.5);
#230=VECTOR('',#749,1.5);
#231=VECTOR('',#754,1.5);
#232=VECTOR('',#759,1.5);
#233=VECTOR('',#764,1.5);
#234=VECTOR('',#769,1.5);
#235=VECTOR('',#774,10.);
#236=VECTOR('',#775,10.);
#237=VECTOR('',#778,10.);
#238=VECTOR('',#779,10.);
#239=VECTOR('',#780,10.);
#240=VECTOR('',#783,10.);
#241=VECTOR('',#784,10.);
#242=VECTOR('',#787,10.);
#243=VECTOR('',#788,10.);
#244=VECTOR('',#791,10.);
#245=VECTOR('',#792,10.);
#246=VECTOR('',#793,10.);
#247=VECTOR('',#796,10.);
#248=VECTOR('',#801,10.);
#249=VECTOR('',#802,10.);
#250=CIRCLE('',#607,1.5);
#251=CIRCLE('',#608,1.5);
#252=CIRCLE('',#610,1.5);
#253=CIRCLE('',#611,1.5);
#254=CIRCLE('',#621,4.00000000000001);
#255=CIRCLE('',#622,1.5);
#256=CIRCLE('',#623,1.5);
#257=CIRCLE('',#624,1.5);
#258=CIRCLE('',#625,1.5);
#259=CIRCLE('',#626,1.5);
#260=CIRCLE('',#627,1.5);
#261=CIRCLE('',#630,1.5);
#262=CIRCLE('',#632,1.5);
#263=CIRCLE('',#634,1.5);
#264=CIRCLE('',#636,1.5);
#265=CIRCLE('',#638,1.5);
#266=CIRCLE('',#640,1.5);
#267=CIRCLE('',#646,4.00000000000001);
#268=VERTEX_POINT('',#814);
#269=VERTEX_POINT('',#816);
#270=VERTEX_POINT('',#820);
#271=VERTEX_POINT('',#822);
#272=VERTEX_POINT('',#826);
#273=VERTEX_POINT('',#827);
#274=VERTEX_POINT('',#829);
#275=VERTEX_POINT('',#831);
#276=VERTEX_POINT('',#835);
#277=VERTEX_POINT('',#837);
#278=VERTEX_POINT('',#841);
#279=VERTEX_POINT('',#843);
#280=VERTEX_POINT('',#847);
#281=VERTEX_POINT('',#848);
#282=VERTEX_POINT('',#850);
#283=VERTEX_POINT('',#852);
#284=VERTEX_POINT('',#856);
#285=VERTEX_POINT('',#857);
#286=VERTEX_POINT('',#859);
#287=VERTEX_POINT('',#861);
#288=VERTEX_POINT('',#868);
#289=VERTEX_POINT('',#870);
#290=VERTEX_POINT('',#874);
#291=VERTEX_POINT('',#876);
#292=VERTEX_POINT('',#880);
#293=VERTEX_POINT('',#882);
#294=VERTEX_POINT('',#884);
#295=VERTEX_POINT('',#887);
#296=VERTEX_POINT('',#889);
#297=VERTEX_POINT('',#891);
#298=VERTEX_POINT('',#894);
#299=VERTEX_POINT('',#895);
#300=VERTEX_POINT('',#898);
#301=VERTEX_POINT('',#900);
#302=VERTEX_POINT('',#902);
#303=VERTEX_POINT('',#904);
#304=VERTEX_POINT('',#906);
#305=VERTEX_POINT('',#908);
#306=VERTEX_POINT('',#911);
#307=VERTEX_POINT('',#915);
#308=VERTEX_POINT('',#919);
#309=VERTEX_POINT('',#923);
#310=VERTEX_POINT('',#927);
#311=VERTEX_POINT('',#931);
#312=VERTEX_POINT('',#935);
#313=VERTEX_POINT('',#939);
#314=VERTEX_POINT('',#943);
#315=VERTEX_POINT('',#944);
#316=VERTEX_POINT('',#949);
#317=VERTEX_POINT('',#953);
#318=VERTEX_POINT('',#960);
#319=VERTEX_POINT('',#961);
#320=EDGE_CURVE('',#268,#268,#250,.T.);
#321=EDGE_CURVE('',#268,#269,#130,.T.);
#322=EDGE_CURVE('',#269,#269,#251,.T.);
#323=EDGE_CURVE('',#270,#270,#252,.T.);
#324=EDGE_CURVE('',#270,#271,#131,.T.);
#325=EDGE_CURVE('',#271,#271,#253,.T.);
#326=EDGE_CURVE('',#272,#273,#132,.T.);
#327=EDGE_CURVE('',#274,#272,#133,.T.);
#328=EDGE_CURVE('',#275,#274,#134,.T.);
#329=EDGE_CURVE('',#275,#273,#135,.T.);
#330=EDGE_CURVE('',#273,#276,#136,.T.);
#331=EDGE_CURVE('',#277,#275,#137,.T.);
#332=EDGE_CURVE('',#277,#276,#138,.T.);
#333=EDGE_CURVE('',#276,#278,#139,.T.);
#334=EDGE_CURVE('',#279,#277,#140,.T.);
#335=EDGE_CURVE('',#278,#279,#141,.T.);
#336=EDGE_CURVE('',#280,#281,#142,.T.);
#337=EDGE_CURVE('',#282,#280,#143,.T.);
#338=EDGE_CURVE('',#283,#282,#144,.T.);
#339=EDGE_CURVE('',#281,#283,#145,.T.);
#340=EDGE_CURVE('',#284,#285,#146,.T.);
#341=EDGE_CURVE('',#286,#284,#147,.T.);
#342=EDGE_CURVE('',#287,#286,#148,.T.);
#343=EDGE_CURVE('',#287,#285,#149,.T.);
#344=EDGE_CURVE('',#285,#280,#150,.T.);
#345=EDGE_CURVE('',#282,#287,#151,.T.);
#346=EDGE_CURVE('',#288,#272,#152,.T.);
#347=EDGE_CURVE('',#288,#289,#153,.T.);
#348=EDGE_CURVE('',#274,#289,#154,.T.);
#349=EDGE_CURVE('',#290,#279,#155,.T.);
#350=EDGE_CURVE('',#290,#291,#156,.T.);
#351=EDGE_CURVE('',#278,#291,#157,.T.);
#352=EDGE_CURVE('',#289,#292,#158,.T.);
#353=EDGE_CURVE('',#292,#293,#159,.T.);
#354=EDGE_CURVE('',#293,#294,#160,.T.);
#355=EDGE_CURVE('',#294,#283,#161,.T.);
#356=EDGE_CURVE('',#286,#295,#162,.T.);
#357=EDGE_CURVE('',#295,#296,#163,.T.);
#358=EDGE_CURVE('',#296,#297,#164,.T.);
#359=EDGE_CURVE('',#297,#290,#165,.T.);
#360=EDGE_CURVE('',#298,#299,#254,.T.);
#361=EDGE_CURVE('',#299,#298,#166,.T.);
#362=EDGE_CURVE('',#300,#300,#255,.T.);
#363=EDGE_CURVE('',#301,#301,#256,.T.);
#364=EDGE_CURVE('',#302,#302,#257,.T.);
#365=EDGE_CURVE('',#303,#303,#258,.T.);
#366=EDGE_CURVE('',#304,#304,#259,.T.);
#367=EDGE_CURVE('',#305,#305,#260,.T.);
#368=EDGE_CURVE('',#294,#306,#167,.T.);
#369=EDGE_CURVE('',#281,#306,#168,.T.);
#370=EDGE_CURVE('',#305,#307,#169,.T.);
#371=EDGE_CURVE('',#307,#307,#261,.T.);
#372=EDGE_CURVE('',#304,#308,#170,.T.);
#373=EDGE_CURVE('',#308,#308,#262,.T.);
#374=EDGE_CURVE('',#303,#309,#171,.T.);
#375=EDGE_CURVE('',#309,#309,#263,.T.);
#376=EDGE_CURVE('',#302,#310,#172,.T.);
#377=EDGE_CURVE('',#310,#310,#264,.T.);
#378=EDGE_CURVE('',#301,#311,#173,.T.);
#379=EDGE_CURVE('',#311,#311,#265,.T.);
#380=EDGE_CURVE('',#300,#312,#174,.T.);
#381=EDGE_CURVE('',#312,#312,#266,.T.);
#382=EDGE_CURVE('',#313,#288,#175,.T.);
#383=EDGE_CURVE('',#292,#313,#176,.T.);
#384=EDGE_CURVE('',#314,#315,#177,.T.);
#385=EDGE_CURVE('',#296,#314,#178,.T.);
#386=EDGE_CURVE('',#315,#295,#179,.T.);
#387=EDGE_CURVE('',#306,#316,#180,.T.);
#388=EDGE_CURVE('',#316,#293,#181,.T.);
#389=EDGE_CURVE('',#291,#317,#182,.T.);
#390=EDGE_CURVE('',#317,#297,#183,.T.);
#391=EDGE_CURVE('',#317,#314,#184,.T.);
#392=EDGE_CURVE('',#315,#284,#185,.T.);
#393=EDGE_CURVE('',#316,#313,#186,.T.);
#394=EDGE_CURVE('',#318,#319,#267,.T.);
#395=EDGE_CURVE('',#319,#318,#187,.T.);
#396=EDGE_CURVE('',#318,#298,#188,.T.);
#397=EDGE_CURVE('',#319,#299,#189,.T.);
#398=ORIENTED_EDGE('',*,*,#320,.F.);
#399=ORIENTED_EDGE('',*,*,#321,.T.);
#400=ORIENTED_EDGE('',*,*,#322,.F.);
#401=ORIENTED_EDGE('',*,*,#321,.F.);
#402=ORIENTED_EDGE('',*,*,#323,.F.);
#403=ORIENTED_EDGE('',*,*,#324,.T.);
#404=ORIENTED_EDGE('',*,*,#325,.F.);
#405=ORIENTED_EDGE('',*,*,#324,.F.);
#406=ORIENTED_EDGE('',*,*,#326,.F.);
#407=ORIENTED_EDGE('',*,*,#327,.F.);
#408=ORIENTED_EDGE('',*,*,#328,.F.);
#409=ORIENTED_EDGE('',*,*,#329,.T.);
#410=ORIENTED_EDGE('',*,*,#330,.F.);
#411=ORIENTED_EDGE('',*,*,#329,.F.);
#412=ORIENTED_EDGE('',*,*,#331,.F.);
#413=ORIENTED_EDGE('',*,*,#332,.T.);
#414=ORIENTED_EDGE('',*,*,#333,.F.);
#415=ORIENTED_EDGE('',*,*,#332,.F.);
#416=ORIENTED_EDGE('',*,*,#334,.F.);
#417=ORIENTED_EDGE('',*,*,#335,.F.);
#418=ORIENTED_EDGE('',*,*,#336,.F.);
#419=ORIENTED_EDGE('',*,*,#337,.F.);
#420=ORIENTED_EDGE('',*,*,#338,.F.);
#421=ORIENTED_EDGE('',*,*,#339,.F.);
#422=ORIENTED_EDGE('',*,*,#340,.F.);
#423=ORIENTED_EDGE('',*,*,#341,.F.);
#424=ORIENTED_EDGE('',*,*,#342,.F.);
#425=ORIENTED_EDGE('',*,*,#343,.T.);
#426=ORIENTED_EDGE('',*,*,#344,.F.);
#427=ORIENTED_EDGE('',*,*,#343,.F.);
#428=ORIENTED_EDGE('',*,*,#345,.F.);
#429=ORIENTED_EDGE('',*,*,#337,.T.);
#430=ORIENTED_EDGE('',*,*,#327,.T.);
#431=ORIENTED_EDGE('',*,*,#346,.F.);
#432=ORIENTED_EDGE('',*,*,#347,.T.);
#433=ORIENTED_EDGE('',*,*,#348,.F.);
#434=ORIENTED_EDGE('',*,*,#335,.T.);
#435=ORIENTED_EDGE('',*,*,#349,.F.);
#436=ORIENTED_EDGE('',*,*,#350,.T.);
#437=ORIENTED_EDGE('',*,*,#351,.F.);
#438=ORIENTED_EDGE('',*,*,#334,.T.);
#439=ORIENTED_EDGE('',*,*,#331,.T.);
#440=ORIENTED_EDGE('',*,*,#328,.T.);
#441=ORIENTED_EDGE('',*,*,#348,.T.);
#442=ORIENTED_EDGE('',*,*,#352,.T.);
#443=ORIENTED_EDGE('',*,*,#353,.T.);
#444=ORIENTED_EDGE('',*,*,#354,.T.);
#445=ORIENTED_EDGE('',*,*,#355,.T.);
#446=ORIENTED_EDGE('',*,*,#338,.T.);
#447=ORIENTED_EDGE('',*,*,#345,.T.);
#448=ORIENTED_EDGE('',*,*,#342,.T.);
#449=ORIENTED_EDGE('',*,*,#356,.T.);
#450=ORIENTED_EDGE('',*,*,#357,.T.);
#451=ORIENTED_EDGE('',*,*,#358,.T.);
#452=ORIENTED_EDGE('',*,*,#359,.T.);
#453=ORIENTED_EDGE('',*,*,#349,.T.);
#454=ORIENTED_EDGE('',*,*,#320,.T.);
#455=ORIENTED_EDGE('',*,*,#323,.T.);
#456=ORIENTED_EDGE('',*,*,#360,.T.);
#457=ORIENTED_EDGE('',*,*,#361,.T.);
#458=ORIENTED_EDGE('',*,*,#362,.T.);
#459=ORIENTED_EDGE('',*,*,#363,.T.);
#460=ORIENTED_EDGE('',*,*,#364,.T.);
#461=ORIENTED_EDGE('',*,*,#365,.T.);
#462=ORIENTED_EDGE('',*,*,#366,.T.);
#463=ORIENTED_EDGE('',*,*,#367,.T.);
#464=ORIENTED_EDGE('',*,*,#339,.T.);
#465=ORIENTED_EDGE('',*,*,#355,.F.);
#466=ORIENTED_EDGE('',*,*,#368,.T.);
#467=ORIENTED_EDGE('',*,*,#369,.F.);
#468=ORIENTED_EDGE('',*,*,#367,.F.);
#469=ORIENTED_EDGE('',*,*,#370,.T.);
#470=ORIENTED_EDGE('',*,*,#371,.F.);
#471=ORIENTED_EDGE('',*,*,#370,.F.);
#472=ORIENTED_EDGE('',*,*,#366,.F.);
#473=ORIENTED_EDGE('',*,*,#372,.T.);
#474=ORIENTED_EDGE('',*,*,#373,.F.);
#475=ORIENTED_EDGE('',*,*,#372,.F.);
#476=ORIENTED_EDGE('',*,*,#365,.F.);
#477=ORIENTED_EDGE('',*,*,#374,.T.);
#478=ORIENTED_EDGE('',*,*,#375,.F.);
#479=ORIENTED_EDGE('',*,*,#374,.F.);
#480=ORIENTED_EDGE('',*,*,#364,.F.);
#481=ORIENTED_EDGE('',*,*,#376,.T.);
#482=ORIENTED_EDGE('',*,*,#377,.F.);
#483=ORIENTED_EDGE('',*,*,#376,.F.);
#484=ORIENTED_EDGE('',*,*,#363,.F.);
#485=ORIENTED_EDGE('',*,*,#378,.T.);
#486=ORIENTED_EDGE('',*,*,#379,.F.);
#487=ORIENTED_EDGE('',*,*,#378,.F.);
#488=ORIENTED_EDGE('',*,*,#362,.F.);
#489=ORIENTED_EDGE('',*,*,#380,.T.);
#490=ORIENTED_EDGE('',*,*,#381,.F.);
#491=ORIENTED_EDGE('',*,*,#380,.F.);
#492=ORIENTED_EDGE('',*,*,#382,.F.);
#493=ORIENTED_EDGE('',*,*,#383,.F.);
#494=ORIENTED_EDGE('',*,*,#352,.F.);
#495=ORIENTED_EDGE('',*,*,#347,.F.);
#496=ORIENTED_EDGE('',*,*,#384,.F.);
#497=ORIENTED_EDGE('',*,*,#385,.F.);
#498=ORIENTED_EDGE('',*,*,#357,.F.);
#499=ORIENTED_EDGE('',*,*,#386,.F.);
#500=ORIENTED_EDGE('',*,*,#387,.F.);
#501=ORIENTED_EDGE('',*,*,#368,.F.);
#502=ORIENTED_EDGE('',*,*,#354,.F.);
#503=ORIENTED_EDGE('',*,*,#388,.F.);
#504=ORIENTED_EDGE('',*,*,#389,.F.);
#505=ORIENTED_EDGE('',*,*,#350,.F.);
#506=ORIENTED_EDGE('',*,*,#359,.F.);
#507=ORIENTED_EDGE('',*,*,#390,.F.);
#508=ORIENTED_EDGE('',*,*,#333,.T.);
#509=ORIENTED_EDGE('',*,*,#351,.T.);
#510=ORIENTED_EDGE('',*,*,#389,.T.);
#511=ORIENTED_EDGE('',*,*,#391,.T.);
#512=ORIENTED_EDGE('',*,*,#384,.T.);
#513=ORIENTED_EDGE('',*,*,#392,.T.);
#514=ORIENTED_EDGE('',*,*,#340,.T.);
#515=ORIENTED_EDGE('',*,*,#344,.T.);
#516=ORIENTED_EDGE('',*,*,#336,.T.);
#517=ORIENTED_EDGE('',*,*,#369,.T.);
#518=ORIENTED_EDGE('',*,*,#387,.T.);
#519=ORIENTED_EDGE('',*,*,#393,.T.);
#520=ORIENTED_EDGE('',*,*,#382,.T.);
#521=ORIENTED_EDGE('',*,*,#346,.T.);
#522=ORIENTED_EDGE('',*,*,#326,.T.);
#523=ORIENTED_EDGE('',*,*,#330,.T.);
#524=ORIENTED_EDGE('',*,*,#322,.T.);
#525=ORIENTED_EDGE('',*,*,#325,.T.);
#526=ORIENTED_EDGE('',*,*,#371,.T.);
#527=ORIENTED_EDGE('',*,*,#373,.T.);
#528=ORIENTED_EDGE('',*,*,#375,.T.);
#529=ORIENTED_EDGE('',*,*,#377,.T.);
#530=ORIENTED_EDGE('',*,*,#379,.T.);
#531=ORIENTED_EDGE('',*,*,#381,.T.);
#532=ORIENTED_EDGE('',*,*,#394,.F.);
#533=ORIENTED_EDGE('',*,*,#395,.F.);
#534=ORIENTED_EDGE('',*,*,#385,.T.);
#535=ORIENTED_EDGE('',*,*,#391,.F.);
#536=ORIENTED_EDGE('',*,*,#390,.T.);
#537=ORIENTED_EDGE('',*,*,#358,.F.);
#538=ORIENTED_EDGE('',*,*,#395,.T.);
#539=ORIENTED_EDGE('',*,*,#396,.T.);
#540=ORIENTED_EDGE('',*,*,#361,.F.);
#541=ORIENTED_EDGE('',*,*,#397,.F.);
#542=ORIENTED_EDGE('',*,*,#394,.T.);
#543=ORIENTED_EDGE('',*,*,#397,.T.);
#544=ORIENTED_EDGE('',*,*,#360,.F.);
#545=ORIENTED_EDGE('',*,*,#396,.F.);
#546=ORIENTED_EDGE('',*,*,#341,.T.);
#547=ORIENTED_EDGE('',*,*,#392,.F.);
#548=ORIENTED_EDGE('',*,*,#386,.T.);
#549=ORIENTED_EDGE('',*,*,#356,.F.);
#550=ORIENTED_EDGE('',*,*,#383,.T.);
#551=ORIENTED_EDGE('',*,*,#393,.F.);
#552=ORIENTED_EDGE('',*,*,#388,.T.);
#553=ORIENTED_EDGE('',*,*,#353,.F.);
#554=CYLINDRICAL_SURFACE('',#606,1.5);
#555=CYLINDRICAL_SURFACE('',#609,1.5);
#556=CYLINDRICAL_SURFACE('',#629,1.5);
#557=CYLINDRICAL_SURFACE('',#631,1.5);
#558=CYLINDRICAL_SURFACE('',#633,1.5);
#559=CYLINDRICAL_SURFACE('',#635,1.5);
#560=CYLINDRICAL_SURFACE('',#637,1.5);
#561=CYLINDRICAL_SURFACE('',#639,1.5);
#562=CYLINDRICAL_SURFACE('',#649,4.00000000000001);
#563=ADVANCED_FACE('',(#56),#554,.F.);
#564=ADVANCED_FACE('',(#57),#555,.F.);
#565=ADVANCED_FACE('',(#58),#37,.F.);
#566=ADVANCED_FACE('',(#59),#38,.F.);
#567=ADVANCED_FACE('',(#60),#39,.F.);
#568=ADVANCED_FACE('',(#61),#40,.F.);
#569=ADVANCED_FACE('',(#62),#41,.F.);
#570=ADVANCED_FACE('',(#63),#42,.F.);
#571=ADVANCED_FACE('',(#64),#43,.T.);
#572=ADVANCED_FACE('',(#65),#44,.T.);
#573=ADVANCED_FACE('',(#66,#19,#20,#21,#22,#23,#24,#25,#26,#27),#45,.T.);
#574=ADVANCED_FACE('',(#67),#46,.T.);
#575=ADVANCED_FACE('',(#68),#556,.F.);
#576=ADVANCED_FACE('',(#69),#557,.F.);
#577=ADVANCED_FACE('',(#70),#558,.F.);
#578=ADVANCED_FACE('',(#71),#559,.F.);
#579=ADVANCED_FACE('',(#72),#560,.F.);
#580=ADVANCED_FACE('',(#73),#561,.F.);
#581=ADVANCED_FACE('',(#74),#47,.F.);
#582=ADVANCED_FACE('',(#75),#48,.F.);
#583=ADVANCED_FACE('',(#76),#49,.F.);
#584=ADVANCED_FACE('',(#77),#50,.F.);
#585=ADVANCED_FACE('',(#78,#28,#29,#30,#31,#32,#33,#34,#35,#36),#51,.F.);
#586=ADVANCED_FACE('',(#79),#52,.T.);
#587=ADVANCED_FACE('',(#80),#53,.T.);
#588=ADVANCED_FACE('',(#81),#562,.F.);
#589=ADVANCED_FACE('',(#82),#54,.T.);
#590=ADVANCED_FACE('',(#83),#55,.T.);
#591=CLOSED_SHELL('',(#563,#564,#565,#566,#567,#568,#569,#570,#571,#572,
#573,#574,#575,#576,#577,#578,#579,#580,#581,#582,#583,#584,#585,#586,#587,
#588,#589,#590));
#592=DERIVED_UNIT_ELEMENT(#594,1.);
#593=DERIVED_UNIT_ELEMENT(#979,-3.);
#594=(
MASS_UNIT()
NAMED_UNIT(*)
SI_UNIT(.KILO.,.GRAM.)
);
#595=DERIVED_UNIT((#592,#593));
#596=MEASURE_REPRESENTATION_ITEM('density measure',
POSITIVE_RATIO_MEASURE(7850.),#595);
#597=PROPERTY_DEFINITION_REPRESENTATION(#602,#599);
#598=PROPERTY_DEFINITION_REPRESENTATION(#603,#600);
#599=REPRESENTATION('material name',(#601),#976);
#600=REPRESENTATION('density',(#596),#976);
#601=DESCRIPTIVE_REPRESENTATION_ITEM('Steel','Steel');
#602=PROPERTY_DEFINITION('material property','material name',#991);
#603=PROPERTY_DEFINITION('material property','density of part',#991);
#604=AXIS2_PLACEMENT_3D('',#811,#653,#654);
#605=AXIS2_PLACEMENT_3D('',#812,#655,#656);
#606=AXIS2_PLACEMENT_3D('',#813,#657,#658);
#607=AXIS2_PLACEMENT_3D('',#815,#659,#660);
#608=AXIS2_PLACEMENT_3D('',#818,#662,#663);
#609=AXIS2_PLACEMENT_3D('',#819,#664,#665);
#610=AXIS2_PLACEMENT_3D('',#821,#666,#667);
#611=AXIS2_PLACEMENT_3D('',#824,#669,#670);
#612=AXIS2_PLACEMENT_3D('',#825,#671,#672);
#613=AXIS2_PLACEMENT_3D('',#834,#677,#678);
#614=AXIS2_PLACEMENT_3D('',#840,#682,#683);
#615=AXIS2_PLACEMENT_3D('',#846,#687,#688);
#616=AXIS2_PLACEMENT_3D('',#855,#693,#694);
#617=AXIS2_PLACEMENT_3D('',#864,#699,#700);
#618=AXIS2_PLACEMENT_3D('',#867,#703,#704);
#619=AXIS2_PLACEMENT_3D('',#873,#708,#709);
#620=AXIS2_PLACEMENT_3D('',#879,#713,#714);
#621=AXIS2_PLACEMENT_3D('',#896,#723,#724);
#622=AXIS2_PLACEMENT_3D('',#899,#726,#727);
#623=AXIS2_PLACEMENT_3D('',#901,#728,#729);
#624=AXIS2_PLACEMENT_3D('',#903,#730,#731);
#625=AXIS2_PLACEMENT_3D('',#905,#732,#733);
#626=AXIS2_PLACEMENT_3D('',#907,#734,#735);
#627=AXIS2_PLACEMENT_3D('',#909,#736,#737);
#628=AXIS2_PLACEMENT_3D('',#910,#738,#739);
#629=AXIS2_PLACEMENT_3D('',#914,#742,#743);
#630=AXIS2_PLACEMENT_3D('',#917,#745,#746);
#631=AXIS2_PLACEMENT_3D('',#918,#747,#748);
#632=AXIS2_PLACEMENT_3D('',#921,#750,#751);
#633=AXIS2_PLACEMENT_3D('',#922,#752,#753);
#634=AXIS2_PLACEMENT_3D('',#925,#755,#756);
#635=AXIS2_PLACEMENT_3D('',#926,#757,#758);
#636=AXIS2_PLACEMENT_3D('',#929,#760,#761);
#637=AXIS2_PLACEMENT_3D('',#930,#762,#763);
#638=AXIS2_PLACEMENT_3D('',#933,#765,#766);
#639=AXIS2_PLACEMENT_3D('',#934,#767,#768);
#640=AXIS2_PLACEMENT_3D('',#937,#770,#771);
#641=AXIS2_PLACEMENT_3D('',#938,#772,#773);
#642=AXIS2_PLACEMENT_3D('',#942,#776,#777);
#643=AXIS2_PLACEMENT_3D('',#948,#781,#782);
#644=AXIS2_PLACEMENT_3D('',#952,#785,#786);
#645=AXIS2_PLACEMENT_3D('',#956,#789,#790);
#646=AXIS2_PLACEMENT_3D('',#962,#794,#795);
#647=AXIS2_PLACEMENT_3D('',#964,#797,#798);
#648=AXIS2_PLACEMENT_3D('',#965,#799,#800);
#649=AXIS2_PLACEMENT_3D('',#968,#803,#804);
#650=AXIS2_PLACEMENT_3D('',#969,#805,#806);
#651=AXIS2_PLACEMENT_3D('',#970,#807,#808);
#652=AXIS2_PLACEMENT_3D('',#971,#809,#810);
#653=DIRECTION('axis',(0.,0.,1.));
#654=DIRECTION('refdir',(1.,0.,0.));
#655=DIRECTION('axis',(0.,0.,1.));
#656=DIRECTION('refdir',(1.,0.,0.));
#657=DIRECTION('center_axis',(0.,1.,1.34572487833352E-15));
#658=DIRECTION('ref_axis',(1.,0.,-1.59326931762946E-31));
#659=DIRECTION('center_axis',(-1.18394877235419E-16,1.,1.08639061006204E-15));
#660=DIRECTION('ref_axis',(1.,0.,-1.59326931762946E-31));
#661=DIRECTION('',(0.,1.,1.34572487833352E-15));
#662=DIRECTION('center_axis',(1.18394877235419E-16,-1.,-1.08639061006204E-15));
#663=DIRECTION('ref_axis',(1.,0.,-1.59326931762946E-31));
#664=DIRECTION('center_axis',(0.,1.,1.34572487833352E-15));
#665=DIRECTION('ref_axis',(1.,0.,-1.59326931762946E-31));
#666=DIRECTION('center_axis',(-1.18394877235419E-16,1.,1.08639061006204E-15));
#667=DIRECTION('ref_axis',(1.,0.,-1.59326931762946E-31));
#668=DIRECTION('',(0.,1.,1.34572487833352E-15));
#669=DIRECTION('center_axis',(1.18394877235419E-16,-1.,-1.08639061006204E-15));
#670=DIRECTION('ref_axis',(1.,0.,-1.59326931762946E-31));
#671=DIRECTION('center_axis',(-0.707106781186546,9.51571187081077E-16,-0.707106781186549));
#672=DIRECTION('ref_axis',(-0.707106781186549,-7.57684328331353E-16,0.707106781186546));
#673=DIRECTION('',(0.707106781186549,8.51911987943169E-16,-0.707106781186546));
#674=DIRECTION('',(-1.34572487833354E-16,1.,1.48029736616688E-15));
#675=DIRECTION('',(-0.707106781186549,-8.51911987943169E-16,0.707106781186546));
#676=DIRECTION('',(0.,1.,1.34572487833352E-15));
#677=DIRECTION('center_axis',(-1.57974958008168E-31,1.34572487833352E-15,
-1.));
#678=DIRECTION('ref_axis',(-1.,-1.13181629623411E-16,5.66362325361361E-33));
#679=DIRECTION('',(1.,1.18394877235419E-16,1.3519737547781E-33));
#680=DIRECTION('',(-1.,-1.18394877235419E-16,-1.3519737547781E-33));
#681=DIRECTION('',(0.,1.,1.34572487833352E-15));
#682=DIRECTION('center_axis',(0.707106781186548,9.51571187081075E-16,-0.707106781186548));
#683=DIRECTION('ref_axis',(-0.707106781186548,6.08047245156204E-16,-0.707106781186548));
#684=DIRECTION('',(0.707106781186548,-6.84476346841343E-16,0.707106781186548));
#685=DIRECTION('',(-0.707106781186548,6.84476346841343E-16,-0.707106781186548));
#686=DIRECTION('',(-1.34572487833353E-16,-1.,-1.48029736616688E-15));
#687=DIRECTION('center_axis',(-0.707106781186548,-4.75785593540538E-16,
0.707106781186547));
#688=DIRECTION('ref_axis',(0.707106781186547,-6.25845803082881E-16,0.707106781186548));
#689=DIRECTION('',(-0.707106781186547,6.84476346841343E-16,-0.707106781186548));
#690=DIRECTION('',(0.,1.,6.72862439166761E-16));
#691=DIRECTION('',(0.707106781186547,-6.84476346841343E-16,0.707106781186548));
#692=DIRECTION('',(-8.07434927000114E-16,-1.,-1.48029736616688E-15));
#693=DIRECTION('center_axis',(0.707106781186549,-4.75785593540537E-16,0.707106781186546));
#694=DIRECTION('ref_axis',(0.707106781186546,7.75482886258032E-16,-0.707106781186549));
#695=DIRECTION('',(-0.707106781186546,-8.51911987943171E-16,0.707106781186549));
#696=DIRECTION('',(-8.07434927000111E-16,1.,1.48029736616688E-15));
#697=DIRECTION('',(0.707106781186546,8.51911987943171E-16,-0.707106781186549));
#698=DIRECTION('',(0.,1.,6.72862439166761E-16));
#699=DIRECTION('center_axis',(3.14021503217411E-16,-6.72862439166761E-16,
1.));
#700=DIRECTION('ref_axis',(1.,1.13181629623411E-16,-3.14021503217411E-16));
#701=DIRECTION('',(-1.,-1.18394877235419E-16,3.14021503217411E-16));
#702=DIRECTION('',(1.,1.18394877235419E-16,-3.14021503217411E-16));
#703=DIRECTION('center_axis',(1.87585576583319E-31,-1.48029736616688E-15,
1.));
#704=DIRECTION('ref_axis',(-1.,-1.18394877235419E-16,1.23259516440783E-32));
#705=DIRECTION('',(1.,1.18394877235419E-16,-1.23259516440783E-32));
#706=DIRECTION('',(-1.34572487833355E-16,-1.,-1.48029736616688E-15));
#707=DIRECTION('',(-1.,-1.18394877235419E-16,1.23259516440783E-32));
#708=DIRECTION('center_axis',(1.87585576583319E-31,-1.48029736616688E-15,
1.));
#709=DIRECTION('ref_axis',(-1.,-1.18394877235419E-16,1.23259516440783E-32));
#710=DIRECTION('',(-1.,-1.18394877235419E-16,1.23259516440783E-32));
#711=DIRECTION('',(-1.34572487833355E-16,1.,1.48029736616688E-15));
#712=DIRECTION('',(1.,1.18394877235419E-16,-1.23259516440783E-32));
#713=DIRECTION('center_axis',(1.18394877235419E-16,-1.,-1.08639061006204E-15));
#714=DIRECTION('ref_axis',(1.,1.18394877235419E-16,-1.23259516440783E-32));
#715=DIRECTION('',(-0.707106781186548,6.84476346841343E-16,-0.707106781186547));
#716=DIRECTION('',(-1.40949034552085E-31,1.08639061006204E-15,-1.));
#717=DIRECTION('',(0.707106781186548,8.5191198794317E-16,-0.707106781186547));
#718=DIRECTION('',(1.,1.18394877235419E-16,-1.23259516440783E-32));
#719=DIRECTION('',(1.,1.18394877235419E-16,-1.23259516440783E-32));
#720=DIRECTION('',(0.707106781186548,-6.84476346841342E-16,0.707106781186547));
#721=DIRECTION('',(9.45059842241889E-33,2.42861286636753E-17,1.));
#722=DIRECTION('',(-0.707106781186549,-8.51911987943169E-16,0.707106781186546));
#723=DIRECTION('center_axis',(7.98195795166041E-17,1.,-2.18575157973077E-16));
#724=DIRECTION('ref_axis',(-0.714142842854285,2.10005192012575E-16,0.7));
#725=DIRECTION('',(1.,1.18394877235419E-16,-1.23259516440783E-32));
#726=DIRECTION('center_axis',(-1.18394877235419E-16,1.,1.08639061006204E-15));
#727=DIRECTION('ref_axis',(1.,0.,-1.59326931762946E-31));
#728=DIRECTION('center_axis',(-1.18394877235419E-16,1.,1.08639061006204E-15));
#729=DIRECTION('ref_axis',(1.,0.,1.59326931762945E-31));
#730=DIRECTION('center_axis',(-1.18394877235419E-16,1.,1.08639061006204E-15));
#731=DIRECTION('ref_axis',(1.,0.,1.59326931762945E-31));
#732=DIRECTION('center_axis',(-1.18394877235419E-16,1.,1.08639061006204E-15));
#733=DIRECTION('ref_axis',(1.,0.,1.59326931762945E-31));
#734=DIRECTION('center_axis',(-1.18394877235419E-16,1.,1.08639061006204E-15));
#735=DIRECTION('ref_axis',(1.,0.,1.59326931762945E-31));
#736=DIRECTION('center_axis',(-1.18394877235419E-16,1.,1.08639061006204E-15));
#737=DIRECTION('ref_axis',(1.,0.,1.59326931762945E-31));
#738=DIRECTION('center_axis',(-1.87585576583319E-31,1.48029736616688E-15,
-1.));
#739=DIRECTION('ref_axis',(1.,1.18394877235419E-16,-1.23259516440783E-32));
#740=DIRECTION('',(-1.34572487833355E-16,1.,1.48029736616688E-15));
#741=DIRECTION('',(-1.,-1.18394877235419E-16,1.23259516440783E-32));
#742=DIRECTION('center_axis',(0.,1.,1.34572487833352E-15));
#743=DIRECTION('ref_axis',(1.,0.,1.59326931762945E-31));
#744=DIRECTION('',(0.,1.,1.34572487833352E-15));
#745=DIRECTION('center_axis',(1.18394877235419E-16,-1.,-1.08639061006204E-15));
#746=DIRECTION('ref_axis',(1.,0.,1.59326931762945E-31));
#747=DIRECTION('center_axis',(0.,1.,1.34572487833352E-15));
#748=DIRECTION('ref_axis',(1.,0.,1.59326931762945E-31));
#749=DIRECTION('',(0.,1.,1.34572487833352E-15));
#750=DIRECTION('center_axis',(1.18394877235419E-16,-1.,-1.08639061006204E-15));
#751=DIRECTION('ref_axis',(1.,0.,1.59326931762945E-31));
#752=DIRECTION('center_axis',(0.,1.,1.34572487833352E-15));
#753=DIRECTION('ref_axis',(1.,0.,1.59326931762945E-31));
#754=DIRECTION('',(0.,1.,1.34572487833352E-15));
#755=DIRECTION('center_axis',(1.18394877235419E-16,-1.,-1.08639061006204E-15));
#756=DIRECTION('ref_axis',(1.,0.,1.59326931762945E-31));
#757=DIRECTION('center_axis',(0.,1.,1.34572487833352E-15));
#758=DIRECTION('ref_axis',(1.,0.,1.59326931762945E-31));
#759=DIRECTION('',(0.,1.,1.34572487833352E-15));
#760=DIRECTION('center_axis',(1.18394877235419E-16,-1.,-1.08639061006204E-15));
#761=DIRECTION('ref_axis',(1.,0.,1.59326931762945E-31));
#762=DIRECTION('center_axis',(0.,1.,1.34572487833352E-15));
#763=DIRECTION('ref_axis',(1.,0.,1.59326931762945E-31));
#764=DIRECTION('',(0.,1.,1.34572487833352E-15));
#765=DIRECTION('center_axis',(1.18394877235419E-16,-1.,-1.08639061006204E-15));
#766=DIRECTION('ref_axis',(1.,0.,1.59326931762945E-31));
#767=DIRECTION('center_axis',(0.,1.,1.34572487833352E-15));
#768=DIRECTION('ref_axis',(1.,0.,-1.59326931762946E-31));
#769=DIRECTION('',(0.,1.,1.34572487833352E-15));
#770=DIRECTION('center_axis',(1.18394877235419E-16,-1.,-1.08639061006204E-15));
#771=DIRECTION('ref_axis',(1.,0.,-1.59326931762946E-31));
#772=DIRECTION('center_axis',(0.707106781186547,9.51571187081075E-16,-0.707106781186548));
#773=DIRECTION('ref_axis',(-0.707106781186548,5.41147290580882E-16,-0.707106781186547));
#774=DIRECTION('',(0.707106781186548,-6.84476346841343E-16,0.707106781186547));
#775=DIRECTION('',(-1.89678622373835E-47,1.,1.34572487833352E-15));
#776=DIRECTION('center_axis',(-0.707106781186547,-9.51571187081075E-16,
0.707106781186548));
#777=DIRECTION('ref_axis',(0.707106781186548,-7.51482682565299E-16,0.707106781186547));
#778=DIRECTION('',(-0.707106781186548,6.84476346841342E-16,-0.707106781186547));
#779=DIRECTION('',(-1.27179054121889E-48,1.,1.34572487833352E-15));
#780=DIRECTION('',(-1.34572487833355E-16,-1.,-1.48029736616688E-15));
#781=DIRECTION('center_axis',(0.707106781186547,-9.51571187081074E-16,0.707106781186548));
#782=DIRECTION('ref_axis',(0.707106781186548,8.5191198794317E-16,-0.707106781186547));
#783=DIRECTION('',(-0.707106781186548,-8.5191198794317E-16,0.707106781186547));
#784=DIRECTION('',(1.89678622373835E-47,-1.,-1.34572487833352E-15));
#785=DIRECTION('center_axis',(-0.707106781186546,9.51571187081075E-16,-0.707106781186549));
#786=DIRECTION('ref_axis',(-0.707106781186549,-9.18918323667126E-16,0.707106781186546));
#787=DIRECTION('',(0.707106781186549,8.51911987943169E-16,-0.707106781186546));
#788=DIRECTION('',(1.27179054121889E-48,-1.,-1.34572487833352E-15));
#789=DIRECTION('center_axis',(1.18394877235419E-16,-1.,-1.08639061006204E-15));
#790=DIRECTION('ref_axis',(1.,1.18394877235419E-16,-1.23259516440783E-32));
#791=DIRECTION('',(-9.45059842241889E-33,-2.42861286636753E-17,-1.));
#792=DIRECTION('',(-1.,-1.18394877235419E-16,1.23259516440783E-32));
#793=DIRECTION('',(1.40949034552085E-31,-1.08639061006204E-15,1.));
#794=DIRECTION('center_axis',(7.98195795166041E-17,1.,-2.18575157973077E-16));
#795=DIRECTION('ref_axis',(-0.714142842854285,2.10005192012575E-16,0.7));
#796=DIRECTION('',(1.,1.18394877235419E-16,-1.23259516440783E-32));
#797=DIRECTION('center_axis',(1.,1.39896959534075E-47,-9.45059842241889E-33));
#798=DIRECTION('ref_axis',(9.45059842241889E-33,2.42861286636753E-17,1.));
#799=DIRECTION('center_axis',(-1.87585576583319E-31,1.48029736616688E-15,
-1.));
#800=DIRECTION('ref_axis',(1.,1.18394877235419E-16,-1.23259516440783E-32));
#801=DIRECTION('',(0.,-1.,-1.48029736616688E-15));
#802=DIRECTION('',(0.,-1.,-1.48029736616688E-15));
#803=DIRECTION('center_axis',(0.,-1.,-1.48029736616688E-15));
#804=DIRECTION('ref_axis',(-7.63278329429794E-16,1.48029736616688E-15,-1.));
#805=DIRECTION('center_axis',(-1.87585576583319E-31,1.48029736616688E-15,
-1.));
#806=DIRECTION('ref_axis',(1.,1.18394877235419E-16,-1.23259516440783E-32));
#807=DIRECTION('center_axis',(-1.,-2.08646484611215E-46,1.40949034552085E-31));
#808=DIRECTION('ref_axis',(-1.40949034552085E-31,1.08639061006204E-15,-1.));
#809=DIRECTION('',(1.81831284755332E-15,1.74219716968701E-18,-0.999999999999999));
#810=DIRECTION('',(-1.,-7.63278329429795E-17,-2.09554595897998E-15));
#811=CARTESIAN_POINT('',(0.,0.,0.));
#812=CARTESIAN_POINT('',(0.,0.,0.));
#813=CARTESIAN_POINT('Origin',(130.476748576242,-1.45482243984008,27.3));
#814=CARTESIAN_POINT('',(128.976748576242,-1.45482243984008,27.3));
#815=CARTESIAN_POINT('Origin',(130.476748576242,-1.45482243984008,27.3));
#816=CARTESIAN_POINT('',(128.976748576242,1.54517756015992,27.3));
#817=CARTESIAN_POINT('',(128.976748576242,-1.45482243984008,27.3));
#818=CARTESIAN_POINT('Origin',(130.476748576242,1.54517756015992,27.3));
#819=CARTESIAN_POINT('Origin',(145.476748576242,-1.45482243984008,27.3));
#820=CARTESIAN_POINT('',(143.976748576242,-1.45482243984008,27.3));
#821=CARTESIAN_POINT('Origin',(145.476748576242,-1.45482243984008,27.3));
#822=CARTESIAN_POINT('',(143.976748576242,1.54517756015992,27.3));
#823=CARTESIAN_POINT('',(143.976748576242,-1.45482243984008,27.3));
#824=CARTESIAN_POINT('Origin',(145.476748576242,1.54517756015992,27.3));
#825=CARTESIAN_POINT('Origin',(87.5477485762416,-1.45482243984009,34.371));
#826=CARTESIAN_POINT('',(84.6187485762416,1.5451775601599,37.3));
#827=CARTESIAN_POINT('',(87.5477485762416,1.54517756015991,34.371));
#828=CARTESIAN_POINT('',(95.0477485762416,1.54517756015992,26.871));
#829=CARTESIAN_POINT('',(84.6187485762416,-1.4548224398401,37.3));
#830=CARTESIAN_POINT('',(84.6187485762416,0.0451775601599144,37.3));
#831=CARTESIAN_POINT('',(87.5477485762416,-1.45482243984009,34.371));
#832=CARTESIAN_POINT('',(95.0477485762416,-1.45482243984008,26.871));
#833=CARTESIAN_POINT('',(87.5477485762416,-1.45482243984009,34.371));
#834=CARTESIAN_POINT('Origin',(101.689748576242,-1.45482243984009,34.371));
#835=CARTESIAN_POINT('',(101.689748576242,1.54517756015991,34.371));
#836=CARTESIAN_POINT('',(106.083248576242,1.54517756015991,34.371));
#837=CARTESIAN_POINT('',(101.689748576242,-1.45482243984009,34.371));
#838=CARTESIAN_POINT('',(106.083248576242,-1.45482243984009,34.371));
#839=CARTESIAN_POINT('',(101.689748576242,-1.45482243984009,34.371));
#840=CARTESIAN_POINT('Origin',(104.618748576242,-1.45482243984009,37.3));
#841=CARTESIAN_POINT('',(104.618748576242,1.54517756015991,37.3));
#842=CARTESIAN_POINT('',(103.583248576242,1.54517756015991,36.2645));
#843=CARTESIAN_POINT('',(104.618748576242,-1.45482243984009,37.3));
#844=CARTESIAN_POINT('',(103.583248576242,-1.45482243984009,36.2645));
#845=CARTESIAN_POINT('',(104.618748576242,0.0451775601599236,37.3));
#846=CARTESIAN_POINT('Origin',(84.6187485762416,-1.45482243984007,17.3));
#847=CARTESIAN_POINT('',(87.5477485762416,1.54517756015992,20.229));
#848=CARTESIAN_POINT('',(84.6187485762416,1.54517756015993,17.3));
#849=CARTESIAN_POINT('',(93.5832485762416,1.54517756015992,26.2645));
#850=CARTESIAN_POINT('',(87.5477485762416,-1.45482243984008,20.229));
#851=CARTESIAN_POINT('',(87.5477485762416,-1.45482243984008,20.229));
#852=CARTESIAN_POINT('',(84.6187485762416,-1.45482243984007,17.3));
#853=CARTESIAN_POINT('',(93.5832485762416,-1.45482243984008,26.2645));
#854=CARTESIAN_POINT('',(84.6187485762416,0.04517756015992,17.3));
#855=CARTESIAN_POINT('Origin',(101.689748576242,-1.45482243984008,20.229));
#856=CARTESIAN_POINT('',(104.618748576242,1.54517756015993,17.3));
#857=CARTESIAN_POINT('',(101.689748576242,1.54517756015993,20.229));
#858=CARTESIAN_POINT('',(102.118748576242,1.54517756015993,19.8));
#859=CARTESIAN_POINT('',(104.618748576242,-1.45482243984007,17.3));
#860=CARTESIAN_POINT('',(104.618748576242,0.0451775601599419,17.3));
#861=CARTESIAN_POINT('',(101.689748576242,-1.45482243984008,20.229));
#862=CARTESIAN_POINT('',(102.118748576242,-1.45482243984008,19.8));
#863=CARTESIAN_POINT('',(101.689748576242,-1.45482243984008,20.229));
#864=CARTESIAN_POINT('Origin',(87.5477485762416,-1.45482243984008,20.229));
#865=CARTESIAN_POINT('',(99.0122485762416,1.54517756015992,20.229));
#866=CARTESIAN_POINT('',(99.0122485762416,-1.45482243984008,20.229));
#867=CARTESIAN_POINT('Origin',(150.476748576242,1.54517756015993,37.3));
#868=CARTESIAN_POINT('',(76.3347485762416,1.5451775601599,37.3));
#869=CARTESIAN_POINT('',(90.4767485762416,1.54517756015993,37.3));
#870=CARTESIAN_POINT('',(76.3347485762416,-1.4548224398401,37.3));
#871=CARTESIAN_POINT('',(76.3347485762416,0.0451775601599236,37.3));
#872=CARTESIAN_POINT('',(90.4767485762416,-1.45482243984007,37.3));
#873=CARTESIAN_POINT('Origin',(150.476748576242,1.54517756015993,37.3));
#874=CARTESIAN_POINT('',(144.618748576242,-1.45482243984009,37.3));
#875=CARTESIAN_POINT('',(90.4767485762416,-1.45482243984007,37.3));
#876=CARTESIAN_POINT('',(144.618748576242,1.54517756015991,37.3));
#877=CARTESIAN_POINT('',(144.618748576242,0.0451775601599214,37.3));
#878=CARTESIAN_POINT('',(90.4767485762416,1.54517756015993,37.3));
#879=CARTESIAN_POINT('Origin',(110.476748576242,-1.45482243984008,27.3));
#880=CARTESIAN_POINT('',(70.4767485762416,-1.45482243984009,31.442));
#881=CARTESIAN_POINT('',(82.3702485762416,-1.4548224398401,43.3355));
#882=CARTESIAN_POINT('',(70.4767485762416,-1.45482243984008,23.158));
#883=CARTESIAN_POINT('',(70.4767485762416,-1.45482243984008,17.3));
#884=CARTESIAN_POINT('',(76.3347485762416,-1.45482243984008,17.3));
#885=CARTESIAN_POINT('',(79.4412485762416,-1.45482243984007,14.1935));
#886=CARTESIAN_POINT('',(90.4767485762416,-1.45482243984007,17.3));
#887=CARTESIAN_POINT('',(144.618748576242,-1.45482243984007,17.3));
#888=CARTESIAN_POINT('',(90.4767485762416,-1.45482243984007,17.3));
#889=CARTESIAN_POINT('',(150.476748576242,-1.45482243984007,23.158));
#890=CARTESIAN_POINT('',(138.583248576242,-1.45482243984006,11.2645));
#891=CARTESIAN_POINT('',(150.476748576242,-1.45482243984008,31.442));
#892=CARTESIAN_POINT('',(150.476748576242,-1.45482243984007,37.3));
#893=CARTESIAN_POINT('',(141.512248576242,-1.45482243984009,40.4065));
#894=CARTESIAN_POINT('',(83.3333199476588,-1.45482243984008,30.1));
#895=CARTESIAN_POINT('',(77.6201772048245,-1.45482243984008,30.1));
#896=CARTESIAN_POINT('Origin',(80.4767485762416,-1.45482243984009,27.3));
#897=CARTESIAN_POINT('',(83.3333199476587,-1.45482243984008,30.1));
#898=CARTESIAN_POINT('',(71.9767485762416,-1.45482243984008,27.3));
#899=CARTESIAN_POINT('Origin',(73.4767485762416,-1.45482243984008,27.3));
#900=CARTESIAN_POINT('',(118.654962252053,-1.45482243984009,32.3635323141696));
#901=CARTESIAN_POINT('Origin',(120.154962252053,-1.45482243984009,32.3635323141696));
#902=CARTESIAN_POINT('',(118.658924762249,-1.45482243984008,22.2676155609189));
#903=CARTESIAN_POINT('Origin',(120.158924762249,-1.45482243984008,22.2676155609189));
#904=CARTESIAN_POINT('',(108.908384349587,-1.45482243984009,29.3241491871392));
#905=CARTESIAN_POINT('Origin',(110.408384349587,-1.45482243984009,29.3241491871392));
#906=CARTESIAN_POINT('',(118.97674549533,-1.45482243984008,27.3156994554809));
#907=CARTESIAN_POINT('Origin',(120.47674549533,-1.45482243984008,27.3156994554809));
#908=CARTESIAN_POINT('',(108.906876770015,-1.45482243984008,25.2536798138449));
#909=CARTESIAN_POINT('Origin',(110.406876770015,-1.45482243984008,25.2536798138449));
#910=CARTESIAN_POINT('Origin',(70.4767485762416,1.54517756015993,17.3));
#911=CARTESIAN_POINT('',(76.3347485762416,1.54517756015993,17.3));
#912=CARTESIAN_POINT('',(76.3347485762416,0.0451775601599258,17.3));
#913=CARTESIAN_POINT('',(90.4767485762416,1.54517756015993,17.3));
#914=CARTESIAN_POINT('Origin',(110.406876770015,-4.45482243984011,25.2536798138449));
#915=CARTESIAN_POINT('',(108.906876770015,1.54517756015992,25.2536798138449));
#916=CARTESIAN_POINT('',(108.906876770015,-4.45482243984011,25.2536798138449));
#917=CARTESIAN_POINT('Origin',(110.406876770015,1.54517756015992,25.2536798138449));
#918=CARTESIAN_POINT('Origin',(120.47674549533,-4.45482243984011,27.3156994554809));
#919=CARTESIAN_POINT('',(118.97674549533,1.54517756015992,27.3156994554809));
#920=CARTESIAN_POINT('',(118.97674549533,-4.45482243984011,27.3156994554809));
#921=CARTESIAN_POINT('Origin',(120.47674549533,1.54517756015992,27.3156994554809));
#922=CARTESIAN_POINT('Origin',(110.408384349587,-4.45482243984012,29.3241491871392));
#923=CARTESIAN_POINT('',(108.908384349587,1.54517756015992,29.3241491871392));
#924=CARTESIAN_POINT('',(108.908384349587,-4.45482243984012,29.3241491871392));
#925=CARTESIAN_POINT('Origin',(110.408384349587,1.54517756015992,29.3241491871392));
#926=CARTESIAN_POINT('Origin',(120.158924762249,-4.45482243984011,22.2676155609189));
#927=CARTESIAN_POINT('',(118.658924762249,1.54517756015993,22.2676155609189));
#928=CARTESIAN_POINT('',(118.658924762249,-4.45482243984011,22.2676155609189));
#929=CARTESIAN_POINT('Origin',(120.158924762249,1.54517756015993,22.2676155609189));
#930=CARTESIAN_POINT('Origin',(120.154962252053,-4.45482243984012,32.3635323141696));
#931=CARTESIAN_POINT('',(118.654962252053,1.54517756015991,32.3635323141696));
#932=CARTESIAN_POINT('',(118.654962252053,-4.45482243984012,32.3635323141696));
#933=CARTESIAN_POINT('Origin',(120.154962252053,1.54517756015991,32.3635323141696));
#934=CARTESIAN_POINT('Origin',(73.4767485762416,-1.45482243984008,27.3));
#935=CARTESIAN_POINT('',(71.9767485762416,1.54517756015992,27.3));
#936=CARTESIAN_POINT('',(71.9767485762416,-1.45482243984008,27.3));
#937=CARTESIAN_POINT('Origin',(73.4767485762416,1.54517756015992,27.3));
#938=CARTESIAN_POINT('Origin',(76.3347485762416,-1.4548224398401,37.3));
#939=CARTESIAN_POINT('',(70.4767485762416,1.54517756015991,31.442));
#940=CARTESIAN_POINT('',(82.3702485762416,1.5451775601599,43.3355));
#941=CARTESIAN_POINT('',(70.4767485762416,0.0451775601599103,31.442));
#942=CARTESIAN_POINT('Origin',(144.618748576242,-1.45482243984007,17.3));
#943=CARTESIAN_POINT('',(150.476748576242,1.54517756015993,23.158));
#944=CARTESIAN_POINT('',(144.618748576242,1.54517756015993,17.3));
#945=CARTESIAN_POINT('',(138.583248576242,1.54517756015994,11.2645));
#946=CARTESIAN_POINT('',(150.476748576242,0.0451775601599258,23.158));
#947=CARTESIAN_POINT('',(144.618748576242,0.0451775601599236,17.3));
#948=CARTESIAN_POINT('Origin',(70.4767485762416,-1.45482243984008,23.158));
#949=CARTESIAN_POINT('',(70.4767485762416,1.54517756015992,23.158));
#950=CARTESIAN_POINT('',(79.4412485762416,1.54517756015993,14.1935));
#951=CARTESIAN_POINT('',(70.4767485762416,0.0451775601599191,23.158));
#952=CARTESIAN_POINT('Origin',(150.476748576242,-1.45482243984008,31.442));
#953=CARTESIAN_POINT('',(150.476748576242,1.54517756015992,31.442));
#954=CARTESIAN_POINT('',(141.512248576242,1.54517756015991,40.4065));
#955=CARTESIAN_POINT('',(150.476748576242,0.045177560159918,31.442));
#956=CARTESIAN_POINT('Origin',(110.476748576242,1.54517756015992,27.3));
#957=CARTESIAN_POINT('',(150.476748576242,1.54517756015994,37.3));
#958=CARTESIAN_POINT('',(90.4767485762416,1.54517756015993,17.3));
#959=CARTESIAN_POINT('',(70.4767485762416,1.54517756015993,17.3));
#960=CARTESIAN_POINT('',(83.3333199476588,1.54517756015992,30.1));
#961=CARTESIAN_POINT('',(77.6201772048245,1.54517756015992,30.1));
#962=CARTESIAN_POINT('Origin',(80.4767485762416,1.54517756015992,27.3));
#963=CARTESIAN_POINT('',(83.3333199476587,1.54517756015992,30.1));
#964=CARTESIAN_POINT('Origin',(150.476748576242,1.54517756015994,17.3));
#965=CARTESIAN_POINT('Origin',(77.6201772048245,1.54517756015992,30.1));
#966=CARTESIAN_POINT('',(83.3333199476588,1.54517756015992,30.1));
#967=CARTESIAN_POINT('',(77.6201772048245,1.54517756015992,30.1));
#968=CARTESIAN_POINT('Origin',(80.4767485762416,1.54517756015992,27.3));
#969=CARTESIAN_POINT('Origin',(70.4767485762416,1.54517756015993,17.3));
#970=CARTESIAN_POINT('Origin',(70.4767485762416,1.5451775601599,37.3));
#971=CARTESIAN_POINT('',(-3.41406054140139,-1.57324283930655,-26.3510259497562));
#972=UNCERTAINTY_MEASURE_WITH_UNIT(LENGTH_MEASURE(0.01),#978,
'DISTANCE_ACCURACY_VALUE',
'Maximum model space distance between geometric entities at asserted c
onnectivities');
#973=UNCERTAINTY_MEASURE_WITH_UNIT(LENGTH_MEASURE(0.01),#978,
'DISTANCE_ACCURACY_VALUE',
'Maximum model space distance between geometric entities at asserted c
onnectivities');
#974=UNCERTAINTY_MEASURE_WITH_UNIT(LENGTH_MEASURE(0.01),#978,
'DISTANCE_ACCURACY_VALUE',
'Maximum model space distance between geometric entities at asserted c
onnectivities');
#975=(
GEOMETRIC_REPRESENTATION_CONTEXT(3)
GLOBAL_UNCERTAINTY_ASSIGNED_CONTEXT((#972))
GLOBAL_UNIT_ASSIGNED_CONTEXT((#978,#980,#981))
REPRESENTATION_CONTEXT('','3D')
);
#976=(
GEOMETRIC_REPRESENTATION_CONTEXT(3)
GLOBAL_UNCERTAINTY_ASSIGNED_CONTEXT((#973))
GLOBAL_UNIT_ASSIGNED_CONTEXT((#978,#980,#981))
REPRESENTATION_CONTEXT('','3D')
);
#977=(
GEOMETRIC_REPRESENTATION_CONTEXT(3)
GLOBAL_UNCERTAINTY_ASSIGNED_CONTEXT((#974))
GLOBAL_UNIT_ASSIGNED_CONTEXT((#978,#980,#981))
REPRESENTATION_CONTEXT('','3D')
);
#978=(
LENGTH_UNIT()
NAMED_UNIT(*)
SI_UNIT(.MILLI.,.METRE.)
);
#979=(
LENGTH_UNIT()
NAMED_UNIT(*)
SI_UNIT($,.METRE.)
);
#980=(
NAMED_UNIT(*)
PLANE_ANGLE_UNIT()
SI_UNIT($,.RADIAN.)
);
#981=(
NAMED_UNIT(*)
SI_UNIT($,.STERADIAN.)
SOLID_ANGLE_UNIT()
);
#982=SHAPE_DEFINITION_REPRESENTATION(#984,#987);
#983=SHAPE_DEFINITION_REPRESENTATION(#985,#988);
#984=PRODUCT_DEFINITION_SHAPE('',$,#990);
#985=PRODUCT_DEFINITION_SHAPE('',$,#991);
#986=PRODUCT_DEFINITION_SHAPE($,$,#14);
#987=SHAPE_REPRESENTATION('',(#604,#652),#975);
#988=SHAPE_REPRESENTATION('',(#605),#976);
#989=PRODUCT_DEFINITION_CONTEXT('part definition',#997,'design');
#990=PRODUCT_DEFINITION('Arms','Arms v1',#992,#989);
#991=PRODUCT_DEFINITION('LowerArm','LowerArm',#993,#989);
#992=PRODUCT_DEFINITION_FORMATION('',$,#999);
#993=PRODUCT_DEFINITION_FORMATION('',$,#1000);
#994=PRODUCT_RELATED_PRODUCT_CATEGORY('Arms v1','Arms v1',(#999));
#995=PRODUCT_RELATED_PRODUCT_CATEGORY('LowerArm','LowerArm',(#1000));
#996=APPLICATION_PROTOCOL_DEFINITION('international standard',
'automotive_design',2009,#997);
#997=APPLICATION_CONTEXT(
'Core Data for Automotive Mechanical Design Process');
#998=PRODUCT_CONTEXT('part definition',#997,'mechanical');
#999=PRODUCT('Arms','Arms v1',$,(#998));
#1000=PRODUCT('LowerArm','LowerArm',$,(#998));
#1001=PRESENTATION_STYLE_ASSIGNMENT((#1002));
#1002=SURFACE_STYLE_USAGE(.BOTH.,#1003);
#1003=SURFACE_SIDE_STYLE('',(#1004));
#1004=SURFACE_STYLE_FILL_AREA(#1005);
#1005=FILL_AREA_STYLE('Steel - Satin',(#1006));
#1006=FILL_AREA_STYLE_COLOUR('Steel - Satin',#1007);
#1007=COLOUR_RGB('Steel - Satin',0.627450980392157,0.627450980392157,0.627450980392157);
ENDSEC;
END-ISO-10303-21;
